STARTFONT 2.1
COMMENT
COMMENT Converted from OpenType font "Galmuri11.ttf" by "otf2bdf 3.0".
COMMENT
FONT -FreeType-Galmuri11 Regular-Medium-R-Normal--17-120-100-100-P-147-ISO10646-1
SIZE 12 100 100
FONTBOUNDINGBOX 27 26 -3 -4
STARTPROPERTIES 19
FOUNDRY "FreeType"
FAMILY_NAME "Galmuri11 Regular"
WEIGHT_NAME "Medium"
SLANT "R"
SETWIDTH_NAME "Normal"
ADD_STYLE_NAME ""
PIXEL_SIZE 17
POINT_SIZE 120
RESOLUTION_X 100
RESOLUTION_Y 100
SPACING "P"
AVERAGE_WIDTH 147
CHARSET_REGISTRY "ISO10646"
CHARSET_ENCODING "1"
FONT_ASCENT 17
FONT_DESCENT -2
COPYRIGHT "Copyright (c) 2019-2022 Minseo Lee (itoupluk427@gmail.com), with Reserved Font Name "Galmuri"."
_OTF_FONTFILE "Galmuri11.ttf"
_OTF_PSNAME "Galmuri11-Regular"
ENDPROPERTIES
CHARS 20374
STARTCHAR 0020
ENCODING 32
SWIDTH 420 0
DWIDTH 7 0
BBX 0 0 0 0
BITMAP
ENDCHAR
STARTCHAR 0021
ENCODING 33
SWIDTH 360 0
DWIDTH 6 0
BBX 1 15 2 0
BITMAP
80
80
80
80
80
80
80
80
80
80
80
00
80
80
80
ENDCHAR
STARTCHAR 0022
ENCODING 34
SWIDTH 300 0
DWIDTH 5 0
BBX 4 4 0 11
BITMAP
90
90
90
90
ENDCHAR
STARTCHAR 0023
ENCODING 35
SWIDTH 720 0
DWIDTH 12 0
BBX 10 15 0 0
BITMAP
0480
0480
0480
0480
3FC0
1200
1200
1200
1200
FF80
2400
2400
2400
2400
2400
ENDCHAR
STARTCHAR 0024
ENCODING 36
SWIDTH 600 0
DWIDTH 10 0
BBX 9 15 0 0
BITMAP
0800
7F00
0800
8880
8800
8800
8800
7F00
0880
0880
0880
8880
7F00
0800
0800
ENDCHAR
STARTCHAR 0025
ENCODING 37
SWIDTH 780 0
DWIDTH 13 0
BBX 12 12 0 2
BITMAP
7010
0000
8820
8880
7100
0000
0200
08E0
0000
1110
4110
80E0
ENDCHAR
STARTCHAR 0026
ENCODING 38
SWIDTH 600 0
DWIDTH 10 0
BBX 9 15 0 0
BITMAP
1800
4200
4200
4200
4200
4800
0000
1000
4800
0000
8280
8100
4280
0000
1800
ENDCHAR
STARTCHAR 0027
ENCODING 39
SWIDTH 360 0
DWIDTH 6 0
BBX 1 4 2 11
BITMAP
80
80
80
80
ENDCHAR
STARTCHAR 0028
ENCODING 40
SWIDTH 300 0
DWIDTH 5 0
BBX 4 15 0 0
BITMAP
30
40
40
40
80
80
80
80
80
80
80
40
40
40
30
ENDCHAR
STARTCHAR 0029
ENCODING 41
SWIDTH 300 0
DWIDTH 5 0
BBX 4 15 0 0
BITMAP
80
40
40
40
30
30
30
30
30
30
30
40
40
40
80
ENDCHAR
STARTCHAR 002A
ENCODING 42
SWIDTH 480 0
DWIDTH 8 0
BBX 7 10 0 3
BITMAP
10
10
92
78
10
10
78
10
92
10
ENDCHAR
STARTCHAR 002B
ENCODING 43
SWIDTH 660 0
DWIDTH 11 0
BBX 9 9 0 3
BITMAP
0800
0800
0800
0800
FF80
0800
0800
0800
0800
ENDCHAR
STARTCHAR 002C
ENCODING 44
SWIDTH 300 0
DWIDTH 5 0
BBX 2 2 0 -1
BITMAP
40
80
ENDCHAR
STARTCHAR 002D
ENCODING 45
SWIDTH 480 0
DWIDTH 8 0
BBX 7 1 0 7
BITMAP
FE
ENDCHAR
STARTCHAR 002E
ENCODING 46
SWIDTH 360 0
DWIDTH 6 0
BBX 1 1 2 0
BITMAP
80
ENDCHAR
STARTCHAR 002F
ENCODING 47
SWIDTH 480 0
DWIDTH 8 0
BBX 7 15 0 0
BITMAP
02
02
02
08
08
10
10
10
10
40
40
40
80
80
80
ENDCHAR
STARTCHAR 0030
ENCODING 48
SWIDTH 600 0
DWIDTH 10 0
BBX 9 15 0 0
BITMAP
1E00
4100
8080
8080
8080
8080
8080
8080
8080
8080
8080
8080
4100
0000
1E00
ENDCHAR
STARTCHAR 0031
ENCODING 49
SWIDTH 480 0
DWIDTH 8 0
BBX 4 15 1 0
BITMAP
20
E0
20
20
20
20
20
20
20
20
20
20
20
20
F0
ENDCHAR
STARTCHAR 0032
ENCODING 50
SWIDTH 600 0
DWIDTH 10 0
BBX 9 15 0 0
BITMAP
1E00
4100
0000
8080
0080
0100
0000
0E00
1000
0000
4000
8000
8000
8000
FF80
ENDCHAR
STARTCHAR 0033
ENCODING 51
SWIDTH 600 0
DWIDTH 10 0
BBX 9 15 0 0
BITMAP
1E00
4100
0000
8080
0080
0100
0000
1E00
0100
0080
0080
8080
4100
0000
1E00
ENDCHAR
STARTCHAR 0034
ENCODING 52
SWIDTH 660 0
DWIDTH 11 0
BBX 9 15 0 0
BITMAP
0700
0900
0900
0900
1100
1100
1100
4100
4100
C100
8100
FF80
0100
0100
0100
ENDCHAR
STARTCHAR 0035
ENCODING 53
SWIDTH 600 0
DWIDTH 10 0
BBX 9 15 0 0
BITMAP
FF80
8000
8000
8000
8000
9E00
8000
E100
0080
0080
0080
8080
4100
0000
1E00
ENDCHAR
STARTCHAR 0036
ENCODING 54
SWIDTH 600 0
DWIDTH 10 0
BBX 9 15 0 0
BITMAP
0E00
1000
0000
4000
4000
9E00
8000
C100
8080
8080
8080
8080
4100
0000
1E00
ENDCHAR
STARTCHAR 0037
ENCODING 55
SWIDTH 660 0
DWIDTH 11 0
BBX 10 15 0 0
BITMAP
FFC0
0040
0040
0040
0100
0100
0100
0200
0200
0800
0800
0800
1000
1000
1000
ENDCHAR
STARTCHAR 0038
ENCODING 56
SWIDTH 600 0
DWIDTH 10 0
BBX 9 15 0 0
BITMAP
1E00
4100
0000
8080
8080
4100
0000
1E00
4100
8080
8080
8080
4100
0000
1E00
ENDCHAR
STARTCHAR 0039
ENCODING 57
SWIDTH 600 0
DWIDTH 10 0
BBX 9 15 0 0
BITMAP
3E00
4100
0000
8080
8080
8080
8080
4180
3E80
0100
0100
0100
0200
0000
3800
ENDCHAR
STARTCHAR 003A
ENCODING 58
SWIDTH 360 0
DWIDTH 6 0
BBX 1 8 2 3
BITMAP
80
80
80
00
00
80
80
80
ENDCHAR
STARTCHAR 003B
ENCODING 59
SWIDTH 300 0
DWIDTH 5 0
BBX 2 8 0 3
BITMAP
40
40
40
00
00
00
40
80
ENDCHAR
STARTCHAR 003C
ENCODING 60
SWIDTH 360 0
DWIDTH 6 0
BBX 5 9 0 3
BITMAP
08
10
40
00
80
40
00
10
08
ENDCHAR
STARTCHAR 003D
ENCODING 61
SWIDTH 480 0
DWIDTH 8 0
BBX 7 4 0 6
BITMAP
FE
00
00
FE
ENDCHAR
STARTCHAR 003E
ENCODING 62
SWIDTH 360 0
DWIDTH 6 0
BBX 5 9 0 3
BITMAP
80
40
10
00
08
10
00
40
80
ENDCHAR
STARTCHAR 003F
ENCODING 63
SWIDTH 480 0
DWIDTH 8 0
BBX 7 15 0 0
BITMAP
78
82
82
82
02
08
00
10
10
10
10
00
10
10
10
ENDCHAR
STARTCHAR 0040
ENCODING 64
SWIDTH 780 0
DWIDTH 13 0
BBX 12 12 0 2
BITMAP
1FC0
0000
4020
8F10
9110
9110
9110
9720
89C0
0000
4000
1FE0
ENDCHAR
STARTCHAR 0041
ENCODING 65
SWIDTH 600 0
DWIDTH 10 0
BBX 9 15 0 0
BITMAP
0800
1200
1200
1200
1200
4100
4100
4100
4100
4100
7F00
8080
8080
8080
8080
ENDCHAR
STARTCHAR 0042
ENCODING 66
SWIDTH 600 0
DWIDTH 10 0
BBX 9 15 0 0
BITMAP
FE00
8100
8000
8080
8080
8100
8000
FE00
8100
8080
8080
8080
8100
8000
FE00
ENDCHAR
STARTCHAR 0043
ENCODING 67
SWIDTH 720 0
DWIDTH 12 0
BBX 11 15 0 0
BITMAP
3F00
4080
0000
8020
8000
8000
8000
8000
8000
8000
8000
8020
4080
0000
3F00
ENDCHAR
STARTCHAR 0044
ENCODING 68
SWIDTH 600 0
DWIDTH 10 0
BBX 9 15 0 0
BITMAP
FE00
8100
8080
8080
8080
8080
8080
8080
8080
8080
8080
8080
8100
8000
FE00
ENDCHAR
STARTCHAR 0045
ENCODING 69
SWIDTH 600 0
DWIDTH 10 0
BBX 8 15 0 0
BITMAP
FF
80
80
80
80
80
80
FF
80
80
80
80
80
80
FF
ENDCHAR
STARTCHAR 0046
ENCODING 70
SWIDTH 600 0
DWIDTH 10 0
BBX 8 15 0 0
BITMAP
FF
80
80
80
80
80
80
FF
80
80
80
80
80
80
80
ENDCHAR
STARTCHAR 0047
ENCODING 71
SWIDTH 720 0
DWIDTH 12 0
BBX 11 15 0 0
BITMAP
3F00
4080
0000
8020
8000
8000
8000
87E0
8020
8020
8020
8020
4080
0000
3F00
ENDCHAR
STARTCHAR 0048
ENCODING 72
SWIDTH 600 0
DWIDTH 10 0
BBX 9 15 0 0
BITMAP
8080
8080
8080
8080
8080
8080
8080
FF80
8080
8080
8080
8080
8080
8080
8080
ENDCHAR
STARTCHAR 0049
ENCODING 73
SWIDTH 300 0
DWIDTH 5 0
BBX 4 15 0 0
BITMAP
F0
20
20
20
20
20
20
20
20
20
20
20
20
20
F0
ENDCHAR
STARTCHAR 004A
ENCODING 74
SWIDTH 540 0
DWIDTH 9 0
BBX 8 15 0 0
BITMAP
01
01
01
01
01
01
01
01
01
01
01
81
42
00
38
ENDCHAR
STARTCHAR 004B
ENCODING 75
SWIDTH 600 0
DWIDTH 10 0
BBX 9 15 0 0
BITMAP
8080
8100
8000
8200
8800
9000
8000
E000
9000
8000
8800
8200
8100
8000
8080
ENDCHAR
STARTCHAR 004C
ENCODING 76
SWIDTH 600 0
DWIDTH 10 0
BBX 8 15 0 0
BITMAP
80
80
80
80
80
80
80
80
80
80
80
80
80
80
FF
ENDCHAR
STARTCHAR 004D
ENCODING 77
SWIDTH 780 0
DWIDTH 13 0
BBX 12 15 0 0
BITMAP
8010
E070
E070
E070
9090
9090
9090
9090
8910
8910
8910
8910
8210
8210
8210
ENDCHAR
STARTCHAR 004E
ENCODING 78
SWIDTH 660 0
DWIDTH 11 0
BBX 9 15 0 0
BITMAP
8080
E080
E080
E080
9080
9080
9080
8880
8280
8280
8280
8180
8180
8180
8080
ENDCHAR
STARTCHAR 004F
ENCODING 79
SWIDTH 720 0
DWIDTH 12 0
BBX 11 15 0 0
BITMAP
3F00
4080
8020
8020
8020
8020
8020
8020
8020
8020
8020
8020
4080
0000
3F00
ENDCHAR
STARTCHAR 0050
ENCODING 80
SWIDTH 600 0
DWIDTH 10 0
BBX 9 15 0 0
BITMAP
FE00
8100
8000
8080
8080
8080
8080
8100
FE00
8000
8000
8000
8000
8000
8000
ENDCHAR
STARTCHAR 0051
ENCODING 81
SWIDTH 720 0
DWIDTH 12 0
BBX 11 15 0 0
BITMAP
3F00
4080
8020
8020
8020
8020
8020
8020
8020
8020
8220
8120
4080
0000
3F20
ENDCHAR
STARTCHAR 0052
ENCODING 82
SWIDTH 600 0
DWIDTH 10 0
BBX 9 15 0 0
BITMAP
FE00
8100
8000
8080
8080
8080
8080
8100
FE00
8800
8800
8200
8100
8000
8080
ENDCHAR
STARTCHAR 0053
ENCODING 83
SWIDTH 600 0
DWIDTH 10 0
BBX 9 15 0 0
BITMAP
1E00
4100
0000
8080
8000
4000
0000
1E00
0100
0080
0080
8080
4100
0000
1E00
ENDCHAR
STARTCHAR 0054
ENCODING 84
SWIDTH 660 0
DWIDTH 11 0
BBX 9 15 0 0
BITMAP
FF80
0800
0800
0800
0800
0800
0800
0800
0800
0800
0800
0800
0800
0800
0800
ENDCHAR
STARTCHAR 0055
ENCODING 85
SWIDTH 720 0
DWIDTH 12 0
BBX 11 15 0 0
BITMAP
8020
8020
8020
8020
8020
8020
8020
8020
8020
8020
8020
8020
4080
0000
3F00
ENDCHAR
STARTCHAR 0056
ENCODING 86
SWIDTH 600 0
DWIDTH 10 0
BBX 9 15 0 0
BITMAP
8080
8080
8080
8080
4100
4100
4100
4100
1200
1200
1200
1200
0800
0800
0800
ENDCHAR
STARTCHAR 0057
ENCODING 87
SWIDTH 780 0
DWIDTH 13 0
BBX 12 15 0 0
BITMAP
8210
8210
8210
8210
8210
4920
4920
4920
4920
4920
4920
1080
1080
1080
1080
ENDCHAR
STARTCHAR 0058
ENCODING 88
SWIDTH 600 0
DWIDTH 10 0
BBX 9 15 0 0
BITMAP
8080
4100
4100
4100
1200
1200
1200
0800
1200
1200
1200
4100
4100
4100
8080
ENDCHAR
STARTCHAR 0059
ENCODING 89
SWIDTH 600 0
DWIDTH 10 0
BBX 9 15 0 0
BITMAP
8080
8080
8080
4100
4100
1200
1200
1200
0800
0800
0800
0800
0800
0800
0800
ENDCHAR
STARTCHAR 005A
ENCODING 90
SWIDTH 600 0
DWIDTH 10 0
BBX 8 15 0 0
BITMAP
FF
02
02
02
08
08
08
10
10
40
40
40
80
80
FF
ENDCHAR
STARTCHAR 005B
ENCODING 91
SWIDTH 300 0
DWIDTH 5 0
BBX 4 15 0 0
BITMAP
F0
80
80
80
80
80
80
80
80
80
80
80
80
80
F0
ENDCHAR
STARTCHAR 005C
ENCODING 92
SWIDTH 480 0
DWIDTH 8 0
BBX 7 15 0 0
BITMAP
80
80
80
40
40
10
10
10
10
08
08
08
02
02
02
ENDCHAR
STARTCHAR 005D
ENCODING 93
SWIDTH 360 0
DWIDTH 6 0
BBX 4 15 0 0
BITMAP
F0
10
10
10
10
10
10
10
10
10
10
10
10
10
F0
ENDCHAR
STARTCHAR 005E
ENCODING 94
SWIDTH 480 0
DWIDTH 8 0
BBX 7 4 0 11
BITMAP
10
00
48
82
ENDCHAR
STARTCHAR 005F
ENCODING 95
SWIDTH 480 0
DWIDTH 8 0
BBX 7 1 0 0
BITMAP
FE
ENDCHAR
STARTCHAR 0060
ENCODING 96
SWIDTH 300 0
DWIDTH 5 0
BBX 4 4 0 11
BITMAP
80
00
40
30
ENDCHAR
STARTCHAR 0061
ENCODING 97
SWIDTH 540 0
DWIDTH 9 0
BBX 8 11 0 0
BITMAP
7E
81
01
01
3F
01
81
81
87
01
79
ENDCHAR
STARTCHAR 0062
ENCODING 98
SWIDTH 600 0
DWIDTH 10 0
BBX 9 15 0 0
BITMAP
8000
8000
8000
8000
9E00
E100
8000
8080
8080
8080
8080
8080
E100
8000
9E00
ENDCHAR
STARTCHAR 0063
ENCODING 99
SWIDTH 540 0
DWIDTH 9 0
BBX 8 11 0 0
BITMAP
1E
41
00
80
80
80
80
80
41
00
1E
ENDCHAR
STARTCHAR 0064
ENCODING 100
SWIDTH 600 0
DWIDTH 10 0
BBX 9 15 0 0
BITMAP
0080
0080
0080
0080
1E80
4180
0080
8080
8080
8080
8080
8080
4180
0080
1E80
ENDCHAR
STARTCHAR 0065
ENCODING 101
SWIDTH 600 0
DWIDTH 10 0
BBX 9 11 0 0
BITMAP
1E00
4100
8080
8080
FF80
8000
8000
8080
4100
0000
1E00
ENDCHAR
STARTCHAR 0066
ENCODING 102
SWIDTH 480 0
DWIDTH 8 0
BBX 7 15 0 0
BITMAP
0E
10
10
10
FE
10
10
10
10
10
10
10
10
10
10
ENDCHAR
STARTCHAR 0067
ENCODING 103
SWIDTH 600 0
DWIDTH 10 0
BBX 9 14 0 -3
BITMAP
1E80
0080
4180
8080
8080
8080
8080
4180
0080
1E80
8080
4100
0000
1E00
ENDCHAR
STARTCHAR 0068
ENCODING 104
SWIDTH 540 0
DWIDTH 9 0
BBX 8 15 0 0
BITMAP
80
80
80
80
9E
E1
81
81
81
81
81
81
81
81
81
ENDCHAR
STARTCHAR 0069
ENCODING 105
SWIDTH 360 0
DWIDTH 6 0
BBX 1 14 2 0
BITMAP
80
00
00
80
80
80
80
80
80
80
80
80
80
80
ENDCHAR
STARTCHAR 006A
ENCODING 106
SWIDTH 480 0
DWIDTH 8 0
BBX 5 16 0 -3
BITMAP
08
00
08
08
08
08
08
08
08
08
08
08
08
88
00
70
ENDCHAR
STARTCHAR 006B
ENCODING 107
SWIDTH 540 0
DWIDTH 9 0
BBX 8 15 0 0
BITMAP
80
80
80
80
81
82
80
88
F0
90
90
88
82
80
81
ENDCHAR
STARTCHAR 006C
ENCODING 108
SWIDTH 360 0
DWIDTH 6 0
BBX 1 15 2 0
BITMAP
80
80
80
80
80
80
80
80
80
80
80
80
80
80
80
ENDCHAR
STARTCHAR 006D
ENCODING 109
SWIDTH 780 0
DWIDTH 13 0
BBX 12 11 0 0
BITMAP
B8E0
C310
8210
8210
8210
8210
8210
8210
8210
8210
8210
ENDCHAR
STARTCHAR 006E
ENCODING 110
SWIDTH 540 0
DWIDTH 9 0
BBX 8 11 0 0
BITMAP
9E
E1
81
81
81
81
81
81
81
81
81
ENDCHAR
STARTCHAR 006F
ENCODING 111
SWIDTH 600 0
DWIDTH 10 0
BBX 9 11 0 0
BITMAP
1E00
4100
0000
8080
8080
8080
8080
8080
4100
0000
1E00
ENDCHAR
STARTCHAR 0070
ENCODING 112
SWIDTH 600 0
DWIDTH 10 0
BBX 9 14 0 -3
BITMAP
9E00
8000
E100
8080
8080
8080
8080
E100
8000
9E00
8000
8000
8000
8000
ENDCHAR
STARTCHAR 0071
ENCODING 113
SWIDTH 600 0
DWIDTH 10 0
BBX 9 14 0 -3
BITMAP
1E80
0080
4180
8080
8080
8080
8080
4180
0080
1E80
0080
0080
0080
0080
ENDCHAR
STARTCHAR 0072
ENCODING 114
SWIDTH 420 0
DWIDTH 7 0
BBX 6 11 0 0
BITMAP
B8
C4
80
80
80
80
80
80
80
80
80
ENDCHAR
STARTCHAR 0073
ENCODING 115
SWIDTH 540 0
DWIDTH 9 0
BBX 8 11 0 0
BITMAP
7E
81
81
80
70
00
0D
01
81
00
7E
ENDCHAR
STARTCHAR 0074
ENCODING 116
SWIDTH 480 0
DWIDTH 8 0
BBX 7 14 0 0
BITMAP
20
20
20
FE
20
20
20
20
20
20
20
22
00
1C
ENDCHAR
STARTCHAR 0075
ENCODING 117
SWIDTH 600 0
DWIDTH 10 0
BBX 9 11 0 0
BITMAP
8080
8080
8080
8080
8080
8080
8080
8080
4180
0080
1E80
ENDCHAR
STARTCHAR 0076
ENCODING 118
SWIDTH 600 0
DWIDTH 10 0
BBX 9 11 0 0
BITMAP
8080
8080
8080
4100
4100
1200
1200
1200
0800
0800
0800
ENDCHAR
STARTCHAR 0077
ENCODING 119
SWIDTH 780 0
DWIDTH 13 0
BBX 12 11 0 0
BITMAP
8210
8210
8210
8210
4920
4920
4920
4920
1080
1080
1080
ENDCHAR
STARTCHAR 0078
ENCODING 120
SWIDTH 600 0
DWIDTH 10 0
BBX 9 11 0 0
BITMAP
8080
4100
0000
1200
0800
0800
0800
1200
4100
0000
8080
ENDCHAR
STARTCHAR 0079
ENCODING 121
SWIDTH 600 0
DWIDTH 10 0
BBX 9 14 0 -3
BITMAP
8080
8080
8080
4100
4100
4100
1200
1200
0800
0800
0800
1000
0000
C000
ENDCHAR
STARTCHAR 007A
ENCODING 122
SWIDTH 540 0
DWIDTH 9 0
BBX 8 11 0 0
BITMAP
FF
01
01
02
08
00
10
40
80
80
FF
ENDCHAR
STARTCHAR 007B
ENCODING 123
SWIDTH 420 0
DWIDTH 7 0
BBX 5 15 0 0
BITMAP
38
40
40
40
40
40
40
80
40
40
40
40
40
40
38
ENDCHAR
STARTCHAR 007C
ENCODING 124
SWIDTH 360 0
DWIDTH 6 0
BBX 1 15 2 0
BITMAP
80
80
80
80
80
80
80
80
80
80
80
80
80
80
80
ENDCHAR
STARTCHAR 007D
ENCODING 125
SWIDTH 360 0
DWIDTH 6 0
BBX 5 15 0 0
BITMAP
E0
10
10
10
10
10
10
08
10
10
10
10
10
10
E0
ENDCHAR
STARTCHAR 007E
ENCODING 126
SWIDTH 600 0
DWIDTH 10 0
BBX 9 4 0 6
BITMAP
7000
0000
8880
0700
ENDCHAR
STARTCHAR 00A0
ENCODING 160
SWIDTH 420 0
DWIDTH 7 0
BBX 0 0 0 0
BITMAP
ENDCHAR
STARTCHAR 00A1
ENCODING 161
SWIDTH 360 0
DWIDTH 6 0
BBX 1 15 2 -4
BITMAP
80
80
80
00
80
80
80
80
80
80
80
80
80
80
80
ENDCHAR
STARTCHAR 00A2
ENCODING 162
SWIDTH 600 0
DWIDTH 10 0
BBX 9 15 0 0
BITMAP
0100
1E00
0200
4300
8280
8800
8800
8800
8800
8000
9080
7100
1E00
0000
4000
ENDCHAR
STARTCHAR 00A3
ENCODING 163
SWIDTH 720 0
DWIDTH 12 0
BBX 11 12 0 2
BITMAP
0F00
1080
1080
1080
1000
7F00
0800
0800
7820
0820
8820
7780
ENDCHAR
STARTCHAR 00A4
ENCODING 164
SWIDTH 600 0
DWIDTH 10 0
BBX 9 9 0 3
BITMAP
9E80
4100
8080
8080
8080
8080
0000
4100
9E80
ENDCHAR
STARTCHAR 00A5
ENCODING 165
SWIDTH 600 0
DWIDTH 10 0
BBX 9 12 0 2
BITMAP
8080
0000
4100
1200
0800
0800
FF80
0800
0800
FF80
0800
0800
ENDCHAR
STARTCHAR 00A6
ENCODING 166
SWIDTH 360 0
DWIDTH 6 0
BBX 1 15 2 0
BITMAP
80
80
80
80
80
80
80
00
80
80
80
80
80
80
80
ENDCHAR
STARTCHAR 00A7
ENCODING 167
SWIDTH 360 0
DWIDTH 6 0
BBX 5 15 0 0
BITMAP
70
88
88
80
40
90
88
88
48
00
18
08
88
00
70
ENDCHAR
STARTCHAR 00A8
ENCODING 168
SWIDTH 300 0
DWIDTH 5 0
BBX 4 1 0 14
BITMAP
90
ENDCHAR
STARTCHAR 00A9
ENCODING 169
SWIDTH 960 0
DWIDTH 16 0
BBX 15 15 0 0
BITMAP
0FE0
0000
1010
4784
8822
8002
9002
9002
9002
9002
8822
4784
0000
1010
0FE0
ENDCHAR
STARTCHAR 00AA
ENCODING 170
SWIDTH 360 0
DWIDTH 6 0
BBX 5 9 0 8
BITMAP
F0
08
08
78
88
08
78
00
F8
ENDCHAR
STARTCHAR 00AB
ENCODING 171
SWIDTH 540 0
DWIDTH 9 0
BBX 8 7 0 4
BITMAP
11
42
00
88
42
00
11
ENDCHAR
STARTCHAR 00AC
ENCODING 172
SWIDTH 840 0
DWIDTH 14 0
BBX 12 8 0 0
BITMAP
FFF0
0010
0010
0010
0010
0010
0010
0010
ENDCHAR
STARTCHAR 00AE
ENCODING 174
SWIDTH 780 0
DWIDTH 13 0
BBX 12 12 0 4
BITMAP
1F80
4020
0000
9F10
9090
9F10
9110
9110
9090
0000
4020
1F80
ENDCHAR
STARTCHAR 00AF
ENCODING 175
SWIDTH 480 0
DWIDTH 8 0
BBX 7 1 0 14
BITMAP
FE
ENDCHAR
STARTCHAR 00B0
ENCODING 176
SWIDTH 300 0
DWIDTH 5 0
BBX 4 4 0 11
BITMAP
40
00
B0
40
ENDCHAR
STARTCHAR 00B1
ENCODING 177
SWIDTH 660 0
DWIDTH 11 0
BBX 9 12 0 2
BITMAP
0800
0800
0800
0800
FF80
0800
0800
0800
0800
0800
0000
FF80
ENDCHAR
STARTCHAR 00B2
ENCODING 178
SWIDTH 360 0
DWIDTH 6 0
BBX 5 9 0 8
BITMAP
F0
00
08
00
10
40
80
80
F8
ENDCHAR
STARTCHAR 00B3
ENCODING 179
SWIDTH 360 0
DWIDTH 6 0
BBX 5 9 0 8
BITMAP
F0
00
08
00
70
08
08
08
F0
ENDCHAR
STARTCHAR 00B4
ENCODING 180
SWIDTH 300 0
DWIDTH 5 0
BBX 4 4 0 14
BITMAP
30
00
40
80
ENDCHAR
STARTCHAR 00B5
ENCODING 181
SWIDTH 540 0
DWIDTH 9 0
BBX 8 14 0 -3
BITMAP
81
81
81
81
81
81
81
81
81
C7
B9
80
80
80
ENDCHAR
STARTCHAR 00B6
ENCODING 182
SWIDTH 540 0
DWIDTH 9 0
BBX 8 15 0 0
BITMAP
7F
F9
F9
F9
F9
79
09
09
09
09
09
09
09
09
09
ENDCHAR
STARTCHAR 00B7
ENCODING 183
SWIDTH 360 0
DWIDTH 6 0
BBX 1 1 2 7
BITMAP
80
ENDCHAR
STARTCHAR 00B8
ENCODING 184
SWIDTH 300 0
DWIDTH 5 0
BBX 4 4 0 -2
BITMAP
20
00
10
E0
ENDCHAR
STARTCHAR 00B9
ENCODING 185
SWIDTH 360 0
DWIDTH 6 0
BBX 4 9 0 8
BITMAP
E0
20
20
20
20
20
20
20
F0
ENDCHAR
STARTCHAR 00BA
ENCODING 186
SWIDTH 360 0
DWIDTH 6 0
BBX 5 9 0 8
BITMAP
70
88
88
88
88
00
70
00
F8
ENDCHAR
STARTCHAR 00BB
ENCODING 187
SWIDTH 540 0
DWIDTH 9 0
BBX 8 7 0 4
BITMAP
88
42
00
11
42
00
88
ENDCHAR
STARTCHAR 00BC
ENCODING 188
SWIDTH 1020 0
DWIDTH 17 0
BBX 14 15 2 0
BITMAP
C000
4010
4020
4000
4080
4110
4230
0010
0890
1110
0110
41FC
8010
0010
0010
ENDCHAR
STARTCHAR 00BD
ENCODING 189
SWIDTH 1020 0
DWIDTH 17 0
BBX 14 15 2 0
BITMAP
C000
4000
4010
4020
4080
4000
4100
42F0
0804
0000
1010
4020
0000
8080
00FC
ENDCHAR
STARTCHAR 00BE
ENCODING 190
SWIDTH 1020 0
DWIDTH 17 0
BBX 16 15 0 0
BITMAP
F000
0804
3010
0000
0820
0844
F11C
0004
0224
0844
0044
107F
2004
0004
0004
ENDCHAR
STARTCHAR 00BF
ENCODING 191
SWIDTH 480 0
DWIDTH 8 0
BBX 7 15 0 -4
BITMAP
10
10
10
00
10
10
10
10
00
40
80
82
82
82
78
ENDCHAR
STARTCHAR 00C0
ENCODING 192
SWIDTH 600 0
DWIDTH 10 0
BBX 9 19 0 0
BITMAP
1000
0800
0000
0000
0800
1200
1200
1200
1200
4100
4100
4100
4100
4100
7F00
8080
8080
8080
8080
ENDCHAR
STARTCHAR 00C1
ENCODING 193
SWIDTH 600 0
DWIDTH 10 0
BBX 9 19 0 0
BITMAP
0200
0800
0000
0000
0800
1200
1200
1200
1200
4100
4100
4100
4100
4100
7F00
8080
8080
8080
8080
ENDCHAR
STARTCHAR 00C2
ENCODING 194
SWIDTH 600 0
DWIDTH 10 0
BBX 9 19 0 0
BITMAP
0800
1200
0000
0000
0800
1200
1200
1200
1200
4100
4100
4100
4100
4100
7F00
8080
8080
8080
8080
ENDCHAR
STARTCHAR 00C3
ENCODING 195
SWIDTH 600 0
DWIDTH 10 0
BBX 9 19 0 0
BITMAP
1880
4300
0000
0000
0800
1200
1200
1200
1200
4100
4100
4100
4100
4100
7F00
8080
8080
8080
8080
ENDCHAR
STARTCHAR 00C4
ENCODING 196
SWIDTH 600 0
DWIDTH 10 0
BBX 9 18 0 0
BITMAP
1200
0000
0000
0800
1200
1200
1200
1200
4100
4100
4100
4100
4100
7F00
8080
8080
8080
8080
ENDCHAR
STARTCHAR 00C5
ENCODING 197
SWIDTH 600 0
DWIDTH 10 0
BBX 9 19 0 0
BITMAP
0800
1200
0800
0800
0800
1200
1200
1200
1200
4100
4100
4100
4100
4100
7F00
8080
8080
8080
8080
ENDCHAR
STARTCHAR 00C6
ENCODING 198
SWIDTH 840 0
DWIDTH 14 0
BBX 12 15 0 0
BITMAP
0FF0
1200
1200
1200
1200
4200
4200
43F0
4200
4200
7E00
8200
8200
8200
83F0
ENDCHAR
STARTCHAR 00C7
ENCODING 199
SWIDTH 720 0
DWIDTH 12 0
BBX 11 18 0 -3
BITMAP
3F00
0000
4080
8020
8000
8000
8000
8000
8000
8000
8000
8020
0000
4080
3F00
0200
0200
3800
ENDCHAR
STARTCHAR 00C8
ENCODING 200
SWIDTH 600 0
DWIDTH 10 0
BBX 8 19 0 0
BITMAP
10
08
00
00
FF
80
80
80
80
80
80
FF
80
80
80
80
80
80
FF
ENDCHAR
STARTCHAR 00C9
ENCODING 201
SWIDTH 600 0
DWIDTH 10 0
BBX 8 19 0 0
BITMAP
08
10
00
00
FF
80
80
80
80
80
80
FF
80
80
80
80
80
80
FF
ENDCHAR
STARTCHAR 00CA
ENCODING 202
SWIDTH 600 0
DWIDTH 10 0
BBX 8 19 0 0
BITMAP
08
12
00
00
FF
80
80
80
80
80
80
FF
80
80
80
80
80
80
FF
ENDCHAR
STARTCHAR 00CB
ENCODING 203
SWIDTH 660 0
DWIDTH 11 0
BBX 8 18 0 0
BITMAP
12
00
00
FF
80
80
80
80
80
80
FF
80
80
80
80
80
80
FF
ENDCHAR
STARTCHAR 00CC
ENCODING 204
SWIDTH 300 0
DWIDTH 5 0
BBX 4 19 0 0
BITMAP
80
40
00
00
F0
40
40
40
40
40
40
40
40
40
40
40
40
40
F0
ENDCHAR
STARTCHAR 00CD
ENCODING 205
SWIDTH 300 0
DWIDTH 5 0
BBX 4 19 0 0
BITMAP
10
20
00
00
F0
20
20
20
20
20
20
20
20
20
20
20
20
20
F0
ENDCHAR
STARTCHAR 00CE
ENCODING 206
SWIDTH 300 0
DWIDTH 5 0
BBX 4 19 0 0
BITMAP
40
B0
00
00
F0
40
40
40
40
40
40
40
40
40
40
40
40
40
F0
ENDCHAR
STARTCHAR 00CF
ENCODING 207
SWIDTH 300 0
DWIDTH 5 0
BBX 4 18 0 0
BITMAP
B0
00
00
F0
40
40
40
40
40
40
40
40
40
40
40
40
40
F0
ENDCHAR
STARTCHAR 00D0
ENCODING 208
SWIDTH 780 0
DWIDTH 13 0
BBX 12 15 0 0
BITMAP
1FC0
1020
1010
1010
1010
1010
1010
FE10
1010
1010
1010
1010
1020
1000
1FC0
ENDCHAR
STARTCHAR 00D1
ENCODING 209
SWIDTH 600 0
DWIDTH 10 0
BBX 9 19 0 0
BITMAP
1800
4380
0000
0000
8080
C080
C080
C080
9080
9080
9080
8880
8280
8280
8280
8180
8180
8180
8080
ENDCHAR
STARTCHAR 00D2
ENCODING 210
SWIDTH 720 0
DWIDTH 12 0
BBX 11 19 0 0
BITMAP
0800
0200
0000
0000
3F00
4080
8020
8020
8020
8020
8020
8020
8020
8020
8020
8020
4080
0000
3F00
ENDCHAR
STARTCHAR 00D3
ENCODING 211
SWIDTH 720 0
DWIDTH 12 0
BBX 11 19 0 0
BITMAP
0200
0800
0000
0000
3F00
4080
8020
8020
8020
8020
8020
8020
8020
8020
8020
8020
4080
0000
3F00
ENDCHAR
STARTCHAR 00D4
ENCODING 212
SWIDTH 720 0
DWIDTH 12 0
BBX 11 19 0 0
BITMAP
0200
0900
0000
0000
3F00
4080
8020
8020
8020
8020
8020
8020
8020
8020
8020
8020
4080
0000
3F00
ENDCHAR
STARTCHAR 00D5
ENCODING 213
SWIDTH 720 0
DWIDTH 12 0
BBX 11 19 0 0
BITMAP
3880
4700
0000
0000
3F00
4080
8020
8020
8020
8020
8020
8020
8020
8020
8020
8020
4080
0000
3F00
ENDCHAR
STARTCHAR 00D6
ENCODING 214
SWIDTH 720 0
DWIDTH 12 0
BBX 11 18 0 0
BITMAP
1100
0000
0000
1F00
4080
8020
8020
8020
8020
8020
8020
8020
8020
8020
8020
4080
0000
1F00
ENDCHAR
STARTCHAR 00D7
ENCODING 215
SWIDTH 600 0
DWIDTH 10 0
BBX 9 9 0 3
BITMAP
8080
4100
1200
0000
0800
1200
0000
4100
8080
ENDCHAR
STARTCHAR 00D8
ENCODING 216
SWIDTH 780 0
DWIDTH 13 0
BBX 12 15 0 0
BITMAP
0F00
1090
4020
4020
40E0
4120
4020
4220
4820
4020
7020
6020
9080
0000
0F00
ENDCHAR
STARTCHAR 00D9
ENCODING 217
SWIDTH 600 0
DWIDTH 10 0
BBX 9 19 0 0
BITMAP
1000
0800
0000
0000
8080
8080
8080
8080
8080
8080
8080
8080
8080
8080
8080
8080
4100
0000
1E00
ENDCHAR
STARTCHAR 00DA
ENCODING 218
SWIDTH 600 0
DWIDTH 10 0
BBX 9 19 0 0
BITMAP
0200
0800
0000
0000
8080
8080
8080
8080
8080
8080
8080
8080
8080
8080
8080
8080
4100
0000
1E00
ENDCHAR
STARTCHAR 00DB
ENCODING 219
SWIDTH 600 0
DWIDTH 10 0
BBX 9 19 0 0
BITMAP
0800
1200
0000
0000
8080
8080
8080
8080
8080
8080
8080
8080
8080
8080
8080
8080
4100
0000
1E00
ENDCHAR
STARTCHAR 00DC
ENCODING 220
SWIDTH 600 0
DWIDTH 10 0
BBX 9 18 0 0
BITMAP
1200
0000
0000
8080
8080
8080
8080
8080
8080
8080
8080
8080
8080
8080
8080
4100
0000
1E00
ENDCHAR
STARTCHAR 00DD
ENCODING 221
SWIDTH 600 0
DWIDTH 10 0
BBX 9 19 0 0
BITMAP
0200
0800
0000
0000
8080
8080
8080
4100
4100
1200
1200
1200
0800
0800
0800
0800
0800
0800
0800
ENDCHAR
STARTCHAR 00DE
ENCODING 222
SWIDTH 600 0
DWIDTH 10 0
BBX 9 15 0 0
BITMAP
8000
8000
8000
FE00
8100
8080
8080
8080
8100
8000
FE00
8000
8000
8000
8000
ENDCHAR
STARTCHAR 00DF
ENCODING 223
SWIDTH 540 0
DWIDTH 9 0
BBX 8 15 0 0
BITMAP
38
42
00
81
81
82
80
B8
82
81
81
81
82
80
B8
ENDCHAR
STARTCHAR 00E0
ENCODING 224
SWIDTH 540 0
DWIDTH 9 0
BBX 8 15 0 0
BITMAP
10
08
00
00
7E
81
01
01
1F
01
81
81
87
01
79
ENDCHAR
STARTCHAR 00E1
ENCODING 225
SWIDTH 540 0
DWIDTH 9 0
BBX 8 15 0 0
BITMAP
08
10
00
00
7E
81
01
01
1F
01
81
81
87
01
79
ENDCHAR
STARTCHAR 00E2
ENCODING 226
SWIDTH 540 0
DWIDTH 9 0
BBX 8 15 0 0
BITMAP
08
12
00
00
7E
81
01
01
1F
01
81
81
83
01
79
ENDCHAR
STARTCHAR 00E3
ENCODING 227
SWIDTH 540 0
DWIDTH 9 0
BBX 8 15 0 0
BITMAP
71
8E
00
00
7E
81
01
01
3F
01
81
81
87
01
79
ENDCHAR
STARTCHAR 00E4
ENCODING 228
SWIDTH 540 0
DWIDTH 9 0
BBX 8 14 0 0
BITMAP
42
00
00
7E
81
01
01
3F
01
81
81
87
01
79
ENDCHAR
STARTCHAR 00E5
ENCODING 229
SWIDTH 540 0
DWIDTH 9 0
BBX 8 16 0 0
BITMAP
08
12
08
00
00
7E
81
01
01
1F
01
81
81
83
01
79
ENDCHAR
STARTCHAR 00E6
ENCODING 230
SWIDTH 600 0
DWIDTH 10 0
BBX 9 11 0 0
BITMAP
7700
8880
0880
0880
3F80
0800
8800
8800
8880
0000
7700
ENDCHAR
STARTCHAR 00E7
ENCODING 231
SWIDTH 540 0
DWIDTH 9 0
BBX 8 14 0 -3
BITMAP
3E
00
41
80
80
80
80
80
80
41
3E
02
02
38
ENDCHAR
STARTCHAR 00E8
ENCODING 232
SWIDTH 600 0
DWIDTH 10 0
BBX 9 15 0 0
BITMAP
1000
0800
0000
0000
1E00
4100
8080
8080
FF80
8000
8000
8080
4100
0000
1E00
ENDCHAR
STARTCHAR 00E9
ENCODING 233
SWIDTH 600 0
DWIDTH 10 0
BBX 9 15 0 0
BITMAP
0200
0800
0000
0000
1E00
4100
8080
8080
FF80
8000
8000
8080
4100
0000
1E00
ENDCHAR
STARTCHAR 00EA
ENCODING 234
SWIDTH 600 0
DWIDTH 10 0
BBX 9 15 0 0
BITMAP
0800
1200
0000
0000
1E00
4100
8080
8080
FF80
8000
8000
8080
4100
0000
1E00
ENDCHAR
STARTCHAR 00EB
ENCODING 235
SWIDTH 600 0
DWIDTH 10 0
BBX 9 14 0 0
BITMAP
1200
0000
0000
1E00
4100
8080
8080
FF80
8000
8000
8080
4100
0000
1E00
ENDCHAR
STARTCHAR 00EC
ENCODING 236
SWIDTH 300 0
DWIDTH 5 0
BBX 2 15 0 0
BITMAP
80
40
00
00
40
40
40
40
40
40
40
40
40
40
40
ENDCHAR
STARTCHAR 00ED
ENCODING 237
SWIDTH 300 0
DWIDTH 5 0
BBX 2 15 2 0
BITMAP
40
80
00
00
80
80
80
80
80
80
80
80
80
80
80
ENDCHAR
STARTCHAR 00EE
ENCODING 238
SWIDTH 300 0
DWIDTH 5 0
BBX 4 15 0 0
BITMAP
40
B0
00
00
40
40
40
40
40
40
40
40
40
40
40
ENDCHAR
STARTCHAR 00EF
ENCODING 239
SWIDTH 300 0
DWIDTH 5 0
BBX 4 14 0 0
BITMAP
B0
00
00
40
40
40
40
40
40
40
40
40
40
40
ENDCHAR
STARTCHAR 00F0
ENCODING 240
SWIDTH 600 0
DWIDTH 10 0
BBX 9 15 0 0
BITMAP
7100
0E00
0000
1100
0080
1E80
0080
4180
8080
8080
8080
8080
4100
0000
1E00
ENDCHAR
STARTCHAR 00F1
ENCODING 241
SWIDTH 540 0
DWIDTH 9 0
BBX 8 15 0 0
BITMAP
71
8E
00
00
9E
E1
81
81
81
81
81
81
81
81
81
ENDCHAR
STARTCHAR 00F2
ENCODING 242
SWIDTH 600 0
DWIDTH 10 0
BBX 9 15 0 0
BITMAP
1000
0800
0000
0000
1E00
4100
0000
8080
8080
8080
8080
8080
4100
0000
1E00
ENDCHAR
STARTCHAR 00F3
ENCODING 243
SWIDTH 600 0
DWIDTH 10 0
BBX 9 15 0 0
BITMAP
0200
0800
0000
0000
1E00
4100
0000
8080
8080
8080
8080
8080
4100
0000
1E00
ENDCHAR
STARTCHAR 00F4
ENCODING 244
SWIDTH 600 0
DWIDTH 10 0
BBX 9 15 0 0
BITMAP
0800
1200
0000
0000
1E00
4100
0000
8080
8080
8080
8080
8080
4100
0000
1E00
ENDCHAR
STARTCHAR 00F5
ENCODING 245
SWIDTH 600 0
DWIDTH 10 0
BBX 9 15 0 0
BITMAP
3900
4200
0000
0000
3E00
4100
0000
8080
8080
8080
8080
8080
4100
0000
3E00
ENDCHAR
STARTCHAR 00F6
ENCODING 246
SWIDTH 600 0
DWIDTH 10 0
BBX 9 14 0 0
BITMAP
1200
0000
0000
1E00
4100
0000
8080
8080
8080
8080
8080
4100
0000
1E00
ENDCHAR
STARTCHAR 00F7
ENCODING 247
SWIDTH 660 0
DWIDTH 11 0
BBX 9 9 0 3
BITMAP
0800
0000
0000
0000
FF80
0000
0000
0000
0800
ENDCHAR
STARTCHAR 00F8
ENCODING 248
SWIDTH 600 0
DWIDTH 10 0
BBX 9 11 0 0
BITMAP
1E80
4100
0000
8280
8880
8880
8880
9080
4100
0000
9E00
ENDCHAR
STARTCHAR 00F9
ENCODING 249
SWIDTH 600 0
DWIDTH 10 0
BBX 9 15 0 0
BITMAP
1000
0800
0000
0000
8080
8080
8080
8080
8080
8080
8080
8080
4180
0080
1E80
ENDCHAR
STARTCHAR 00FA
ENCODING 250
SWIDTH 600 0
DWIDTH 10 0
BBX 9 15 0 0
BITMAP
0200
0800
0000
0000
8080
8080
8080
8080
8080
8080
8080
8080
4180
0080
1E80
ENDCHAR
STARTCHAR 00FB
ENCODING 251
SWIDTH 600 0
DWIDTH 10 0
BBX 9 15 0 0
BITMAP
0800
1200
0000
0000
8080
8080
8080
8080
8080
8080
8080
8080
4180
0080
1E80
ENDCHAR
STARTCHAR 00FC
ENCODING 252
SWIDTH 600 0
DWIDTH 10 0
BBX 9 14 0 0
BITMAP
1200
0000
0000
8080
8080
8080
8080
8080
8080
8080
8080
4180
0080
1E80
ENDCHAR
STARTCHAR 00FD
ENCODING 253
SWIDTH 600 0
DWIDTH 10 0
BBX 9 18 0 -3
BITMAP
0200
0000
0800
0000
8080
8080
8080
4100
4100
4100
1200
1200
0800
0800
0800
1000
0000
C000
ENDCHAR
STARTCHAR 00FE
ENCODING 254
SWIDTH 540 0
DWIDTH 9 0
BBX 9 17 0 -3
BITMAP
8000
8000
8000
9E00
8000
E100
8080
8080
8080
8080
8080
8080
E100
9E00
8000
8000
8000
ENDCHAR
STARTCHAR 00FF
ENCODING 255
SWIDTH 600 0
DWIDTH 10 0
BBX 9 16 0 -3
BITMAP
1200
0000
8080
8080
8080
4100
4100
4100
1200
1200
0800
0800
0800
1000
0000
C000
ENDCHAR
STARTCHAR 0100
ENCODING 256
SWIDTH 600 0
DWIDTH 10 0
BBX 9 18 0 0
BITMAP
7F00
0000
0000
0800
1200
1200
1200
1200
4100
4100
4100
4100
4100
7F00
8080
8080
8080
8080
ENDCHAR
STARTCHAR 0101
ENCODING 257
SWIDTH 540 0
DWIDTH 9 0
BBX 8 14 0 0
BITMAP
7E
00
00
7E
81
01
01
3F
01
81
81
87
01
79
ENDCHAR
STARTCHAR 0102
ENCODING 258
SWIDTH 600 0
DWIDTH 10 0
BBX 9 19 0 0
BITMAP
1100
0E00
0000
0000
0800
1200
1200
1200
1200
4100
4100
4100
4100
4100
7F00
8080
8080
8080
8080
ENDCHAR
STARTCHAR 0103
ENCODING 259
SWIDTH 540 0
DWIDTH 9 0
BBX 8 15 0 0
BITMAP
42
38
00
00
7E
81
01
01
3F
01
81
81
87
01
79
ENDCHAR
STARTCHAR 0104
ENCODING 260
SWIDTH 660 0
DWIDTH 11 0
BBX 11 18 0 -3
BITMAP
0800
0000
1200
1200
1200
4100
4100
4100
4100
4100
7F00
8080
8080
8080
8080
0100
0000
00E0
ENDCHAR
STARTCHAR 0105
ENCODING 261
SWIDTH 600 0
DWIDTH 10 0
BBX 10 14 0 -3
BITMAP
7E00
0000
8100
0100
3F00
0100
4100
8100
8100
8700
7900
0200
0000
01C0
ENDCHAR
STARTCHAR 0106
ENCODING 262
SWIDTH 720 0
DWIDTH 12 0
BBX 11 19 0 0
BITMAP
0200
0800
0000
0000
3F00
4080
0000
8020
8000
8000
8000
8000
8000
8000
8000
8020
4080
0000
3F00
ENDCHAR
STARTCHAR 0107
ENCODING 263
SWIDTH 540 0
DWIDTH 9 0
BBX 8 15 0 0
BITMAP
02
08
00
00
1E
41
00
80
80
80
80
80
41
00
1E
ENDCHAR
STARTCHAR 0108
ENCODING 264
SWIDTH 720 0
DWIDTH 12 0
BBX 11 19 0 0
BITMAP
0200
0900
0000
0000
3F00
4080
0000
8020
8000
8000
8000
8000
8000
8000
8000
8020
4080
0000
3F00
ENDCHAR
STARTCHAR 0109
ENCODING 265
SWIDTH 540 0
DWIDTH 9 0
BBX 8 15 0 0
BITMAP
08
12
00
00
1E
41
00
80
80
80
80
80
41
00
1E
ENDCHAR
STARTCHAR 010A
ENCODING 266
SWIDTH 840 0
DWIDTH 14 0
BBX 12 18 0 0
BITMAP
0200
0000
0000
3FE0
4020
0000
8030
8000
8000
8000
8000
8000
8000
8000
8030
4020
0000
3FE0
ENDCHAR
STARTCHAR 010B
ENCODING 267
SWIDTH 540 0
DWIDTH 9 0
BBX 8 14 0 0
BITMAP
08
00
00
1E
41
00
80
80
80
80
80
41
00
1E
ENDCHAR
STARTCHAR 010C
ENCODING 268
SWIDTH 720 0
DWIDTH 12 0
BBX 11 19 0 0
BITMAP
0900
0200
0000
0000
3F00
4080
0000
8020
8000
8000
8000
8000
8000
8000
8000
8020
4080
0000
3F00
ENDCHAR
STARTCHAR 010D
ENCODING 269
SWIDTH 540 0
DWIDTH 9 0
BBX 8 15 0 0
BITMAP
12
08
00
00
1E
41
00
80
80
80
80
80
41
00
1E
ENDCHAR
STARTCHAR 010E
ENCODING 270
SWIDTH 600 0
DWIDTH 10 0
BBX 9 19 0 0
BITMAP
1200
0800
0000
0000
FE00
8100
8080
8080
8080
8080
8080
8080
8080
8080
8080
8080
8100
8000
FE00
ENDCHAR
STARTCHAR 010F
ENCODING 271
SWIDTH 660 0
DWIDTH 11 0
BBX 11 19 0 0
BITMAP
0120
0080
0000
0000
0080
0080
0080
0080
1E80
4180
0080
8080
8080
8080
8080
8080
4180
0080
1E80
ENDCHAR
STARTCHAR 0110
ENCODING 272
SWIDTH 780 0
DWIDTH 13 0
BBX 12 15 0 0
BITMAP
1FC0
1020
1010
1010
1010
1010
1010
FE10
1010
1010
1010
1010
1020
1000
1FC0
ENDCHAR
STARTCHAR 0111
ENCODING 273
SWIDTH 840 0
DWIDTH 14 0
BBX 12 15 0 0
BITMAP
0080
03F0
0080
0080
1E80
4180
0080
8080
8080
8080
8080
8080
4180
0080
1E80
ENDCHAR
STARTCHAR 0112
ENCODING 274
SWIDTH 600 0
DWIDTH 10 0
BBX 8 18 0 0
BITMAP
7E
00
00
FF
80
80
80
80
80
80
FF
80
80
80
80
80
80
FF
ENDCHAR
STARTCHAR 0113
ENCODING 275
SWIDTH 600 0
DWIDTH 10 0
BBX 9 14 0 0
BITMAP
7F00
0000
0000
1E00
4100
8080
8080
FF80
8000
8000
8080
4100
0000
1E00
ENDCHAR
STARTCHAR 0114
ENCODING 276
SWIDTH 600 0
DWIDTH 10 0
BBX 8 19 0 0
BITMAP
42
38
00
00
FF
80
80
80
80
80
80
FF
80
80
80
80
80
80
FF
ENDCHAR
STARTCHAR 0115
ENCODING 277
SWIDTH 600 0
DWIDTH 10 0
BBX 9 15 0 0
BITMAP
1100
0E00
0000
0000
1E00
4100
8080
8080
FF80
8000
8000
8080
4100
0000
1E00
ENDCHAR
STARTCHAR 0116
ENCODING 278
SWIDTH 600 0
DWIDTH 10 0
BBX 8 18 0 0
BITMAP
08
00
00
FF
80
80
80
80
80
80
FF
80
80
80
80
80
80
FF
ENDCHAR
STARTCHAR 0117
ENCODING 279
SWIDTH 600 0
DWIDTH 10 0
BBX 9 14 0 0
BITMAP
0800
0000
0000
1E00
4100
8080
8080
FF80
8000
8000
8080
4100
0000
1E00
ENDCHAR
STARTCHAR 0118
ENCODING 280
SWIDTH 600 0
DWIDTH 10 0
BBX 8 18 0 -3
BITMAP
FF
80
80
80
80
80
80
FF
80
80
80
80
80
80
FF
10
10
0E
ENDCHAR
STARTCHAR 0119
ENCODING 281
SWIDTH 600 0
DWIDTH 10 0
BBX 9 14 0 -3
BITMAP
1E00
0000
8080
8080
FF80
8000
8000
8080
0000
4100
1E00
1000
1000
0E00
ENDCHAR
STARTCHAR 011A
ENCODING 282
SWIDTH 600 0
DWIDTH 10 0
BBX 8 19 0 0
BITMAP
12
08
00
00
FF
80
80
80
80
80
80
FF
80
80
80
80
80
80
FF
ENDCHAR
STARTCHAR 011B
ENCODING 283
SWIDTH 600 0
DWIDTH 10 0
BBX 9 15 0 0
BITMAP
1200
0800
0000
0000
1E00
4100
8080
8080
FF80
8000
8000
8080
4100
0000
1E00
ENDCHAR
STARTCHAR 011C
ENCODING 284
SWIDTH 720 0
DWIDTH 12 0
BBX 11 19 0 0
BITMAP
0200
0900
0000
0000
3F00
4080
0000
8020
8000
8000
8000
83E0
8020
8020
8020
8020
4080
0000
3F00
ENDCHAR
STARTCHAR 011D
ENCODING 285
SWIDTH 600 0
DWIDTH 10 0
BBX 9 18 0 -3
BITMAP
0800
0000
1200
0000
1E80
0080
4180
8080
8080
8080
8080
4180
0080
1E80
8080
4100
0000
1E00
ENDCHAR
STARTCHAR 011E
ENCODING 286
SWIDTH 720 0
DWIDTH 12 0
BBX 11 19 0 0
BITMAP
1100
0E00
0000
0000
1F00
4080
0000
8020
8000
8000
8000
87E0
8020
8020
8020
8020
4080
0000
1F00
ENDCHAR
STARTCHAR 011F
ENCODING 287
SWIDTH 600 0
DWIDTH 10 0
BBX 9 18 0 -3
BITMAP
1100
0000
0E00
0000
1E80
0080
4180
8080
8080
8080
8080
4180
0080
1E80
8080
4100
0000
1E00
ENDCHAR
STARTCHAR 0120
ENCODING 288
SWIDTH 840 0
DWIDTH 14 0
BBX 12 18 0 0
BITMAP
0200
0000
0000
3FE0
4020
0000
8030
8000
8000
8000
83F0
8030
8030
8030
8030
4020
0000
3FE0
ENDCHAR
STARTCHAR 0121
ENCODING 289
SWIDTH 600 0
DWIDTH 10 0
BBX 9 16 0 -3
BITMAP
0800
0000
1E80
0080
4180
8080
8080
8080
8080
4180
0080
1E80
8080
4100
0000
1E00
ENDCHAR
STARTCHAR 0122
ENCODING 290
SWIDTH 720 0
DWIDTH 12 0
BBX 11 18 0 -3
BITMAP
3F00
0000
4080
8020
8000
8000
8000
83E0
8020
8020
8020
8020
8020
4080
3F00
0200
0200
0800
ENDCHAR
STARTCHAR 0123
ENCODING 291
SWIDTH 600 0
DWIDTH 10 0
BBX 9 18 0 -3
BITMAP
0200
0000
0800
0000
1E80
0080
4180
8080
8080
8080
8080
4180
0080
1E80
8080
4100
0000
1E00
ENDCHAR
STARTCHAR 0124
ENCODING 292
SWIDTH 600 0
DWIDTH 10 0
BBX 9 18 0 0
BITMAP
0800
0000
1200
8080
8080
8080
8080
8080
8080
8080
FF80
8080
8080
8080
8080
8080
8080
8080
ENDCHAR
STARTCHAR 0125
ENCODING 293
SWIDTH 540 0
DWIDTH 9 0
BBX 9 19 -1 0
BITMAP
4000
9000
0000
0000
4000
4000
4000
4000
4F00
7080
4080
4080
4080
4080
4080
4080
4080
4080
4080
ENDCHAR
STARTCHAR 0126
ENCODING 294
SWIDTH 840 0
DWIDTH 14 0
BBX 13 15 0 0
BITMAP
2020
2020
2020
FFF8
2020
2020
2020
3FE0
2020
2020
2020
2020
2020
2020
2020
ENDCHAR
STARTCHAR 0127
ENCODING 295
SWIDTH 720 0
DWIDTH 12 0
BBX 11 15 0 0
BITMAP
1000
FE00
1000
1000
13C0
1C20
1020
1020
1020
1020
1020
1020
1020
1020
1020
ENDCHAR
STARTCHAR 0128
ENCODING 296
SWIDTH 300 0
DWIDTH 5 0
BBX 5 19 0 0
BITMAP
48
90
00
00
F0
40
40
40
40
40
40
40
40
40
40
40
40
40
F0
ENDCHAR
STARTCHAR 0129
ENCODING 297
SWIDTH 300 0
DWIDTH 5 0
BBX 5 15 0 0
BITMAP
48
90
00
00
40
40
40
40
40
40
40
40
40
40
40
ENDCHAR
STARTCHAR 012A
ENCODING 298
SWIDTH 300 0
DWIDTH 5 0
BBX 4 18 0 0
BITMAP
F0
00
00
F0
20
20
20
20
20
20
20
20
20
20
20
20
20
F0
ENDCHAR
STARTCHAR 012B
ENCODING 299
SWIDTH 300 0
DWIDTH 5 0
BBX 4 14 0 0
BITMAP
F0
00
00
20
20
20
20
20
20
20
20
20
20
20
ENDCHAR
STARTCHAR 012C
ENCODING 300
SWIDTH 300 0
DWIDTH 5 0
BBX 5 19 0 0
BITMAP
88
70
00
00
F0
40
40
40
40
40
40
40
40
40
40
40
40
40
F0
ENDCHAR
STARTCHAR 012D
ENCODING 301
SWIDTH 300 0
DWIDTH 5 0
BBX 5 15 0 0
BITMAP
88
70
00
00
40
40
40
40
40
40
40
40
40
40
40
ENDCHAR
STARTCHAR 012E
ENCODING 302
SWIDTH 360 0
DWIDTH 6 0
BBX 6 18 0 -3
BITMAP
F0
20
20
20
20
20
20
20
20
20
20
20
20
20
F0
20
20
1C
ENDCHAR
STARTCHAR 012F
ENCODING 303
SWIDTH 300 0
DWIDTH 5 0
BBX 4 18 0 -3
BITMAP
40
40
40
00
40
40
40
40
40
40
40
40
40
40
40
80
00
70
ENDCHAR
STARTCHAR 0130
ENCODING 304
SWIDTH 300 0
DWIDTH 5 0
BBX 4 18 0 0
BITMAP
20
00
00
F0
20
20
20
20
20
20
20
20
20
20
20
20
20
F0
ENDCHAR
STARTCHAR 0131
ENCODING 305
SWIDTH 360 0
DWIDTH 6 0
BBX 1 11 2 0
BITMAP
80
80
80
80
80
80
80
80
80
80
80
ENDCHAR
STARTCHAR 0132
ENCODING 306
SWIDTH 900 0
DWIDTH 15 0
BBX 12 15 2 0
BITMAP
8010
8010
8010
8010
8010
8010
8010
8010
8010
8010
8010
8810
8220
8000
81C0
ENDCHAR
STARTCHAR 0133
ENCODING 307
SWIDTH 600 0
DWIDTH 10 0
BBX 5 16 2 -3
BITMAP
88
00
88
88
88
88
88
88
88
88
88
88
88
08
08
F0
ENDCHAR
STARTCHAR 0134
ENCODING 308
SWIDTH 540 0
DWIDTH 9 0
BBX 9 19 0 0
BITMAP
0100
0280
0000
0000
0100
0100
0100
0100
0100
0100
0100
0100
0100
0100
0100
8100
4200
0000
3800
ENDCHAR
STARTCHAR 0135
ENCODING 309
SWIDTH 480 0
DWIDTH 8 0
BBX 7 18 0 -3
BITMAP
08
00
12
00
08
08
08
08
08
08
08
08
08
08
08
88
00
70
ENDCHAR
STARTCHAR 0136
ENCODING 310
SWIDTH 600 0
DWIDTH 10 0
BBX 9 18 0 -3
BITMAP
8080
8000
8100
8200
8800
8000
9000
E000
9000
8000
8800
8200
8000
8100
8080
0800
0000
1000
ENDCHAR
STARTCHAR 0137
ENCODING 311
SWIDTH 540 0
DWIDTH 9 0
BBX 8 18 0 -3
BITMAP
80
80
80
80
81
80
82
88
F0
90
90
88
80
82
81
08
00
10
ENDCHAR
STARTCHAR 0138
ENCODING 312
SWIDTH 540 0
DWIDTH 9 0
BBX 8 11 0 0
BITMAP
81
82
80
88
F0
90
90
88
82
80
81
ENDCHAR
STARTCHAR 0139
ENCODING 313
SWIDTH 600 0
DWIDTH 10 0
BBX 8 19 0 0
BITMAP
40
80
00
00
80
80
80
80
80
80
80
80
80
80
80
80
80
80
FF
ENDCHAR
STARTCHAR 013A
ENCODING 314
SWIDTH 300 0
DWIDTH 5 0
BBX 2 19 2 0
BITMAP
40
80
00
00
80
80
80
80
80
80
80
80
80
80
80
80
80
80
80
ENDCHAR
STARTCHAR 013B
ENCODING 315
SWIDTH 600 0
DWIDTH 10 0
BBX 8 18 0 -3
BITMAP
80
80
80
80
80
80
80
80
80
80
80
80
80
80
FF
08
08
10
ENDCHAR
STARTCHAR 013C
ENCODING 316
SWIDTH 300 0
DWIDTH 5 0
BBX 2 18 2 -3
BITMAP
80
80
80
80
80
80
80
80
80
80
80
80
80
80
80
40
00
80
ENDCHAR
STARTCHAR 013D
ENCODING 317
SWIDTH 600 0
DWIDTH 10 0
BBX 9 19 -1 0
BITMAP
9000
4000
0000
0000
4000
4000
4000
4000
4000
4000
4000
4000
4000
4000
4000
4000
4000
4000
7F80
ENDCHAR
STARTCHAR 013E
ENCODING 318
SWIDTH 300 0
DWIDTH 5 0
BBX 4 19 0 0
BITMAP
B0
40
00
00
40
40
40
40
40
40
40
40
40
40
40
40
40
40
40
ENDCHAR
STARTCHAR 013F
ENCODING 319
SWIDTH 600 0
DWIDTH 10 0
BBX 8 15 0 0
BITMAP
80
80
80
80
80
80
80
88
80
80
80
80
80
80
FF
ENDCHAR
STARTCHAR 0140
ENCODING 320
SWIDTH 420 0
DWIDTH 7 0
BBX 4 15 2 0
BITMAP
80
80
80
80
80
80
80
90
80
80
80
80
80
80
80
ENDCHAR
STARTCHAR 0141
ENCODING 321
SWIDTH 720 0
DWIDTH 12 0
BBX 11 15 0 0
BITMAP
1000
1000
1000
1000
1200
1C00
1000
1000
7000
1000
9000
1000
1000
1000
1FE0
ENDCHAR
STARTCHAR 0142
ENCODING 322
SWIDTH 480 0
DWIDTH 8 0
BBX 7 15 0 0
BITMAP
10
10
10
10
12
1C
10
10
70
10
90
10
10
10
10
ENDCHAR
STARTCHAR 0143
ENCODING 323
SWIDTH 660 0
DWIDTH 11 0
BBX 9 19 0 0
BITMAP
0200
0800
0000
0000
8080
E080
E080
E080
9080
9080
9080
8880
8280
8280
8280
8180
8180
8180
8080
ENDCHAR
STARTCHAR 0144
ENCODING 324
SWIDTH 540 0
DWIDTH 9 0
BBX 8 15 0 0
BITMAP
08
10
00
00
9E
E1
81
81
81
81
81
81
81
81
81
ENDCHAR
STARTCHAR 0145
ENCODING 325
SWIDTH 660 0
DWIDTH 11 0
BBX 9 18 0 -3
BITMAP
8080
E080
E080
E080
9080
9080
9080
8880
8280
8280
8280
8180
8180
8180
8080
0800
0000
1000
ENDCHAR
STARTCHAR 0146
ENCODING 326
SWIDTH 540 0
DWIDTH 9 0
BBX 8 14 0 -3
BITMAP
9E
80
E1
81
81
81
81
81
81
81
81
08
00
10
ENDCHAR
STARTCHAR 0147
ENCODING 327
SWIDTH 660 0
DWIDTH 11 0
BBX 9 18 0 0
BITMAP
1200
0000
0800
8080
E080
E080
E080
9080
9080
9080
8880
8280
8280
8280
8180
8180
8180
8080
ENDCHAR
STARTCHAR 0148
ENCODING 328
SWIDTH 540 0
DWIDTH 9 0
BBX 8 15 0 0
BITMAP
12
08
00
00
9E
E1
81
81
81
81
81
81
81
81
81
ENDCHAR
STARTCHAR 0149
ENCODING 329
SWIDTH 540 0
DWIDTH 9 0
BBX 8 15 0 0
BITMAP
40
80
00
00
9E
C1
81
81
81
81
81
81
81
81
81
ENDCHAR
STARTCHAR 014A
ENCODING 330
SWIDTH 600 0
DWIDTH 10 0
BBX 9 18 0 -3
BITMAP
8080
E080
E080
E080
9080
9080
9080
8880
8280
8280
8280
8180
8180
8180
8080
0080
0000
0380
ENDCHAR
STARTCHAR 014B
ENCODING 331
SWIDTH 540 0
DWIDTH 9 0
BBX 8 14 0 -3
BITMAP
9E
80
E1
81
81
81
81
81
81
81
81
01
01
0E
ENDCHAR
STARTCHAR 014C
ENCODING 332
SWIDTH 720 0
DWIDTH 12 0
BBX 11 18 0 0
BITMAP
3F00
0000
0000
3F00
4080
8020
8020
8020
8020
8020
8020
8020
8020
8020
8020
4080
0000
3F00
ENDCHAR
STARTCHAR 014D
ENCODING 333
SWIDTH 600 0
DWIDTH 10 0
BBX 9 14 0 0
BITMAP
1E00
0000
0000
1E00
4100
0000
8080
8080
8080
8080
8080
4100
0000
1E00
ENDCHAR
STARTCHAR 014E
ENCODING 334
SWIDTH 720 0
DWIDTH 12 0
BBX 11 19 0 0
BITMAP
1100
0E00
0000
0000
1F00
4080
8020
8020
8020
8020
8020
8020
8020
8020
8020
8020
4080
0000
1F00
ENDCHAR
STARTCHAR 014F
ENCODING 335
SWIDTH 600 0
DWIDTH 10 0
BBX 9 15 0 0
BITMAP
1100
0E00
0000
0000
1E00
4100
0000
8080
8080
8080
8080
8080
4100
0000
1E00
ENDCHAR
STARTCHAR 0150
ENCODING 336
SWIDTH 720 0
DWIDTH 12 0
BBX 11 19 0 0
BITMAP
0900
1200
0000
0000
1F00
4080
8020
8020
8020
8020
8020
8020
8020
8020
8020
8020
4080
0000
1F00
ENDCHAR
STARTCHAR 0151
ENCODING 337
SWIDTH 600 0
DWIDTH 10 0
BBX 9 15 0 0
BITMAP
0900
1200
0000
0000
1E00
4100
0000
8080
8080
8080
8080
8080
4100
0000
1E00
ENDCHAR
STARTCHAR 0152
ENCODING 338
SWIDTH 840 0
DWIDTH 14 0
BBX 12 15 0 0
BITMAP
3FF0
4200
8200
8200
8200
8200
8200
83F0
8200
8200
8200
8200
4200
0200
3FF0
ENDCHAR
STARTCHAR 0153
ENCODING 339
SWIDTH 600 0
DWIDTH 10 0
BBX 9 11 0 0
BITMAP
7700
8880
8880
8880
8F80
8800
8800
8800
8880
0000
7700
ENDCHAR
STARTCHAR 0154
ENCODING 340
SWIDTH 600 0
DWIDTH 10 0
BBX 9 19 0 0
BITMAP
0800
1000
0000
0000
FE00
8100
8000
8080
8080
8080
8080
8100
FE00
8800
8800
8200
8100
8000
8080
ENDCHAR
STARTCHAR 0155
ENCODING 341
SWIDTH 480 0
DWIDTH 8 0
BBX 7 15 0 0
BITMAP
10
40
00
00
9C
E2
80
80
80
80
80
80
80
80
80
ENDCHAR
STARTCHAR 0156
ENCODING 342
SWIDTH 600 0
DWIDTH 10 0
BBX 9 18 0 -3
BITMAP
FE00
8000
8100
8080
8080
8080
8080
8100
FE00
8800
8800
8200
8000
8100
8080
0800
0000
1000
ENDCHAR
STARTCHAR 0157
ENCODING 343
SWIDTH 480 0
DWIDTH 8 0
BBX 7 14 0 -3
BITMAP
9C
80
E2
80
80
80
80
80
80
80
80
10
00
40
ENDCHAR
STARTCHAR 0158
ENCODING 344
SWIDTH 600 0
DWIDTH 10 0
BBX 9 19 0 0
BITMAP
1200
0800
0000
0000
FE00
8100
8000
8080
8080
8080
8080
8100
FE00
8800
8800
8200
8100
8000
8080
ENDCHAR
STARTCHAR 0159
ENCODING 345
SWIDTH 480 0
DWIDTH 8 0
BBX 7 15 0 0
BITMAP
48
10
00
00
98
E2
80
80
80
80
80
80
80
80
80
ENDCHAR
STARTCHAR 015A
ENCODING 346
SWIDTH 600 0
DWIDTH 10 0
BBX 9 19 0 0
BITMAP
0200
0800
0000
0000
1E00
4100
0000
8080
8000
4000
0000
1E00
0100
0080
0080
8080
4100
0000
1E00
ENDCHAR
STARTCHAR 015B
ENCODING 347
SWIDTH 540 0
DWIDTH 9 0
BBX 8 15 0 0
BITMAP
08
10
00
00
7E
81
81
80
70
00
0D
01
81
00
7E
ENDCHAR
STARTCHAR 015C
ENCODING 348
SWIDTH 600 0
DWIDTH 10 0
BBX 9 19 0 0
BITMAP
0800
1200
0000
0000
1E00
4100
0000
8080
8000
4000
0000
1E00
0100
0080
0080
8080
4100
0000
1E00
ENDCHAR
STARTCHAR 015D
ENCODING 349
SWIDTH 540 0
DWIDTH 9 0
BBX 8 15 0 0
BITMAP
08
12
00
00
7E
81
81
80
70
00
0F
01
81
00
7E
ENDCHAR
STARTCHAR 015E
ENCODING 350
SWIDTH 600 0
DWIDTH 10 0
BBX 9 18 0 -3
BITMAP
3E00
0000
4100
8080
8000
8000
4000
3E00
0100
0080
0080
8080
0000
4100
3E00
0200
0200
3800
ENDCHAR
STARTCHAR 015F
ENCODING 351
SWIDTH 540 0
DWIDTH 9 0
BBX 8 14 0 -3
BITMAP
7E
00
81
80
70
00
0E
01
01
81
7E
08
08
70
ENDCHAR
STARTCHAR 0160
ENCODING 352
SWIDTH 600 0
DWIDTH 10 0
BBX 9 19 0 0
BITMAP
1200
0800
0000
0000
1E00
4100
0000
8080
8000
4000
0000
1E00
0100
0080
0080
8080
4100
0000
1E00
ENDCHAR
STARTCHAR 0161
ENCODING 353
SWIDTH 540 0
DWIDTH 9 0
BBX 8 15 0 0
BITMAP
12
08
00
00
7E
81
81
80
70
00
0F
01
81
00
7E
ENDCHAR
STARTCHAR 0162
ENCODING 354
SWIDTH 660 0
DWIDTH 11 0
BBX 10 18 0 -3
BITMAP
FFC0
0400
0400
0400
0400
0400
0400
0400
0400
0400
0400
0400
0400
0400
0400
0200
0000
1C00
ENDCHAR
STARTCHAR 0163
ENCODING 355
SWIDTH 480 0
DWIDTH 8 0
BBX 7 17 0 -3
BITMAP
20
20
20
FE
20
20
20
20
20
20
20
20
22
1C
04
04
38
ENDCHAR
STARTCHAR 0164
ENCODING 356
SWIDTH 660 0
DWIDTH 11 0
BBX 10 19 0 0
BITMAP
1200
0800
0000
0000
FFC0
0800
0800
0800
0800
0800
0800
0800
0800
0800
0800
0800
0800
0800
0800
ENDCHAR
STARTCHAR 0165
ENCODING 357
SWIDTH 480 0
DWIDTH 8 0
BBX 7 18 0 0
BITMAP
90
00
40
00
00
40
40
FE
40
40
40
40
40
40
40
42
00
1C
ENDCHAR
STARTCHAR 0166
ENCODING 358
SWIDTH 660 0
DWIDTH 11 0
BBX 9 15 0 0
BITMAP
FF80
0800
0800
0800
0800
0800
0800
7E00
0800
0800
0800
0800
0800
0800
0800
ENDCHAR
STARTCHAR 0167
ENCODING 359
SWIDTH 480 0
DWIDTH 8 0
BBX 7 14 0 0
BITMAP
20
20
20
FE
20
20
FE
20
20
20
20
22
00
1C
ENDCHAR
STARTCHAR 0168
ENCODING 360
SWIDTH 720 0
DWIDTH 12 0
BBX 11 19 0 0
BITMAP
3880
4700
0000
0000
8020
8020
8020
8020
8020
8020
8020
8020
8020
8020
8020
8020
4080
0000
3F00
ENDCHAR
STARTCHAR 0169
ENCODING 361
SWIDTH 600 0
DWIDTH 10 0
BBX 9 15 0 0
BITMAP
3900
4200
0000
0000
8080
8080
8080
8080
8080
8080
8080
8080
4180
0080
3E80
ENDCHAR
STARTCHAR 016A
ENCODING 362
SWIDTH 720 0
DWIDTH 12 0
BBX 11 18 0 0
BITMAP
3F00
0000
0000
8020
8020
8020
8020
8020
8020
8020
8020
8020
8020
8020
8020
4080
0000
3F00
ENDCHAR
STARTCHAR 016B
ENCODING 363
SWIDTH 600 0
DWIDTH 10 0
BBX 9 14 0 0
BITMAP
1E00
0000
0000
8080
8080
8080
8080
8080
8080
8080
8080
4180
0080
1E80
ENDCHAR
STARTCHAR 016C
ENCODING 364
SWIDTH 720 0
DWIDTH 12 0
BBX 11 19 0 0
BITMAP
1100
0E00
0000
0000
8020
8020
8020
8020
8020
8020
8020
8020
8020
8020
8020
8020
4080
0000
1F00
ENDCHAR
STARTCHAR 016D
ENCODING 365
SWIDTH 600 0
DWIDTH 10 0
BBX 9 15 0 0
BITMAP
1100
0E00
0000
0000
8080
8080
8080
8080
8080
8080
8080
8080
4180
0080
1E80
ENDCHAR
STARTCHAR 016E
ENCODING 366
SWIDTH 720 0
DWIDTH 12 0
BBX 11 19 0 0
BITMAP
0200
0900
0000
0200
8020
8020
8020
8020
8020
8020
8020
8020
8020
8020
8020
8020
4080
0000
3F00
ENDCHAR
STARTCHAR 016F
ENCODING 367
SWIDTH 600 0
DWIDTH 10 0
BBX 9 15 0 0
BITMAP
0800
1200
0000
0800
8080
8080
8080
8080
8080
8080
8080
8080
4180
0080
1E80
ENDCHAR
STARTCHAR 0170
ENCODING 368
SWIDTH 600 0
DWIDTH 10 0
BBX 9 19 0 0
BITMAP
0900
1200
0000
0000
8080
8080
8080
8080
8080
8080
8080
8080
8080
8080
8080
8080
4100
0000
1E00
ENDCHAR
STARTCHAR 0171
ENCODING 369
SWIDTH 600 0
DWIDTH 10 0
BBX 9 15 0 0
BITMAP
0900
1200
0000
0000
8080
8080
8080
8080
8080
8080
8080
8080
4180
0080
1E80
ENDCHAR
STARTCHAR 0172
ENCODING 370
SWIDTH 600 0
DWIDTH 10 0
BBX 9 18 0 -3
BITMAP
8080
8080
8080
8080
8080
8080
8080
8080
8080
8080
8080
8080
8080
4100
1E00
1000
1000
0E00
ENDCHAR
STARTCHAR 0173
ENCODING 371
SWIDTH 660 0
DWIDTH 11 0
BBX 11 14 0 -3
BITMAP
8080
8080
8080
8080
8080
8080
8080
8080
8080
4180
1E80
0100
0000
00E0
ENDCHAR
STARTCHAR 0174
ENCODING 372
SWIDTH 780 0
DWIDTH 13 0
BBX 12 19 0 0
BITMAP
0200
0900
0000
0000
8210
8210
8210
8210
8210
4920
4920
4920
4920
4920
4920
1080
1080
1080
1080
ENDCHAR
STARTCHAR 0175
ENCODING 373
SWIDTH 780 0
DWIDTH 13 0
BBX 12 15 0 0
BITMAP
0200
0900
0000
0000
8210
8210
8210
8210
4920
4920
4920
4920
1080
1080
1080
ENDCHAR
STARTCHAR 0176
ENCODING 374
SWIDTH 600 0
DWIDTH 10 0
BBX 9 19 0 0
BITMAP
0800
1200
0000
0000
8080
8080
8080
4100
4100
1200
1200
1200
0800
0800
0800
0800
0800
0800
0800
ENDCHAR
STARTCHAR 0177
ENCODING 375
SWIDTH 600 0
DWIDTH 10 0
BBX 9 18 0 -3
BITMAP
0800
0000
1200
0000
8080
8080
8080
4100
4100
4100
1200
1200
0800
0800
0800
1000
0000
C000
ENDCHAR
STARTCHAR 0178
ENCODING 376
SWIDTH 600 0
DWIDTH 10 0
BBX 9 18 0 0
BITMAP
1200
0000
0000
8080
8080
8080
4100
4100
1200
1200
1200
0800
0800
0800
0800
0800
0800
0800
ENDCHAR
STARTCHAR 0179
ENCODING 377
SWIDTH 600 0
DWIDTH 10 0
BBX 8 19 0 0
BITMAP
08
10
00
00
FF
02
02
02
08
08
08
10
10
40
40
40
80
80
FF
ENDCHAR
STARTCHAR 017A
ENCODING 378
SWIDTH 540 0
DWIDTH 9 0
BBX 8 15 0 0
BITMAP
08
10
00
00
FF
01
01
02
08
00
10
40
80
80
FF
ENDCHAR
STARTCHAR 017B
ENCODING 379
SWIDTH 600 0
DWIDTH 10 0
BBX 8 18 0 0
BITMAP
08
00
00
FF
02
02
02
08
08
08
10
10
40
40
40
80
80
FF
ENDCHAR
STARTCHAR 017C
ENCODING 380
SWIDTH 540 0
DWIDTH 9 0
BBX 8 14 0 0
BITMAP
08
00
00
FF
01
01
02
08
00
10
40
80
80
FF
ENDCHAR
STARTCHAR 017D
ENCODING 381
SWIDTH 600 0
DWIDTH 10 0
BBX 8 19 0 0
BITMAP
12
08
00
00
FF
02
02
02
08
08
08
10
10
40
40
40
80
80
FF
ENDCHAR
STARTCHAR 017E
ENCODING 382
SWIDTH 540 0
DWIDTH 9 0
BBX 8 15 0 0
BITMAP
12
08
00
00
FF
01
01
02
08
00
10
40
80
80
FF
ENDCHAR
STARTCHAR 017F
ENCODING 383
SWIDTH 300 0
DWIDTH 5 0
BBX 4 15 0 0
BITMAP
70
80
80
80
80
80
80
80
80
80
80
80
80
80
80
ENDCHAR
STARTCHAR 0186
ENCODING 390
SWIDTH 720 0
DWIDTH 12 0
BBX 11 15 0 0
BITMAP
3F00
4080
0000
8020
0020
0020
0020
0020
0020
0020
0020
8020
4080
0000
3F00
ENDCHAR
STARTCHAR 018E
ENCODING 398
SWIDTH 600 0
DWIDTH 10 0
BBX 8 15 0 0
BITMAP
FF
01
01
01
01
01
01
FF
01
01
01
01
01
01
FF
ENDCHAR
STARTCHAR 018F
ENCODING 399
SWIDTH 720 0
DWIDTH 12 0
BBX 11 15 0 0
BITMAP
3F00
4080
0000
8020
0020
0020
0020
FFE0
8020
8020
8020
8020
4080
0000
3F00
ENDCHAR
STARTCHAR 0190
ENCODING 400
SWIDTH 720 0
DWIDTH 12 0
BBX 11 15 0 0
BITMAP
3F00
4080
0000
8020
8000
4000
0000
3F00
4000
8000
8000
8020
4080
0000
3F00
ENDCHAR
STARTCHAR 0191
ENCODING 401
SWIDTH 540 0
DWIDTH 9 0
BBX 11 18 -3 -3
BITMAP
1FE0
1000
1000
1000
1000
1000
1000
1FE0
1000
1000
1000
1000
1000
1000
1000
1000
1000
E000
ENDCHAR
STARTCHAR 0192
ENCODING 402
SWIDTH 480 0
DWIDTH 8 0
BBX 7 18 0 -3
BITMAP
0E
10
10
10
FE
10
10
10
10
10
10
10
10
10
10
10
10
E0
ENDCHAR
STARTCHAR 0198
ENCODING 408
SWIDTH 600 0
DWIDTH 10 0
BBX 9 15 0 0
BITMAP
7080
8100
8000
8200
8800
9000
8000
E000
9000
8000
8800
8200
8100
8000
8080
ENDCHAR
STARTCHAR 0199
ENCODING 409
SWIDTH 540 0
DWIDTH 9 0
BBX 8 15 0 0
BITMAP
70
80
80
80
81
82
80
88
F0
90
90
88
82
80
81
ENDCHAR
STARTCHAR 019C
ENCODING 412
SWIDTH 780 0
DWIDTH 13 0
BBX 12 15 0 0
BITMAP
8210
8210
8210
8210
8210
8210
8210
8210
8210
8210
8210
8210
8E30
0010
71D0
ENDCHAR
STARTCHAR 019D
ENCODING 413
SWIDTH 600 0
DWIDTH 10 0
BBX 12 18 -3 -3
BITMAP
1010
1C10
1C10
1C10
1210
1210
1210
1110
1050
1050
1050
1030
1030
1030
1010
1000
1000
E000
ENDCHAR
STARTCHAR 019E
ENCODING 414
SWIDTH 540 0
DWIDTH 9 0
BBX 8 14 0 -3
BITMAP
9E
80
E1
81
81
81
81
81
81
81
81
01
01
01
ENDCHAR
STARTCHAR 019F
ENCODING 415
SWIDTH 720 0
DWIDTH 12 0
BBX 11 15 0 0
BITMAP
3F00
4080
8020
8020
8020
8020
8020
FFE0
8020
8020
8020
8020
4080
0000
3F00
ENDCHAR
STARTCHAR 01A7
ENCODING 423
SWIDTH 600 0
DWIDTH 10 0
BBX 9 15 0 0
BITMAP
1E00
4100
0000
8080
0080
0100
0000
1E00
4000
8000
8000
8080
4100
0000
1E00
ENDCHAR
STARTCHAR 01A8
ENCODING 424
SWIDTH 540 0
DWIDTH 9 0
BBX 8 11 0 0
BITMAP
7E
81
81
01
0E
00
B0
80
81
00
7E
ENDCHAR
STARTCHAR 01A9
ENCODING 425
SWIDTH 660 0
DWIDTH 11 0
BBX 9 15 0 0
BITMAP
FF80
8000
8000
4000
1000
0800
0000
0200
0800
0000
1000
4000
8000
8000
FF80
ENDCHAR
STARTCHAR 01AE
ENCODING 430
SWIDTH 660 0
DWIDTH 11 0
BBX 9 18 0 -3
BITMAP
FF80
0800
0800
0800
0800
0800
0800
0800
0800
0800
0800
0800
0800
0800
0800
0800
0800
0700
ENDCHAR
STARTCHAR 01B5
ENCODING 437
SWIDTH 600 0
DWIDTH 10 0
BBX 8 15 0 0
BITMAP
FF
02
02
02
08
08
08
FF
10
40
40
40
80
80
FF
ENDCHAR
STARTCHAR 01B6
ENCODING 438
SWIDTH 540 0
DWIDTH 9 0
BBX 8 11 0 0
BITMAP
FF
01
01
02
FF
10
10
40
80
80
FF
ENDCHAR
STARTCHAR 01C0
ENCODING 448
SWIDTH 360 0
DWIDTH 6 0
BBX 1 18 2 -3
BITMAP
80
80
80
80
80
80
80
80
80
80
80
80
80
80
80
80
80
80
ENDCHAR
STARTCHAR 01C1
ENCODING 449
SWIDTH 540 0
DWIDTH 9 0
BBX 4 18 2 -3
BITMAP
90
90
90
90
90
90
90
90
90
90
90
90
90
90
90
90
90
90
ENDCHAR
STARTCHAR 01C2
ENCODING 450
SWIDTH 480 0
DWIDTH 8 0
BBX 7 18 0 -3
BITMAP
10
10
10
10
10
10
FE
10
10
10
10
FE
10
10
10
10
10
10
ENDCHAR
STARTCHAR 01C3
ENCODING 451
SWIDTH 360 0
DWIDTH 6 0
BBX 1 15 2 0
BITMAP
80
80
80
80
80
80
80
80
80
80
80
00
80
80
80
ENDCHAR
STARTCHAR 01C4
ENCODING 452
SWIDTH 1140 0
DWIDTH 19 0
BBX 18 19 0 0
BITMAP
000500
000200
000000
000000
FC3FC0
820100
810100
810100
810200
810200
810200
810400
810400
811000
811000
811000
822000
802000
FC3FC0
ENDCHAR
STARTCHAR 01C5
ENCODING 453
SWIDTH 1260 0
DWIDTH 21 0
BBX 16 15 2 0
BITMAP
FC12
8204
8100
8100
817F
8102
8102
8102
8104
8104
8104
8110
8210
8010
FC7F
ENDCHAR
STARTCHAR 01C6
ENCODING 454
SWIDTH 1080 0
DWIDTH 18 0
BBX 16 15 0 0
BITMAP
0112
0104
0100
0100
397F
4702
0102
8102
8104
8104
8104
8110
4710
0110
397F
ENDCHAR
STARTCHAR 01C7
ENCODING 455
SWIDTH 1140 0
DWIDTH 19 0
BBX 18 15 0 0
BITMAP
800040
800040
800040
800040
800040
800040
800040
800040
800040
800040
800040
802040
801100
800000
FF0E00
ENDCHAR
STARTCHAR 01C8
ENCODING 456
SWIDTH 780 0
DWIDTH 13 0
BBX 12 18 0 -3
BITMAP
8000
8000
8010
8000
8010
8010
8010
8010
8010
8010
8010
8010
8010
8010
FF10
0010
0010
00E0
ENDCHAR
STARTCHAR 01C9
ENCODING 457
SWIDTH 480 0
DWIDTH 8 0
BBX 5 18 2 -3
BITMAP
80
80
88
80
88
88
88
88
88
88
88
88
88
88
88
08
08
70
ENDCHAR
STARTCHAR 01CA
ENCODING 458
SWIDTH 1020 0
DWIDTH 17 0
BBX 16 15 0 0
BITMAP
8101
E101
E101
E101
9101
9101
9101
8901
8901
8701
8701
8701
8121
8100
811E
ENDCHAR
STARTCHAR 01CB
ENCODING 459
SWIDTH 780 0
DWIDTH 13 0
BBX 12 18 0 -3
BITMAP
8100
E110
E110
E100
9110
9110
9110
8910
8910
8910
8710
8710
8710
8110
8110
0010
0010
00E0
ENDCHAR
STARTCHAR 01CC
ENCODING 460
SWIDTH 720 0
DWIDTH 12 0
BBX 11 16 0 -3
BITMAP
0020
0000
B820
8020
C220
8220
8220
8220
8220
8220
8220
8220
8220
0020
0020
01C0
ENDCHAR
STARTCHAR 01CD
ENCODING 461
SWIDTH 600 0
DWIDTH 10 0
BBX 9 19 0 0
BITMAP
1200
0800
0000
0000
0800
1200
1200
1200
1200
4100
4100
4100
4100
4100
7F00
8080
8080
8080
8080
ENDCHAR
STARTCHAR 01CE
ENCODING 462
SWIDTH 540 0
DWIDTH 9 0
BBX 8 15 0 0
BITMAP
12
08
00
00
7E
81
01
01
1F
01
81
81
83
01
79
ENDCHAR
STARTCHAR 01CF
ENCODING 463
SWIDTH 300 0
DWIDTH 5 0
BBX 4 19 0 0
BITMAP
B0
40
00
00
F0
40
40
40
40
40
40
40
40
40
40
40
40
40
F0
ENDCHAR
STARTCHAR 01D0
ENCODING 464
SWIDTH 300 0
DWIDTH 5 0
BBX 4 15 0 0
BITMAP
B0
40
00
00
40
40
40
40
40
40
40
40
40
40
40
ENDCHAR
STARTCHAR 01D1
ENCODING 465
SWIDTH 720 0
DWIDTH 12 0
BBX 11 19 0 0
BITMAP
0900
0200
0000
0000
3F00
4080
8020
8020
8020
8020
8020
8020
8020
8020
8020
8020
4080
0000
3F00
ENDCHAR
STARTCHAR 01D2
ENCODING 466
SWIDTH 600 0
DWIDTH 10 0
BBX 9 15 0 0
BITMAP
1200
0800
0000
0000
1E00
4100
0000
8080
8080
8080
8080
8080
4100
0000
1E00
ENDCHAR
STARTCHAR 01D3
ENCODING 467
SWIDTH 720 0
DWIDTH 12 0
BBX 11 19 0 0
BITMAP
0900
0200
0000
0000
8020
8020
8020
8020
8020
8020
8020
8020
8020
8020
8020
8020
4080
0000
3F00
ENDCHAR
STARTCHAR 01D4
ENCODING 468
SWIDTH 600 0
DWIDTH 10 0
BBX 9 15 0 0
BITMAP
1200
0800
0000
0000
8080
8080
8080
8080
8080
8080
8080
8080
4180
0080
1E80
ENDCHAR
STARTCHAR 01D5
ENCODING 469
SWIDTH 720 0
DWIDTH 12 0
BBX 11 21 0 0
BITMAP
1F00
0000
0000
1100
0000
0000
8020
8020
8020
8020
8020
8020
8020
8020
8020
8020
8020
8020
4080
0000
1F00
ENDCHAR
STARTCHAR 01D6
ENCODING 470
SWIDTH 600 0
DWIDTH 10 0
BBX 9 16 0 0
BITMAP
1E00
0000
1200
0000
0000
8080
8080
8080
8080
8080
8080
8080
8080
4180
0080
1E80
ENDCHAR
STARTCHAR 01D7
ENCODING 471
SWIDTH 720 0
DWIDTH 12 0
BBX 11 22 0 0
BITMAP
0200
0800
0000
0000
1100
0000
0000
8020
8020
8020
8020
8020
8020
8020
8020
8020
8020
8020
8020
4080
0000
1F00
ENDCHAR
STARTCHAR 01D8
ENCODING 472
SWIDTH 600 0
DWIDTH 10 0
BBX 9 18 0 0
BITMAP
0200
0000
0800
0000
1200
0000
0000
8080
8080
8080
8080
8080
8080
8080
8080
4180
0080
1E80
ENDCHAR
STARTCHAR 01D9
ENCODING 473
SWIDTH 720 0
DWIDTH 12 0
BBX 11 22 0 0
BITMAP
0900
0200
0000
0000
1100
0000
0000
8020
8020
8020
8020
8020
8020
8020
8020
8020
8020
8020
8020
4080
0000
1F00
ENDCHAR
STARTCHAR 01DA
ENCODING 474
SWIDTH 600 0
DWIDTH 10 0
BBX 9 18 0 0
BITMAP
1200
0000
0800
0000
1200
0000
0000
8080
8080
8080
8080
8080
8080
8080
8080
4180
0080
1E80
ENDCHAR
STARTCHAR 01DB
ENCODING 475
SWIDTH 720 0
DWIDTH 12 0
BBX 11 22 0 0
BITMAP
0800
0200
0000
0000
1100
0000
0000
8020
8020
8020
8020
8020
8020
8020
8020
8020
8020
8020
8020
4080
0000
1F00
ENDCHAR
STARTCHAR 01DC
ENCODING 476
SWIDTH 600 0
DWIDTH 10 0
BBX 9 18 0 0
BITMAP
1000
0000
0800
0000
1200
0000
0000
8080
8080
8080
8080
8080
8080
8080
8080
4180
0080
1E80
ENDCHAR
STARTCHAR 01DD
ENCODING 477
SWIDTH 600 0
DWIDTH 10 0
BBX 9 11 0 0
BITMAP
1E00
4100
0000
8080
0080
0080
FF80
8080
4100
0000
1E00
ENDCHAR
STARTCHAR 01DE
ENCODING 478
SWIDTH 600 0
DWIDTH 10 0
BBX 9 21 0 0
BITMAP
7F00
0000
0000
1200
0000
0000
0800
1200
1200
1200
1200
4100
4100
4100
4100
4100
7F00
8080
8080
8080
8080
ENDCHAR
STARTCHAR 01DF
ENCODING 479
SWIDTH 540 0
DWIDTH 9 0
BBX 8 16 0 0
BITMAP
7F
00
12
00
00
7E
81
01
01
1F
01
81
81
83
01
79
ENDCHAR
STARTCHAR 01E0
ENCODING 480
SWIDTH 600 0
DWIDTH 10 0
BBX 9 21 0 0
BITMAP
7F00
0000
0000
0800
0000
0000
0800
1200
1200
1200
1200
4100
4100
4100
4100
4100
7F00
8080
8080
8080
8080
ENDCHAR
STARTCHAR 01E1
ENCODING 481
SWIDTH 540 0
DWIDTH 9 0
BBX 8 16 0 0
BITMAP
7F
00
08
00
00
7E
81
01
01
3F
01
81
81
87
01
79
ENDCHAR
STARTCHAR 01E2
ENCODING 482
SWIDTH 840 0
DWIDTH 14 0
BBX 12 18 0 0
BITMAP
0FE0
0000
0000
0FF0
1200
1200
1200
1200
4200
4200
43F0
4200
4200
7E00
8200
8200
8200
83F0
ENDCHAR
STARTCHAR 01E3
ENCODING 483
SWIDTH 600 0
DWIDTH 10 0
BBX 9 14 0 0
BITMAP
7F00
0000
0000
7700
8880
0880
0880
3F80
0800
8800
8800
8880
0000
7700
ENDCHAR
STARTCHAR 01E6
ENCODING 486
SWIDTH 720 0
DWIDTH 12 0
BBX 11 19 0 0
BITMAP
0900
0200
0000
0000
3F00
4080
0000
8020
8000
8000
8000
83E0
8020
8020
8020
8020
4080
0000
3F00
ENDCHAR
STARTCHAR 01E7
ENCODING 487
SWIDTH 600 0
DWIDTH 10 0
BBX 9 18 0 -3
BITMAP
1200
0000
0800
0000
1E80
0080
4180
8080
8080
8080
8080
4180
0080
1E80
8080
4100
0000
1E00
ENDCHAR
STARTCHAR 01E8
ENCODING 488
SWIDTH 600 0
DWIDTH 10 0
BBX 9 18 0 0
BITMAP
1200
0000
0800
8080
8100
8000
8200
8800
9000
8000
E000
9000
8000
8800
8200
8100
8000
8080
ENDCHAR
STARTCHAR 01E9
ENCODING 489
SWIDTH 540 0
DWIDTH 9 0
BBX 8 18 0 0
BITMAP
48
00
10
80
80
80
80
81
82
80
88
F0
90
90
88
82
80
81
ENDCHAR
STARTCHAR 01F0
ENCODING 496
SWIDTH 420 0
DWIDTH 7 0
BBX 7 18 0 -3
BITMAP
42
00
38
00
08
08
08
08
08
08
08
08
08
08
08
88
00
70
ENDCHAR
STARTCHAR 01F1
ENCODING 497
SWIDTH 1140 0
DWIDTH 19 0
BBX 18 15 0 0
BITMAP
FC3FC0
820100
810100
810100
810200
810200
810200
810400
810400
811000
811000
811000
822000
802000
FC3FC0
ENDCHAR
STARTCHAR 01F2
ENCODING 498
SWIDTH 1080 0
DWIDTH 18 0
BBX 16 15 0 0
BITMAP
FC00
8200
8100
8100
817F
8102
8102
8102
8104
8104
8104
8110
8210
8010
FC7F
ENDCHAR
STARTCHAR 01F3
ENCODING 499
SWIDTH 1080 0
DWIDTH 18 0
BBX 16 15 0 0
BITMAP
0100
0100
0100
0100
397F
4702
0102
8102
8104
8104
8104
8110
4710
0110
397F
ENDCHAR
STARTCHAR 01F4
ENCODING 500
SWIDTH 720 0
DWIDTH 12 0
BBX 11 19 0 0
BITMAP
0200
0800
0000
0000
3F00
4080
0000
8020
8000
8000
8000
83E0
8020
8020
8020
8020
4080
0000
3F00
ENDCHAR
STARTCHAR 01F5
ENCODING 501
SWIDTH 600 0
DWIDTH 10 0
BBX 9 18 0 -3
BITMAP
0200
0000
0800
0000
1E80
0080
4180
8080
8080
8080
8080
4180
0080
1E80
8080
4100
0000
1E00
ENDCHAR
STARTCHAR 01F8
ENCODING 504
SWIDTH 660 0
DWIDTH 11 0
BBX 9 18 0 0
BITMAP
1000
0000
0800
8080
E080
E080
E080
9080
9080
9080
8880
8280
8280
8280
8180
8180
8180
8080
ENDCHAR
STARTCHAR 01F9
ENCODING 505
SWIDTH 540 0
DWIDTH 9 0
BBX 8 15 0 0
BITMAP
10
08
00
00
9E
E1
81
81
81
81
81
81
81
81
81
ENDCHAR
STARTCHAR 01FA
ENCODING 506
SWIDTH 600 0
DWIDTH 10 0
BBX 9 19 0 0
BITMAP
0200
0800
0000
1200
0800
1200
1200
1200
1200
4100
4100
4100
4100
4100
7F00
8080
8080
8080
8080
ENDCHAR
STARTCHAR 01FB
ENCODING 507
SWIDTH 540 0
DWIDTH 9 0
BBX 8 18 0 0
BITMAP
02
00
08
12
08
00
00
7E
81
01
01
1F
01
81
81
83
01
79
ENDCHAR
STARTCHAR 01FC
ENCODING 508
SWIDTH 840 0
DWIDTH 14 0
BBX 12 19 0 0
BITMAP
0020
0080
0000
0000
0FF0
1200
1200
1200
1200
4200
4200
43F0
4200
4200
7E00
8200
8200
8200
83F0
ENDCHAR
STARTCHAR 01FD
ENCODING 509
SWIDTH 600 0
DWIDTH 10 0
BBX 9 15 0 0
BITMAP
0200
0800
0000
0000
7380
8880
0880
0880
3F80
0800
8800
8800
8880
0000
7380
ENDCHAR
STARTCHAR 01FE
ENCODING 510
SWIDTH 780 0
DWIDTH 13 0
BBX 12 19 0 0
BITMAP
0100
0200
0000
0000
0F00
1090
4020
4020
40E0
4120
4020
4220
4820
4020
7020
6020
9080
0000
0F00
ENDCHAR
STARTCHAR 01FF
ENCODING 511
SWIDTH 600 0
DWIDTH 10 0
BBX 9 15 0 0
BITMAP
0200
0800
0000
0000
1E80
4100
0000
8280
8880
8880
8880
9080
4100
0000
9E00
ENDCHAR
STARTCHAR 0200
ENCODING 512
SWIDTH 600 0
DWIDTH 10 0
BBX 9 19 0 0
BITMAP
4800
1200
0000
0000
0800
1200
1200
1200
1200
4100
4100
4100
4100
4100
7F00
8080
8080
8080
8080
ENDCHAR
STARTCHAR 0201
ENCODING 513
SWIDTH 540 0
DWIDTH 9 0
BBX 8 15 0 0
BITMAP
48
12
00
00
7E
81
01
01
1F
01
81
81
83
01
79
ENDCHAR
STARTCHAR 0202
ENCODING 514
SWIDTH 600 0
DWIDTH 10 0
BBX 9 18 0 0
BITMAP
0E00
0000
1100
0800
1200
1200
1200
1200
4100
4100
4100
4100
4100
7F00
8080
8080
8080
8080
ENDCHAR
STARTCHAR 0203
ENCODING 515
SWIDTH 540 0
DWIDTH 9 0
BBX 8 15 0 0
BITMAP
38
42
00
00
7E
81
01
01
3F
01
81
81
87
01
79
ENDCHAR
STARTCHAR 0204
ENCODING 516
SWIDTH 600 0
DWIDTH 10 0
BBX 8 19 0 0
BITMAP
48
12
00
00
FF
80
80
80
80
80
80
FF
80
80
80
80
80
80
FF
ENDCHAR
STARTCHAR 0205
ENCODING 517
SWIDTH 600 0
DWIDTH 10 0
BBX 9 15 0 0
BITMAP
4800
1200
0000
0000
1E00
4100
8080
8080
FF80
8000
8000
8080
4100
0000
1E00
ENDCHAR
STARTCHAR 0206
ENCODING 518
SWIDTH 600 0
DWIDTH 10 0
BBX 8 19 0 0
BITMAP
38
42
00
00
FF
80
80
80
80
80
80
FF
80
80
80
80
80
80
FF
ENDCHAR
STARTCHAR 0207
ENCODING 519
SWIDTH 600 0
DWIDTH 10 0
BBX 9 15 0 0
BITMAP
0E00
1100
0000
0000
1E00
4100
8080
8080
FF80
8000
8000
8080
4100
0000
1E00
ENDCHAR
STARTCHAR 0208
ENCODING 520
SWIDTH 300 0
DWIDTH 5 0
BBX 5 19 -1 0
BITMAP
90
48
00
00
78
10
10
10
10
10
10
10
10
10
10
10
10
10
78
ENDCHAR
STARTCHAR 0209
ENCODING 521
SWIDTH 300 0
DWIDTH 5 0
BBX 5 15 -1 0
BITMAP
90
48
00
00
10
10
10
10
10
10
10
10
10
10
10
ENDCHAR
STARTCHAR 020A
ENCODING 522
SWIDTH 300 0
DWIDTH 5 0
BBX 5 19 0 0
BITMAP
70
88
00
00
F0
40
40
40
40
40
40
40
40
40
40
40
40
40
F0
ENDCHAR
STARTCHAR 020B
ENCODING 523
SWIDTH 300 0
DWIDTH 5 0
BBX 5 15 0 0
BITMAP
70
88
00
00
40
40
40
40
40
40
40
40
40
40
40
ENDCHAR
STARTCHAR 020C
ENCODING 524
SWIDTH 720 0
DWIDTH 12 0
BBX 11 19 0 0
BITMAP
1200
0900
0000
0000
1F00
4080
8020
8020
8020
8020
8020
8020
8020
8020
8020
8020
4080
0000
1F00
ENDCHAR
STARTCHAR 020D
ENCODING 525
SWIDTH 600 0
DWIDTH 10 0
BBX 9 15 0 0
BITMAP
4800
1200
0000
0000
1E00
4100
0000
8080
8080
8080
8080
8080
4100
0000
1E00
ENDCHAR
STARTCHAR 020E
ENCODING 526
SWIDTH 720 0
DWIDTH 12 0
BBX 11 19 0 0
BITMAP
0E00
1100
0000
0000
1F00
4080
8020
8020
8020
8020
8020
8020
8020
8020
8020
8020
4080
0000
1F00
ENDCHAR
STARTCHAR 020F
ENCODING 527
SWIDTH 600 0
DWIDTH 10 0
BBX 9 15 0 0
BITMAP
0E00
1100
0000
0000
1E00
4100
0000
8080
8080
8080
8080
8080
4100
0000
1E00
ENDCHAR
STARTCHAR 0210
ENCODING 528
SWIDTH 600 0
DWIDTH 10 0
BBX 9 19 0 0
BITMAP
4800
1200
0000
0000
FE00
8100
8000
8080
8080
8080
8080
8100
FE00
8800
8800
8200
8100
8000
8080
ENDCHAR
STARTCHAR 0211
ENCODING 529
SWIDTH 480 0
DWIDTH 8 0
BBX 7 15 0 0
BITMAP
90
48
00
00
98
E2
80
80
80
80
80
80
80
80
80
ENDCHAR
STARTCHAR 0212
ENCODING 530
SWIDTH 600 0
DWIDTH 10 0
BBX 9 19 0 0
BITMAP
3800
4200
0000
0000
FE00
8100
8000
8080
8080
8080
8080
8100
FE00
8800
8800
8200
8100
8000
8080
ENDCHAR
STARTCHAR 0213
ENCODING 531
SWIDTH 480 0
DWIDTH 8 0
BBX 7 15 0 0
BITMAP
38
42
00
00
B8
C2
80
80
80
80
80
80
80
80
80
ENDCHAR
STARTCHAR 0214
ENCODING 532
SWIDTH 720 0
DWIDTH 12 0
BBX 11 18 0 0
BITMAP
1200
0000
0900
8020
8020
8020
8020
8020
8020
8020
8020
8020
8020
8020
8020
4080
0000
1F00
ENDCHAR
STARTCHAR 0215
ENCODING 533
SWIDTH 600 0
DWIDTH 10 0
BBX 9 14 0 0
BITMAP
4800
0000
1200
8080
8080
8080
8080
8080
8080
8080
8080
4180
0080
1E80
ENDCHAR
STARTCHAR 0216
ENCODING 534
SWIDTH 720 0
DWIDTH 12 0
BBX 11 18 0 0
BITMAP
0E00
0000
1100
8020
8020
8020
8020
8020
8020
8020
8020
8020
8020
8020
8020
4080
0000
1F00
ENDCHAR
STARTCHAR 0217
ENCODING 535
SWIDTH 600 0
DWIDTH 10 0
BBX 9 15 0 0
BITMAP
0E00
1100
0000
0000
8080
8080
8080
8080
8080
8080
8080
8080
4180
0080
1E80
ENDCHAR
STARTCHAR 0218
ENCODING 536
SWIDTH 600 0
DWIDTH 10 0
BBX 9 19 0 -4
BITMAP
1E00
0000
4100
8080
8000
8000
4000
1E00
0100
0080
0080
8080
0000
4100
1E00
0000
0000
0800
1000
ENDCHAR
STARTCHAR 0219
ENCODING 537
SWIDTH 540 0
DWIDTH 9 0
BBX 8 15 0 -4
BITMAP
7E
00
81
80
70
00
0E
01
01
81
7E
00
00
08
10
ENDCHAR
STARTCHAR 021A
ENCODING 538
SWIDTH 660 0
DWIDTH 11 0
BBX 10 19 0 -4
BITMAP
FFC0
0800
0800
0800
0800
0800
0800
0800
0800
0800
0800
0800
0800
0800
0800
0000
0000
0800
1000
ENDCHAR
STARTCHAR 021B
ENCODING 539
SWIDTH 480 0
DWIDTH 8 0
BBX 7 18 0 -4
BITMAP
20
20
20
FE
20
20
20
20
20
20
20
20
22
1C
00
00
04
10
ENDCHAR
STARTCHAR 021E
ENCODING 542
SWIDTH 600 0
DWIDTH 10 0
BBX 9 18 0 0
BITMAP
1100
0000
0E00
8080
8080
8080
8080
8080
8080
8080
FF80
8080
8080
8080
8080
8080
8080
8080
ENDCHAR
STARTCHAR 021F
ENCODING 543
SWIDTH 540 0
DWIDTH 9 0
BBX 8 18 0 0
BITMAP
42
00
38
80
80
80
80
BE
C1
81
81
81
81
81
81
81
81
81
ENDCHAR
STARTCHAR 0220
ENCODING 544
SWIDTH 720 0
DWIDTH 12 0
BBX 11 18 0 -3
BITMAP
9F00
8000
E080
8020
8020
8020
8020
8020
8020
8020
8020
8020
8020
8020
8020
0020
0020
0020
ENDCHAR
STARTCHAR 0226
ENCODING 550
SWIDTH 600 0
DWIDTH 10 0
BBX 9 18 0 0
BITMAP
0800
0000
0000
0800
1200
1200
1200
1200
4100
4100
4100
4100
4100
7F00
8080
8080
8080
8080
ENDCHAR
STARTCHAR 0227
ENCODING 551
SWIDTH 540 0
DWIDTH 9 0
BBX 8 14 0 0
BITMAP
08
00
00
7E
81
01
01
3F
01
81
81
87
01
79
ENDCHAR
STARTCHAR 022A
ENCODING 554
SWIDTH 720 0
DWIDTH 12 0
BBX 11 21 0 0
BITMAP
1F00
0000
0000
1100
0000
0000
1F00
4080
8020
8020
8020
8020
8020
8020
8020
8020
8020
8020
4080
0000
1F00
ENDCHAR
STARTCHAR 022B
ENCODING 555
SWIDTH 600 0
DWIDTH 10 0
BBX 9 16 0 0
BITMAP
7F00
0000
1200
0000
0000
1E00
4100
0000
8080
8080
8080
8080
8080
4100
0000
1E00
ENDCHAR
STARTCHAR 022C
ENCODING 556
SWIDTH 720 0
DWIDTH 12 0
BBX 11 22 0 0
BITMAP
3F00
0000
0000
3880
4700
0000
0000
3F00
4080
8020
8020
8020
8020
8020
8020
8020
8020
8020
8020
4080
0000
3F00
ENDCHAR
STARTCHAR 022D
ENCODING 557
SWIDTH 600 0
DWIDTH 10 0
BBX 9 18 0 0
BITMAP
3F00
0000
0000
3880
4700
0000
0000
3C00
4100
0000
8080
8080
8080
8080
8080
4100
0000
3C00
ENDCHAR
STARTCHAR 022E
ENCODING 558
SWIDTH 840 0
DWIDTH 14 0
BBX 12 18 0 0
BITMAP
0200
0000
0000
3FE0
4020
8030
8030
8030
8030
8030
8030
8030
8030
8030
8030
4020
0000
3FE0
ENDCHAR
STARTCHAR 022F
ENCODING 559
SWIDTH 600 0
DWIDTH 10 0
BBX 9 14 0 0
BITMAP
0800
0000
0000
1E00
4100
0000
8080
8080
8080
8080
8080
4100
0000
1E00
ENDCHAR
STARTCHAR 0230
ENCODING 560
SWIDTH 840 0
DWIDTH 14 0
BBX 12 21 0 0
BITMAP
3FC0
0000
0000
0200
0000
0000
3FE0
4020
8030
8030
8030
8030
8030
8030
8030
8030
8030
8030
4020
0000
3FE0
ENDCHAR
STARTCHAR 0231
ENCODING 561
SWIDTH 600 0
DWIDTH 10 0
BBX 9 16 0 0
BITMAP
7F00
0000
0800
0000
0000
1E00
4100
0000
8080
8080
8080
8080
8080
4100
0000
1E00
ENDCHAR
STARTCHAR 0232
ENCODING 562
SWIDTH 600 0
DWIDTH 10 0
BBX 9 18 0 0
BITMAP
7F00
0000
0000
8080
8080
8080
4100
4100
1200
1200
1200
0800
0800
0800
0800
0800
0800
0800
ENDCHAR
STARTCHAR 0233
ENCODING 563
SWIDTH 600 0
DWIDTH 10 0
BBX 9 16 0 -3
BITMAP
7F00
0000
8080
8080
8080
4100
4100
4100
1200
1200
0800
0800
0800
1000
0000
C000
ENDCHAR
STARTCHAR 0237
ENCODING 567
SWIDTH 360 0
DWIDTH 6 0
BBX 5 14 0 -3
BITMAP
08
08
08
08
08
08
08
08
08
08
08
88
00
70
ENDCHAR
STARTCHAR 0238
ENCODING 568
SWIDTH 960 0
DWIDTH 16 0
BBX 15 15 0 0
BITMAP
0100
0100
0100
0100
3970
4784
0100
8102
8102
8102
8102
8102
4784
0100
3970
ENDCHAR
STARTCHAR 0239
ENCODING 569
SWIDTH 960 0
DWIDTH 16 0
BBX 15 14 0 -3
BITMAP
3970
0100
4784
8102
8102
8102
8102
8102
8102
4784
3970
0100
0100
0100
ENDCHAR
STARTCHAR 0245
ENCODING 581
SWIDTH 600 0
DWIDTH 10 0
BBX 9 15 0 0
BITMAP
0800
0800
0800
1200
1200
1200
1200
4100
4100
4100
4100
8080
8080
8080
8080
ENDCHAR
STARTCHAR 0250
ENCODING 592
SWIDTH 540 0
DWIDTH 9 0
BBX 8 11 0 0
BITMAP
9E
E1
E1
81
82
80
FC
80
81
00
7E
ENDCHAR
STARTCHAR 0253
ENCODING 595
SWIDTH 600 0
DWIDTH 10 0
BBX 9 15 0 0
BITMAP
7000
8000
8000
8000
9E00
E100
8000
8080
8080
8080
8080
8080
E100
8000
9E00
ENDCHAR
STARTCHAR 0254
ENCODING 596
SWIDTH 600 0
DWIDTH 10 0
BBX 9 11 0 0
BITMAP
1E00
4100
0000
8080
0080
0080
0080
8080
4100
0000
1E00
ENDCHAR
STARTCHAR 0255
ENCODING 597
SWIDTH 540 0
DWIDTH 9 0
BBX 8 11 0 0
BITMAP
1E
41
80
80
80
80
80
9E
41
00
9E
ENDCHAR
STARTCHAR 0256
ENCODING 598
SWIDTH 660 0
DWIDTH 11 0
BBX 12 18 0 -3
BITMAP
0080
0080
0080
0080
1E80
0080
4180
8080
8080
8080
8080
8080
8080
4180
1E80
0080
0080
0070
ENDCHAR
STARTCHAR 0257
ENCODING 599
SWIDTH 720 0
DWIDTH 12 0
BBX 12 15 0 0
BITMAP
0070
0080
0080
0080
1E80
4180
0080
8080
8080
8080
8080
8080
4180
0080
1E80
ENDCHAR
STARTCHAR 0258
ENCODING 600
SWIDTH 600 0
DWIDTH 10 0
BBX 9 11 0 0
BITMAP
1E00
4100
8080
8080
FF80
0080
0080
8080
4100
0000
1E00
ENDCHAR
STARTCHAR 0259
ENCODING 601
SWIDTH 600 0
DWIDTH 10 0
BBX 9 11 0 0
BITMAP
1E00
4100
0000
8080
0080
0080
FF80
8080
4100
0000
1E00
ENDCHAR
STARTCHAR 025B
ENCODING 603
SWIDTH 540 0
DWIDTH 9 0
BBX 8 11 0 0
BITMAP
7E
81
81
80
78
80
80
80
81
00
7E
ENDCHAR
STARTCHAR 025C
ENCODING 604
SWIDTH 540 0
DWIDTH 9 0
BBX 8 11 0 0
BITMAP
7E
81
81
01
1E
01
01
01
81
00
7E
ENDCHAR
STARTCHAR 025E
ENCODING 606
SWIDTH 540 0
DWIDTH 9 0
BBX 8 11 0 0
BITMAP
7E
81
81
81
9E
80
81
81
81
81
7E
ENDCHAR
STARTCHAR 025F
ENCODING 607
SWIDTH 480 0
DWIDTH 8 0
BBX 7 14 0 -3
BITMAP
10
10
10
10
10
10
10
10
10
10
FE
10
10
E0
ENDCHAR
STARTCHAR 0260
ENCODING 608
SWIDTH 720 0
DWIDTH 12 0
BBX 12 16 0 -3
BITMAP
0070
0080
1E80
0080
4180
8080
8080
8080
8080
4180
0080
1E80
8080
4100
0000
1E00
ENDCHAR
STARTCHAR 0261
ENCODING 609
SWIDTH 600 0
DWIDTH 10 0
BBX 9 14 0 -3
BITMAP
1E80
0080
4180
8080
8080
8080
8080
4180
0080
1E80
8080
4100
0000
1E00
ENDCHAR
STARTCHAR 0262
ENCODING 610
SWIDTH 600 0
DWIDTH 10 0
BBX 9 11 0 0
BITMAP
1E00
4100
0000
8080
8000
8000
8F80
8080
4100
0000
1E00
ENDCHAR
STARTCHAR 0265
ENCODING 613
SWIDTH 540 0
DWIDTH 9 0
BBX 8 14 0 -3
BITMAP
81
81
81
81
81
81
81
81
81
87
79
01
01
01
ENDCHAR
STARTCHAR 0266
ENCODING 614
SWIDTH 540 0
DWIDTH 9 0
BBX 8 15 0 0
BITMAP
70
80
80
80
9E
E1
81
81
81
81
81
81
81
81
81
ENDCHAR
STARTCHAR 0267
ENCODING 615
SWIDTH 540 0
DWIDTH 9 0
BBX 8 18 0 -3
BITMAP
70
80
80
80
9E
80
E1
81
81
81
81
81
81
81
81
01
01
0E
ENDCHAR
STARTCHAR 0268
ENCODING 616
SWIDTH 300 0
DWIDTH 5 0
BBX 4 14 0 0
BITMAP
20
00
00
20
20
20
20
F0
20
20
20
20
20
20
ENDCHAR
STARTCHAR 0269
ENCODING 617
SWIDTH 360 0
DWIDTH 6 0
BBX 4 14 2 -3
BITMAP
80
80
80
80
80
80
80
80
80
80
80
80
80
70
ENDCHAR
STARTCHAR 026A
ENCODING 618
SWIDTH 300 0
DWIDTH 5 0
BBX 4 11 0 0
BITMAP
F0
20
20
20
20
20
20
20
20
20
F0
ENDCHAR
STARTCHAR 026B
ENCODING 619
SWIDTH 480 0
DWIDTH 8 0
BBX 7 15 0 0
BITMAP
10
10
10
10
10
72
10
9C
10
10
10
10
10
10
10
ENDCHAR
STARTCHAR 026C
ENCODING 620
SWIDTH 480 0
DWIDTH 8 0
BBX 7 15 0 0
BITMAP
10
10
10
10
10
70
10
90
7E
10
10
10
10
10
10
ENDCHAR
STARTCHAR 026D
ENCODING 621
SWIDTH 360 0
DWIDTH 6 0
BBX 4 18 2 -3
BITMAP
80
80
80
80
80
80
80
80
80
80
80
80
80
80
80
80
80
70
ENDCHAR
STARTCHAR 026F
ENCODING 623
SWIDTH 780 0
DWIDTH 13 0
BBX 12 11 0 0
BITMAP
8210
8210
8210
8210
8210
8210
8210
8210
8E30
0010
71D0
ENDCHAR
STARTCHAR 0270
ENCODING 624
SWIDTH 780 0
DWIDTH 13 0
BBX 12 14 0 -3
BITMAP
8210
8210
8210
8210
8210
8210
8210
8210
8210
8E30
71D0
0010
0010
0010
ENDCHAR
STARTCHAR 0271
ENCODING 625
SWIDTH 780 0
DWIDTH 13 0
BBX 12 14 0 -3
BITMAP
B8E0
8000
C310
8210
8210
8210
8210
8210
8210
8210
8210
0010
0010
00E0
ENDCHAR
STARTCHAR 0272
ENCODING 626
SWIDTH 540 0
DWIDTH 9 0
BBX 11 14 -3 -3
BITMAP
13C0
1000
1C20
1020
1020
1020
1020
1020
1020
1020
1020
1000
1000
E000
ENDCHAR
STARTCHAR 0273
ENCODING 627
SWIDTH 600 0
DWIDTH 10 0
BBX 11 14 0 -3
BITMAP
9E00
8000
E100
8100
8100
8100
8100
8100
8100
8100
8100
0100
0100
00E0
ENDCHAR
STARTCHAR 0274
ENCODING 628
SWIDTH 600 0
DWIDTH 10 0
BBX 9 11 0 0
BITMAP
8080
E080
8080
9080
8880
8880
8880
8280
8180
8080
8080
ENDCHAR
STARTCHAR 0275
ENCODING 629
SWIDTH 600 0
DWIDTH 10 0
BBX 9 11 0 0
BITMAP
1E00
4100
0000
8080
FF80
8080
8080
8080
4100
0000
1E00
ENDCHAR
STARTCHAR 0276
ENCODING 630
SWIDTH 600 0
DWIDTH 10 0
BBX 9 11 0 0
BITMAP
7700
8880
8880
8880
8F80
8800
8800
8800
8880
0000
7700
ENDCHAR
STARTCHAR 0277
ENCODING 631
SWIDTH 780 0
DWIDTH 13 0
BBX 12 11 0 0
BITMAP
3FC0
4020
0000
8210
8210
8210
8210
8210
4220
0000
39C0
ENDCHAR
STARTCHAR 0279
ENCODING 633
SWIDTH 480 0
DWIDTH 8 0
BBX 7 11 0 0
BITMAP
02
02
02
02
02
02
02
02
8E
02
72
ENDCHAR
STARTCHAR 027A
ENCODING 634
SWIDTH 480 0
DWIDTH 8 0
BBX 7 15 0 0
BITMAP
02
02
02
02
02
02
02
02
02
02
02
02
8E
02
72
ENDCHAR
STARTCHAR 027B
ENCODING 635
SWIDTH 540 0
DWIDTH 9 0
BBX 10 14 0 -3
BITMAP
0200
0200
0200
0200
0200
0200
0200
0200
0200
8E00
7200
0200
0200
01C0
ENDCHAR
STARTCHAR 027C
ENCODING 636
SWIDTH 420 0
DWIDTH 7 0
BBX 6 14 0 -3
BITMAP
B8
80
C4
80
80
80
80
80
80
80
80
80
80
80
ENDCHAR
STARTCHAR 027D
ENCODING 637
SWIDTH 480 0
DWIDTH 8 0
BBX 7 14 0 -3
BITMAP
B8
80
C2
80
80
80
80
80
80
80
80
80
80
70
ENDCHAR
STARTCHAR 027E
ENCODING 638
SWIDTH 360 0
DWIDTH 6 0
BBX 5 11 0 0
BITMAP
78
80
80
80
80
80
80
80
80
80
80
ENDCHAR
STARTCHAR 027F
ENCODING 639
SWIDTH 360 0
DWIDTH 6 0
BBX 5 14 0 -3
BITMAP
F0
08
08
08
08
08
08
08
08
08
08
08
08
08
ENDCHAR
STARTCHAR 0280
ENCODING 640
SWIDTH 540 0
DWIDTH 9 0
BBX 8 11 0 0
BITMAP
FE
81
81
81
81
80
FE
82
81
81
81
ENDCHAR
STARTCHAR 0281
ENCODING 641
SWIDTH 540 0
DWIDTH 9 0
BBX 8 11 0 0
BITMAP
81
81
81
41
7F
01
81
81
81
81
7F
ENDCHAR
STARTCHAR 0282
ENCODING 642
SWIDTH 540 0
DWIDTH 9 0
BBX 8 14 0 -3
BITMAP
7E
00
81
80
70
00
0E
01
01
81
FE
80
80
70
ENDCHAR
STARTCHAR 0283
ENCODING 643
SWIDTH 480 0
DWIDTH 8 0
BBX 7 18 0 -3
BITMAP
0E
10
10
10
10
10
10
10
10
10
10
10
10
10
10
10
10
E0
ENDCHAR
STARTCHAR 0284
ENCODING 644
SWIDTH 480 0
DWIDTH 8 0
BBX 7 18 0 -3
BITMAP
0E
10
10
10
10
10
10
10
FE
10
10
10
10
10
10
10
10
E0
ENDCHAR
STARTCHAR 0285
ENCODING 645
SWIDTH 480 0
DWIDTH 8 0
BBX 7 14 0 -3
BITMAP
E0
10
10
10
10
10
10
10
10
10
10
10
10
0E
ENDCHAR
STARTCHAR 0286
ENCODING 646
SWIDTH 540 0
DWIDTH 9 0
BBX 8 18 0 -3
BITMAP
07
08
08
08
08
08
08
08
08
08
08
08
08
08
7F
88
00
70
ENDCHAR
STARTCHAR 0287
ENCODING 647
SWIDTH 480 0
DWIDTH 8 0
BBX 7 14 0 -3
BITMAP
70
00
88
08
08
08
08
08
08
08
FE
08
08
08
ENDCHAR
STARTCHAR 0288
ENCODING 648
SWIDTH 480 0
DWIDTH 8 0
BBX 7 17 0 -3
BITMAP
20
20
20
FE
20
20
20
20
20
20
20
20
20
20
22
00
1C
ENDCHAR
STARTCHAR 028C
ENCODING 652
SWIDTH 600 0
DWIDTH 10 0
BBX 9 11 0 0
BITMAP
0800
0800
0800
1200
1200
4100
4100
4100
8080
8080
8080
ENDCHAR
STARTCHAR 028D
ENCODING 653
SWIDTH 780 0
DWIDTH 13 0
BBX 12 11 0 0
BITMAP
1080
1080
1080
4920
4920
4920
4920
8210
8210
8210
8210
ENDCHAR
STARTCHAR 028E
ENCODING 654
SWIDTH 600 0
DWIDTH 10 0
BBX 9 15 0 0
BITMAP
0180
0200
0200
0200
0800
0800
0800
1200
1200
4100
4100
4100
8080
8080
8080
ENDCHAR
STARTCHAR 028F
ENCODING 655
SWIDTH 600 0
DWIDTH 10 0
BBX 9 11 0 0
BITMAP
8080
4100
4100
4100
1200
0800
0800
0800
0800
0800
0800
ENDCHAR
STARTCHAR 0299
ENCODING 665
SWIDTH 540 0
DWIDTH 9 0
BBX 8 11 0 0
BITMAP
FE
81
81
81
FE
80
81
81
81
81
FE
ENDCHAR
STARTCHAR 029A
ENCODING 666
SWIDTH 540 0
DWIDTH 9 0
BBX 8 11 0 0
BITMAP
7E
81
81
81
79
01
81
81
81
81
7E
ENDCHAR
STARTCHAR 029C
ENCODING 668
SWIDTH 540 0
DWIDTH 9 0
BBX 8 11 0 0
BITMAP
81
81
81
81
FF
81
81
81
81
81
81
ENDCHAR
STARTCHAR 029D
ENCODING 669
SWIDTH 420 0
DWIDTH 7 0
BBX 7 16 0 -3
BITMAP
08
00
08
08
08
08
08
08
08
08
08
08
7E
88
00
70
ENDCHAR
STARTCHAR 029E
ENCODING 670
SWIDTH 540 0
DWIDTH 9 0
BBX 8 14 0 -3
BITMAP
81
01
41
11
09
09
0F
11
01
41
81
01
01
01
ENDCHAR
STARTCHAR 029F
ENCODING 671
SWIDTH 480 0
DWIDTH 8 0
BBX 7 11 0 0
BITMAP
80
80
80
80
80
80
80
80
80
80
FE
ENDCHAR
STARTCHAR 02AE
ENCODING 686
SWIDTH 720 0
DWIDTH 12 0
BBX 11 14 0 -3
BITMAP
E020
1020
1020
1020
1020
1020
1020
1020
1020
10E0
0F20
0020
0020
0020
ENDCHAR
STARTCHAR 02AF
ENCODING 687
SWIDTH 780 0
DWIDTH 13 0
BBX 14 14 0 -3
BITMAP
E020
1020
1020
1020
1020
1020
1020
1020
1020
10E0
0F20
0020
0020
001C
ENDCHAR
STARTCHAR 037E
ENCODING 894
SWIDTH 300 0
DWIDTH 5 0
BBX 2 8 0 3
BITMAP
40
40
40
00
00
00
40
80
ENDCHAR
STARTCHAR 037F
ENCODING 895
SWIDTH 540 0
DWIDTH 9 0
BBX 8 15 0 0
BITMAP
01
01
01
01
01
01
01
01
01
01
01
81
42
00
38
ENDCHAR
STARTCHAR 0384
ENCODING 900
SWIDTH 180 0
DWIDTH 3 0
BBX 2 2 0 13
BITMAP
40
80
ENDCHAR
STARTCHAR 0385
ENCODING 901
SWIDTH 540 0
DWIDTH 9 0
BBX 8 2 0 13
BITMAP
08
91
ENDCHAR
STARTCHAR 0386
ENCODING 902
SWIDTH 720 0
DWIDTH 12 0
BBX 11 15 0 0
BITMAP
4200
8900
0900
0900
0900
1080
1080
1080
1080
1080
1F80
4020
4020
4020
4020
ENDCHAR
STARTCHAR 0387
ENCODING 903
SWIDTH 360 0
DWIDTH 6 0
BBX 1 1 2 7
BITMAP
80
ENDCHAR
STARTCHAR 0388
ENCODING 904
SWIDTH 840 0
DWIDTH 14 0
BBX 12 15 0 0
BITMAP
4FF0
8800
0800
0800
0800
0800
0800
0FF0
0800
0800
0800
0800
0800
0800
0FF0
ENDCHAR
STARTCHAR 0389
ENCODING 905
SWIDTH 900 0
DWIDTH 15 0
BBX 14 15 0 0
BITMAP
4804
8804
0804
0804
0804
0804
0804
0FFC
0804
0804
0804
0804
0804
0804
0804
ENDCHAR
STARTCHAR 038A
ENCODING 906
SWIDTH 540 0
DWIDTH 9 0
BBX 8 15 0 0
BITMAP
4F
82
02
02
02
02
02
02
02
02
02
02
02
02
0F
ENDCHAR
STARTCHAR 038C
ENCODING 908
SWIDTH 900 0
DWIDTH 15 0
BBX 14 15 0 0
BITMAP
47E0
8810
1004
1004
1004
1004
1004
1004
1004
1004
1004
1004
0810
0000
07E0
ENDCHAR
STARTCHAR 038E
ENCODING 910
SWIDTH 900 0
DWIDTH 15 0
BBX 14 15 0 0
BITMAP
4804
8804
0000
0210
0210
0120
0120
0120
0080
0080
0080
0080
0080
0080
0080
ENDCHAR
STARTCHAR 038F
ENCODING 911
SWIDTH 900 0
DWIDTH 15 0
BBX 14 15 0 0
BITMAP
43E0
8810
0000
1004
1004
1004
1004
1004
1004
1004
0810
0220
0220
0220
1E3C
ENDCHAR
STARTCHAR 0390
ENCODING 912
SWIDTH 540 0
DWIDTH 9 0
BBX 8 15 0 0
BITMAP
08
91
00
00
10
10
10
10
10
10
10
10
10
10
0E
ENDCHAR
STARTCHAR 0391
ENCODING 913
SWIDTH 600 0
DWIDTH 10 0
BBX 9 15 0 0
BITMAP
0800
1200
1200
1200
1200
4100
4100
4100
4100
4100
7F00
8080
8080
8080
8080
ENDCHAR
STARTCHAR 0392
ENCODING 914
SWIDTH 600 0
DWIDTH 10 0
BBX 9 15 0 0
BITMAP
FE00
8100
8000
8080
8080
8100
8000
FE00
8100
8080
8080
8080
8100
8000
FE00
ENDCHAR
STARTCHAR 0393
ENCODING 915
SWIDTH 600 0
DWIDTH 10 0
BBX 8 15 0 0
BITMAP
FF
80
80
80
80
80
80
80
80
80
80
80
80
80
80
ENDCHAR
STARTCHAR 0394
ENCODING 916
SWIDTH 600 0
DWIDTH 10 0
BBX 9 15 0 0
BITMAP
0800
1200
1200
1200
1200
4100
4100
4100
4100
4100
4100
8080
8080
8080
FF80
ENDCHAR
STARTCHAR 0395
ENCODING 917
SWIDTH 600 0
DWIDTH 10 0
BBX 8 15 0 0
BITMAP
FF
80
80
80
80
80
80
FF
80
80
80
80
80
80
FF
ENDCHAR
STARTCHAR 0396
ENCODING 918
SWIDTH 600 0
DWIDTH 10 0
BBX 8 15 0 0
BITMAP
FF
02
02
02
08
08
08
10
10
40
40
40
80
80
FF
ENDCHAR
STARTCHAR 0397
ENCODING 919
SWIDTH 600 0
DWIDTH 10 0
BBX 9 15 0 0
BITMAP
8080
8080
8080
8080
8080
8080
8080
FF80
8080
8080
8080
8080
8080
8080
8080
ENDCHAR
STARTCHAR 0398
ENCODING 920
SWIDTH 720 0
DWIDTH 12 0
BBX 11 15 0 0
BITMAP
3F00
4080
8020
8020
8020
8020
8020
BF20
8020
8020
8020
8020
4080
0000
3F00
ENDCHAR
STARTCHAR 0399
ENCODING 921
SWIDTH 300 0
DWIDTH 5 0
BBX 4 15 0 0
BITMAP
F0
20
20
20
20
20
20
20
20
20
20
20
20
20
F0
ENDCHAR
STARTCHAR 039A
ENCODING 922
SWIDTH 600 0
DWIDTH 10 0
BBX 9 15 0 0
BITMAP
8080
8100
8000
8200
8800
9000
8000
E000
9000
8000
8800
8200
8100
8000
8080
ENDCHAR
STARTCHAR 039B
ENCODING 923
SWIDTH 600 0
DWIDTH 10 0
BBX 9 15 0 0
BITMAP
0800
1200
1200
1200
1200
4100
4100
4100
4100
4100
4100
8080
8080
8080
8080
ENDCHAR
STARTCHAR 039C
ENCODING 924
SWIDTH 780 0
DWIDTH 13 0
BBX 12 15 0 0
BITMAP
8010
E070
E070
E070
9090
9090
9090
9090
8910
8910
8910
8910
8210
8210
8210
ENDCHAR
STARTCHAR 039D
ENCODING 925
SWIDTH 660 0
DWIDTH 11 0
BBX 9 15 0 0
BITMAP
8080
E080
E080
E080
9080
9080
9080
8880
8280
8280
8280
8180
8180
8180
8080
ENDCHAR
STARTCHAR 039E
ENCODING 926
SWIDTH 660 0
DWIDTH 11 0
BBX 10 15 0 0
BITMAP
FFC0
0000
0000
0000
0000
0000
0000
7F80
0000
0000
0000
0000
0000
0000
FFC0
ENDCHAR
STARTCHAR 039F
ENCODING 927
SWIDTH 720 0
DWIDTH 12 0
BBX 11 15 0 0
BITMAP
3F00
4080
8020
8020
8020
8020
8020
8020
8020
8020
8020
8020
4080
0000
3F00
ENDCHAR
STARTCHAR 03A0
ENCODING 928
SWIDTH 600 0
DWIDTH 10 0
BBX 9 15 0 0
BITMAP
FF80
8080
8080
8080
8080
8080
8080
8080
8080
8080
8080
8080
8080
8080
8080
ENDCHAR
STARTCHAR 03A1
ENCODING 929
SWIDTH 600 0
DWIDTH 10 0
BBX 9 15 0 0
BITMAP
FE00
8100
8000
8080
8080
8080
8080
8100
FE00
8000
8000
8000
8000
8000
8000
ENDCHAR
STARTCHAR 03A3
ENCODING 931
SWIDTH 660 0
DWIDTH 11 0
BBX 9 15 0 0
BITMAP
FF80
8000
8000
4000
1000
0800
0000
0200
0800
0000
1000
4000
8000
8000
FF80
ENDCHAR
STARTCHAR 03A4
ENCODING 932
SWIDTH 660 0
DWIDTH 11 0
BBX 9 15 0 0
BITMAP
FF80
0800
0800
0800
0800
0800
0800
0800
0800
0800
0800
0800
0800
0800
0800
ENDCHAR
STARTCHAR 03A5
ENCODING 933
SWIDTH 600 0
DWIDTH 10 0
BBX 9 15 0 0
BITMAP
8080
8080
8080
4100
4100
1200
1200
1200
0800
0800
0800
0800
0800
0800
0800
ENDCHAR
STARTCHAR 03A6
ENCODING 934
SWIDTH 780 0
DWIDTH 13 0
BBX 12 15 0 0
BITMAP
0200
3FC0
0200
4220
8210
8210
8210
8210
8210
8210
8210
4220
3FC0
0200
0200
ENDCHAR
STARTCHAR 03A7
ENCODING 935
SWIDTH 600 0
DWIDTH 10 0
BBX 9 15 0 0
BITMAP
8080
4100
4100
4100
1200
1200
1200
0800
1200
1200
1200
4100
4100
4100
8080
ENDCHAR
STARTCHAR 03A8
ENCODING 936
SWIDTH 600 0
DWIDTH 10 0
BBX 9 15 0 0
BITMAP
8880
8880
8880
8880
8880
8880
8880
8880
7F00
0800
0800
0800
0800
0800
0800
ENDCHAR
STARTCHAR 03A9
ENCODING 937
SWIDTH 720 0
DWIDTH 12 0
BBX 11 15 0 0
BITMAP
1F00
4080
0000
8020
8020
8020
8020
8020
8020
8020
4080
1100
1100
1100
F1E0
ENDCHAR
STARTCHAR 03AA
ENCODING 938
SWIDTH 300 0
DWIDTH 5 0
BBX 4 18 0 0
BITMAP
B0
00
00
F0
40
40
40
40
40
40
40
40
40
40
40
40
40
F0
ENDCHAR
STARTCHAR 03AB
ENCODING 939
SWIDTH 600 0
DWIDTH 10 0
BBX 9 18 0 0
BITMAP
1200
0000
0000
8080
8080
8080
4100
4100
1200
1200
1200
0800
0800
0800
0800
0800
0800
0800
ENDCHAR
STARTCHAR 03AC
ENCODING 940
SWIDTH 720 0
DWIDTH 12 0
BBX 11 15 0 0
BITMAP
0200
0800
0000
0000
1E20
4120
0000
8080
8080
8080
8080
8080
4180
0000
1E20
ENDCHAR
STARTCHAR 03AD
ENCODING 941
SWIDTH 540 0
DWIDTH 9 0
BBX 8 15 0 0
BITMAP
08
10
00
00
7E
81
81
80
78
80
80
80
81
00
7E
ENDCHAR
STARTCHAR 03AE
ENCODING 942
SWIDTH 540 0
DWIDTH 9 0
BBX 8 18 0 -3
BITMAP
08
00
10
00
9E
80
E1
81
81
81
81
81
81
81
81
01
01
01
ENDCHAR
STARTCHAR 03AF
ENCODING 943
SWIDTH 300 0
DWIDTH 5 0
BBX 4 15 0 0
BITMAP
40
80
00
00
80
80
80
80
80
80
80
80
80
80
70
ENDCHAR
STARTCHAR 03B0
ENCODING 944
SWIDTH 720 0
DWIDTH 12 0
BBX 11 15 0 0
BITMAP
0100
1220
0000
0000
E020
1020
1020
1020
1020
1020
1020
1020
0840
0000
0300
ENDCHAR
STARTCHAR 03B1
ENCODING 945
SWIDTH 720 0
DWIDTH 12 0
BBX 11 11 0 0
BITMAP
1E20
4120
0000
8080
8080
8080
8080
8080
4180
0000
1E20
ENDCHAR
STARTCHAR 03B2
ENCODING 946
SWIDTH 600 0
DWIDTH 10 0
BBX 9 18 0 -3
BITMAP
1E00
0000
4100
8080
8080
8080
8100
9E00
8100
8000
8080
8080
8080
8100
9E00
8000
8000
8000
ENDCHAR
STARTCHAR 03B3
ENCODING 947
SWIDTH 600 0
DWIDTH 10 0
BBX 9 14 0 -3
BITMAP
8080
8080
8080
4100
4100
4100
1200
1200
0800
0800
0800
0800
0800
0800
ENDCHAR
STARTCHAR 03B4
ENCODING 948
SWIDTH 600 0
DWIDTH 10 0
BBX 9 15 0 0
BITMAP
1E00
4100
4100
4000
1E00
4100
0000
8080
8080
8080
8080
8080
4100
0000
1E00
ENDCHAR
STARTCHAR 03B5
ENCODING 949
SWIDTH 540 0
DWIDTH 9 0
BBX 8 11 0 0
BITMAP
7E
81
81
80
78
80
80
80
81
00
7E
ENDCHAR
STARTCHAR 03B6
ENCODING 950
SWIDTH 540 0
DWIDTH 9 0
BBX 8 14 0 -3
BITMAP
FE
02
02
08
10
00
40
80
80
80
7E
01
00
02
ENDCHAR
STARTCHAR 03B7
ENCODING 951
SWIDTH 540 0
DWIDTH 9 0
BBX 8 14 0 -3
BITMAP
9E
80
E1
81
81
81
81
81
81
81
81
01
01
01
ENDCHAR
STARTCHAR 03B8
ENCODING 952
SWIDTH 600 0
DWIDTH 10 0
BBX 9 15 0 0
BITMAP
1E00
4100
8080
8080
8080
8080
8080
FF80
8080
8080
8080
8080
4100
0000
1E00
ENDCHAR
STARTCHAR 03B9
ENCODING 953
SWIDTH 300 0
DWIDTH 5 0
BBX 4 11 0 0
BITMAP
80
80
80
80
80
80
80
80
80
80
70
ENDCHAR
STARTCHAR 03BA
ENCODING 954
SWIDTH 540 0
DWIDTH 9 0
BBX 8 11 0 0
BITMAP
81
82
80
88
F0
90
90
88
82
80
81
ENDCHAR
STARTCHAR 03BB
ENCODING 955
SWIDTH 720 0
DWIDTH 12 0
BBX 11 15 0 0
BITMAP
7000
0800
0800
0800
0800
1200
1200
1200
1200
0000
4100
4100
8100
8100
80E0
ENDCHAR
STARTCHAR 03BC
ENCODING 956
SWIDTH 540 0
DWIDTH 9 0
BBX 8 14 0 -3
BITMAP
81
81
81
81
81
81
81
81
81
C7
B9
80
80
80
ENDCHAR
STARTCHAR 03BD
ENCODING 957
SWIDTH 720 0
DWIDTH 12 0
BBX 11 11 0 0
BITMAP
E020
1020
1020
1020
1040
0040
0840
0900
0900
0900
0200
ENDCHAR
STARTCHAR 03BE
ENCODING 958
SWIDTH 540 0
DWIDTH 9 0
BBX 8 14 0 -3
BITMAP
7E
00
81
80
78
00
80
80
80
80
7E
01
00
02
ENDCHAR
STARTCHAR 03BF
ENCODING 959
SWIDTH 600 0
DWIDTH 10 0
BBX 9 11 0 0
BITMAP
1E00
4100
0000
8080
8080
8080
8080
8080
4100
0000
1E00
ENDCHAR
STARTCHAR 03C0
ENCODING 960
SWIDTH 720 0
DWIDTH 12 0
BBX 11 11 0 0
BITMAP
7FE0
9100
1100
1100
1100
1100
1100
1100
1100
1100
10E0
ENDCHAR
STARTCHAR 03C1
ENCODING 961
SWIDTH 600 0
DWIDTH 10 0
BBX 9 14 0 -3
BITMAP
1E00
0000
4100
8080
8080
8080
8080
8080
8080
E100
9E00
8000
8000
8000
ENDCHAR
STARTCHAR 03C2
ENCODING 962
SWIDTH 600 0
DWIDTH 10 0
BBX 9 14 0 -3
BITMAP
1E00
0000
4100
8080
8000
8000
8000
8000
8000
4000
1F00
0080
0000
0100
ENDCHAR
STARTCHAR 03C3
ENCODING 963
SWIDTH 600 0
DWIDTH 10 0
BBX 9 11 0 0
BITMAP
1F80
4100
0000
8080
8080
8080
8080
8080
4100
0000
1E00
ENDCHAR
STARTCHAR 03C4
ENCODING 964
SWIDTH 660 0
DWIDTH 11 0
BBX 9 11 0 0
BITMAP
7F80
8800
0800
0800
0800
0800
0800
0800
0800
0800
0700
ENDCHAR
STARTCHAR 03C5
ENCODING 965
SWIDTH 720 0
DWIDTH 12 0
BBX 11 11 0 0
BITMAP
E020
1020
1020
1020
1020
1020
1020
1020
0840
0000
0700
ENDCHAR
STARTCHAR 03C6
ENCODING 966
SWIDTH 780 0
DWIDTH 13 0
BBX 12 14 0 -3
BITMAP
11C0
0000
4220
8210
8210
8210
8210
8210
8210
4220
1FC0
0200
0200
0200
ENDCHAR
STARTCHAR 03C7
ENCODING 967
SWIDTH 600 0
DWIDTH 10 0
BBX 9 11 0 0
BITMAP
C080
1100
1000
1200
0800
0800
0800
1200
4200
0000
8180
ENDCHAR
STARTCHAR 03C8
ENCODING 968
SWIDTH 600 0
DWIDTH 10 0
BBX 9 14 0 -3
BITMAP
8880
8880
8880
8880
8880
8880
8880
8880
8880
8880
7F00
0800
0800
0800
ENDCHAR
STARTCHAR 03C9
ENCODING 969
SWIDTH 780 0
DWIDTH 13 0
BBX 12 11 0 0
BITMAP
10C0
4020
0000
8210
8210
8210
8210
8210
4220
0000
1DC0
ENDCHAR
STARTCHAR 03CA
ENCODING 970
SWIDTH 420 0
DWIDTH 7 0
BBX 6 14 0 0
BITMAP
90
00
00
40
40
40
40
40
40
40
40
40
40
1C
ENDCHAR
STARTCHAR 03CB
ENCODING 971
SWIDTH 720 0
DWIDTH 12 0
BBX 11 14 0 0
BITMAP
0900
0000
0000
E020
1020
1020
1020
1020
1020
1020
1020
0840
0000
0700
ENDCHAR
STARTCHAR 03CC
ENCODING 972
SWIDTH 600 0
DWIDTH 10 0
BBX 9 15 0 0
BITMAP
0200
0800
0000
0000
1E00
4100
0000
8080
8080
8080
8080
8080
4100
0000
1E00
ENDCHAR
STARTCHAR 03CD
ENCODING 973
SWIDTH 720 0
DWIDTH 12 0
BBX 11 15 0 0
BITMAP
0100
0200
0000
0000
E020
1020
1020
1020
1020
1020
1020
1020
0840
0000
0300
ENDCHAR
STARTCHAR 03CE
ENCODING 974
SWIDTH 780 0
DWIDTH 13 0
BBX 12 15 0 0
BITMAP
0100
0200
0000
0000
1080
4020
0000
8210
8210
8210
8210
8210
4220
0000
1D80
ENDCHAR
STARTCHAR 0400
ENCODING 1024
SWIDTH 600 0
DWIDTH 10 0
BBX 8 19 0 0
BITMAP
10
08
00
00
FF
80
80
80
80
80
80
FF
80
80
80
80
80
80
FF
ENDCHAR
STARTCHAR 0401
ENCODING 1025
SWIDTH 600 0
DWIDTH 10 0
BBX 8 18 0 0
BITMAP
12
00
00
FF
80
80
80
80
80
80
FF
80
80
80
80
80
80
FF
ENDCHAR
STARTCHAR 0402
ENCODING 1026
SWIDTH 780 0
DWIDTH 13 0
BBX 12 15 0 0
BITMAP
FFC0
0800
0800
0800
0800
09E0
0800
0E10
0810
0810
0810
0810
0810
0810
08E0
ENDCHAR
STARTCHAR 0403
ENCODING 1027
SWIDTH 600 0
DWIDTH 10 0
BBX 8 19 0 0
BITMAP
08
10
00
00
FF
80
80
80
80
80
80
80
80
80
80
80
80
80
80
ENDCHAR
STARTCHAR 0404
ENCODING 1028
SWIDTH 720 0
DWIDTH 12 0
BBX 11 15 0 0
BITMAP
3F00
4080
0000
8020
8000
8000
8000
FE00
8000
8000
8000
8020
4080
0000
3F00
ENDCHAR
STARTCHAR 0405
ENCODING 1029
SWIDTH 600 0
DWIDTH 10 0
BBX 9 15 0 0
BITMAP
1E00
4100
0000
8080
8000
4000
0000
1E00
0100
0080
0080
8080
4100
0000
1E00
ENDCHAR
STARTCHAR 0406
ENCODING 1030
SWIDTH 300 0
DWIDTH 5 0
BBX 4 15 0 0
BITMAP
F0
20
20
20
20
20
20
20
20
20
20
20
20
20
F0
ENDCHAR
STARTCHAR 0407
ENCODING 1031
SWIDTH 300 0
DWIDTH 5 0
BBX 4 18 0 0
BITMAP
B0
00
00
F0
40
40
40
40
40
40
40
40
40
40
40
40
40
F0
ENDCHAR
STARTCHAR 0408
ENCODING 1032
SWIDTH 540 0
DWIDTH 9 0
BBX 8 15 0 0
BITMAP
01
01
01
01
01
01
01
01
01
01
01
81
42
00
38
ENDCHAR
STARTCHAR 0409
ENCODING 1033
SWIDTH 1200 0
DWIDTH 20 0
BBX 19 15 0 0
BITMAP
1FE000
102000
102000
102000
102000
103F80
102000
102040
102020
102020
102020
102020
102040
002000
E03F80
ENDCHAR
STARTCHAR 040A
ENCODING 1034
SWIDTH 1140 0
DWIDTH 19 0
BBX 18 15 0 0
BITMAP
808000
808000
808000
808000
808000
FFFE00
808000
808100
808040
808040
808040
808040
808100
808000
80FE00
ENDCHAR
STARTCHAR 040B
ENCODING 1035
SWIDTH 780 0
DWIDTH 13 0
BBX 12 15 0 0
BITMAP
FFC0
0800
0800
0800
0800
09E0
0800
0E10
0810
0810
0810
0810
0810
0810
0810
ENDCHAR
STARTCHAR 040C
ENCODING 1036
SWIDTH 600 0
DWIDTH 10 0
BBX 9 19 0 0
BITMAP
0200
0800
0000
0000
8080
8100
8000
8200
8800
9000
8000
E000
9000
8000
8800
8200
8100
8000
8080
ENDCHAR
STARTCHAR 040D
ENCODING 1037
SWIDTH 660 0
DWIDTH 11 0
BBX 9 19 0 0
BITMAP
1000
0800
0000
0000
8080
8180
8180
8180
8280
8280
8280
8880
9080
9080
9080
E080
E080
E080
8080
ENDCHAR
STARTCHAR 040E
ENCODING 1038
SWIDTH 600 0
DWIDTH 10 0
BBX 9 19 0 0
BITMAP
1100
0E00
0000
0000
8080
8080
8080
4100
4100
1200
1200
1200
0800
0800
0800
0800
1000
0000
C000
ENDCHAR
STARTCHAR 040F
ENCODING 1039
SWIDTH 600 0
DWIDTH 10 0
BBX 9 18 0 -3
BITMAP
8080
8080
8080
8080
8080
8080
8080
8080
8080
8080
8080
8080
8080
8080
FF80
0800
0800
0800
ENDCHAR
STARTCHAR 0410
ENCODING 1040
SWIDTH 600 0
DWIDTH 10 0
BBX 9 15 0 0
BITMAP
0800
1200
1200
1200
1200
4100
4100
4100
4100
4100
7F00
8080
8080
8080
8080
ENDCHAR
STARTCHAR 0411
ENCODING 1041
SWIDTH 600 0
DWIDTH 10 0
BBX 9 15 0 0
BITMAP
FF00
8000
8000
8000
8000
8000
8000
FE00
8100
8080
8080
8080
8100
8000
FE00
ENDCHAR
STARTCHAR 0412
ENCODING 1042
SWIDTH 600 0
DWIDTH 10 0
BBX 9 15 0 0
BITMAP
FE00
8100
8000
8080
8080
8100
8000
FE00
8100
8080
8080
8080
8100
8000
FE00
ENDCHAR
STARTCHAR 0413
ENCODING 1043
SWIDTH 600 0
DWIDTH 10 0
BBX 8 15 0 0
BITMAP
FF
80
80
80
80
80
80
80
80
80
80
80
80
80
80
ENDCHAR
STARTCHAR 0414
ENCODING 1044
SWIDTH 780 0
DWIDTH 13 0
BBX 12 16 0 -1
BITMAP
0FE0
0820
0820
0820
0820
0820
0820
0820
1020
1020
1020
4020
FFF0
8010
8010
8010
ENDCHAR
STARTCHAR 0415
ENCODING 1045
SWIDTH 600 0
DWIDTH 10 0
BBX 8 15 0 0
BITMAP
FF
80
80
80
80
80
80
FF
80
80
80
80
80
80
FF
ENDCHAR
STARTCHAR 0416
ENCODING 1046
SWIDTH 960 0
DWIDTH 16 0
BBX 15 15 0 0
BITMAP
8102
4104
4104
4104
1110
0920
0100
0780
0920
0100
1110
4104
4104
4104
8102
ENDCHAR
STARTCHAR 0417
ENCODING 1047
SWIDTH 720 0
DWIDTH 12 0
BBX 11 15 0 0
BITMAP
3F00
4080
0000
8020
0020
0080
0000
0F00
0080
0020
0020
8020
4080
0000
3F00
ENDCHAR
STARTCHAR 0418
ENCODING 1048
SWIDTH 660 0
DWIDTH 11 0
BBX 9 15 0 0
BITMAP
8080
8180
8180
8180
8280
8280
8280
8880
9080
9080
9080
E080
E080
E080
8080
ENDCHAR
STARTCHAR 0419
ENCODING 1049
SWIDTH 660 0
DWIDTH 11 0
BBX 9 19 0 0
BITMAP
1200
0800
0000
0000
8080
8180
8180
8180
8280
8280
8280
8880
9080
9080
9080
E080
E080
E080
8080
ENDCHAR
STARTCHAR 041A
ENCODING 1050
SWIDTH 600 0
DWIDTH 10 0
BBX 9 15 0 0
BITMAP
8080
8100
8000
8200
8800
9000
8000
E000
9000
8000
8800
8200
8100
8000
8080
ENDCHAR
STARTCHAR 041B
ENCODING 1051
SWIDTH 720 0
DWIDTH 12 0
BBX 11 15 0 0
BITMAP
1FE0
1020
1020
1020
1020
1020
1020
1020
1020
1020
1020
1020
1020
1020
E020
ENDCHAR
STARTCHAR 041C
ENCODING 1052
SWIDTH 780 0
DWIDTH 13 0
BBX 12 15 0 0
BITMAP
8010
E070
E070
E070
9090
9090
9090
9090
8910
8910
8910
8910
8210
8210
8210
ENDCHAR
STARTCHAR 041D
ENCODING 1053
SWIDTH 600 0
DWIDTH 10 0
BBX 9 15 0 0
BITMAP
8080
8080
8080
8080
8080
8080
8080
FF80
8080
8080
8080
8080
8080
8080
8080
ENDCHAR
STARTCHAR 041E
ENCODING 1054
SWIDTH 720 0
DWIDTH 12 0
BBX 11 15 0 0
BITMAP
3F00
4080
8020
8020
8020
8020
8020
8020
8020
8020
8020
8020
4080
0000
3F00
ENDCHAR
STARTCHAR 041F
ENCODING 1055
SWIDTH 600 0
DWIDTH 10 0
BBX 9 15 0 0
BITMAP
FF80
8080
8080
8080
8080
8080
8080
8080
8080
8080
8080
8080
8080
8080
8080
ENDCHAR
STARTCHAR 0420
ENCODING 1056
SWIDTH 600 0
DWIDTH 10 0
BBX 9 15 0 0
BITMAP
FE00
8100
8000
8080
8080
8080
8080
8100
FE00
8000
8000
8000
8000
8000
8000
ENDCHAR
STARTCHAR 0421
ENCODING 1057
SWIDTH 720 0
DWIDTH 12 0
BBX 11 15 0 0
BITMAP
3F00
4080
0000
8020
8000
8000
8000
8000
8000
8000
8000
8020
4080
0000
3F00
ENDCHAR
STARTCHAR 0422
ENCODING 1058
SWIDTH 660 0
DWIDTH 11 0
BBX 9 15 0 0
BITMAP
FF80
0800
0800
0800
0800
0800
0800
0800
0800
0800
0800
0800
0800
0800
0800
ENDCHAR
STARTCHAR 0423
ENCODING 1059
SWIDTH 600 0
DWIDTH 10 0
BBX 9 15 0 0
BITMAP
8080
8080
8080
4100
4100
1200
1200
1200
0800
0800
0800
0800
1000
0000
C000
ENDCHAR
STARTCHAR 0424
ENCODING 1060
SWIDTH 780 0
DWIDTH 13 0
BBX 12 15 0 0
BITMAP
0200
3FC0
0200
4220
8210
8210
8210
8210
8210
8210
8210
4220
3FC0
0200
0200
ENDCHAR
STARTCHAR 0425
ENCODING 1061
SWIDTH 600 0
DWIDTH 10 0
BBX 9 15 0 0
BITMAP
8080
4100
4100
4100
1200
1200
1200
0800
1200
1200
1200
4100
4100
4100
8080
ENDCHAR
STARTCHAR 0426
ENCODING 1062
SWIDTH 600 0
DWIDTH 10 0
BBX 9 16 0 -1
BITMAP
8100
8100
8100
8100
8100
8100
8100
8100
8100
8100
8100
8100
8100
8100
FF80
0080
ENDCHAR
STARTCHAR 0427
ENCODING 1063
SWIDTH 600 0
DWIDTH 10 0
BBX 9 15 0 0
BITMAP
8080
8080
8080
8080
8080
8080
8080
4180
1E80
0080
0080
0080
0080
0080
0080
ENDCHAR
STARTCHAR 0428
ENCODING 1064
SWIDTH 840 0
DWIDTH 14 0
BBX 13 15 0 0
BITMAP
8208
8208
8208
8208
8208
8208
8208
8208
8208
8208
8208
8208
8208
8208
FFF8
ENDCHAR
STARTCHAR 0429
ENCODING 1065
SWIDTH 900 0
DWIDTH 15 0
BBX 14 16 0 -1
BITMAP
8210
8210
8210
8210
8210
8210
8210
8210
8210
8210
8210
8210
8210
8210
FFFC
0004
ENDCHAR
STARTCHAR 042A
ENCODING 1066
SWIDTH 780 0
DWIDTH 13 0
BBX 12 15 0 0
BITMAP
F000
1000
1000
1000
1000
1FC0
1000
1020
1010
1010
1010
1010
1020
1000
1FC0
ENDCHAR
STARTCHAR 042B
ENCODING 1067
SWIDTH 780 0
DWIDTH 13 0
BBX 12 15 0 0
BITMAP
8010
8010
8010
8010
8010
FE10
8010
8110
8090
8090
8090
8090
8110
8010
FE10
ENDCHAR
STARTCHAR 042C
ENCODING 1068
SWIDTH 600 0
DWIDTH 10 0
BBX 9 15 0 0
BITMAP
8000
8000
8000
8000
8000
FE00
8000
8100
8080
8080
8080
8080
8100
8000
FE00
ENDCHAR
STARTCHAR 042D
ENCODING 1069
SWIDTH 720 0
DWIDTH 12 0
BBX 11 15 0 0
BITMAP
3F00
4080
0000
8020
0020
0020
0020
0FE0
0020
0020
0020
8020
4080
0000
3F00
ENDCHAR
STARTCHAR 042E
ENCODING 1070
SWIDTH 960 0
DWIDTH 16 0
BBX 15 15 0 0
BITMAP
81E0
8200
8806
8806
8806
8806
8806
F806
8806
8806
8806
8806
8200
8000
81E0
ENDCHAR
STARTCHAR 042F
ENCODING 1071
SWIDTH 600 0
DWIDTH 10 0
BBX 9 15 0 0
BITMAP
1F80
4080
0080
8080
8080
8080
8080
4080
1F80
0880
0880
1080
4080
0080
8080
ENDCHAR
STARTCHAR 0430
ENCODING 1072
SWIDTH 540 0
DWIDTH 9 0
BBX 8 11 0 0
BITMAP
7E
81
01
01
3F
01
81
81
87
01
79
ENDCHAR
STARTCHAR 0431
ENCODING 1073
SWIDTH 600 0
DWIDTH 10 0
BBX 9 15 0 0
BITMAP
0100
1E00
0000
4000
9E00
E100
8000
8080
8080
8080
8080
8080
4100
0000
1E00
ENDCHAR
STARTCHAR 0432
ENCODING 1074
SWIDTH 540 0
DWIDTH 9 0
BBX 8 11 0 0
BITMAP
FE
81
81
81
FE
80
81
81
81
81
FE
ENDCHAR
STARTCHAR 0433
ENCODING 1075
SWIDTH 480 0
DWIDTH 8 0
BBX 7 11 0 0
BITMAP
FE
80
80
80
80
80
80
80
80
80
80
ENDCHAR
STARTCHAR 0434
ENCODING 1076
SWIDTH 720 0
DWIDTH 12 0
BBX 11 14 0 -3
BITMAP
0F80
0880
0880
0880
0880
0880
1080
1080
4080
4080
FFE0
8020
8020
8020
ENDCHAR
STARTCHAR 0435
ENCODING 1077
SWIDTH 600 0
DWIDTH 10 0
BBX 9 11 0 0
BITMAP
1E00
4100
8080
8080
FF80
8000
8000
8080
4100
0000
1E00
ENDCHAR
STARTCHAR 0436
ENCODING 1078
SWIDTH 780 0
DWIDTH 13 0
BBX 12 11 0 0
BITMAP
8210
4220
4220
4220
1280
0200
0F00
1280
4220
0200
8210
ENDCHAR
STARTCHAR 0437
ENCODING 1079
SWIDTH 540 0
DWIDTH 9 0
BBX 8 11 0 0
BITMAP
7E
81
81
01
1E
01
01
01
81
00
7E
ENDCHAR
STARTCHAR 0438
ENCODING 1080
SWIDTH 600 0
DWIDTH 10 0
BBX 9 11 0 0
BITMAP
8080
8180
8080
8280
8880
8880
8880
9080
E080
8080
8080
ENDCHAR
STARTCHAR 0439
ENCODING 1081
SWIDTH 600 0
DWIDTH 10 0
BBX 9 14 0 0
BITMAP
1200
0000
0800
8080
8180
8080
8280
8880
8880
8880
9080
E080
8080
8080
ENDCHAR
STARTCHAR 043A
ENCODING 1082
SWIDTH 540 0
DWIDTH 9 0
BBX 8 11 0 0
BITMAP
81
82
80
88
F0
90
90
88
82
80
81
ENDCHAR
STARTCHAR 043B
ENCODING 1083
SWIDTH 660 0
DWIDTH 11 0
BBX 10 11 0 0
BITMAP
1FC0
1040
1040
1040
1040
1040
1040
1040
1040
1040
E040
ENDCHAR
STARTCHAR 043C
ENCODING 1084
SWIDTH 660 0
DWIDTH 11 0
BBX 9 11 0 0
BITMAP
8080
E180
E180
E180
9280
9280
9280
9280
8880
8880
8880
ENDCHAR
STARTCHAR 043D
ENCODING 1085
SWIDTH 540 0
DWIDTH 9 0
BBX 8 11 0 0
BITMAP
81
81
81
81
FF
81
81
81
81
81
81
ENDCHAR
STARTCHAR 043E
ENCODING 1086
SWIDTH 600 0
DWIDTH 10 0
BBX 9 11 0 0
BITMAP
1E00
4100
0000
8080
8080
8080
8080
8080
4100
0000
1E00
ENDCHAR
STARTCHAR 043F
ENCODING 1087
SWIDTH 540 0
DWIDTH 9 0
BBX 8 11 0 0
BITMAP
FF
81
81
81
81
81
81
81
81
81
81
ENDCHAR
STARTCHAR 0440
ENCODING 1088
SWIDTH 600 0
DWIDTH 10 0
BBX 9 14 0 -3
BITMAP
9E00
8000
E100
8080
8080
8080
8080
8080
8080
E100
9E00
8000
8000
8000
ENDCHAR
STARTCHAR 0441
ENCODING 1089
SWIDTH 600 0
DWIDTH 10 0
BBX 9 11 0 0
BITMAP
1E00
4100
0000
8080
8000
8000
8000
8080
4100
0000
1E00
ENDCHAR
STARTCHAR 0442
ENCODING 1090
SWIDTH 660 0
DWIDTH 11 0
BBX 9 11 0 0
BITMAP
FF80
0800
0800
0800
0800
0800
0800
0800
0800
0800
0800
ENDCHAR
STARTCHAR 0443
ENCODING 1091
SWIDTH 600 0
DWIDTH 10 0
BBX 9 14 0 -3
BITMAP
8080
8080
8080
4100
4100
4100
1200
1200
0800
0800
0800
1000
0000
C000
ENDCHAR
STARTCHAR 0444
ENCODING 1092
SWIDTH 780 0
DWIDTH 13 0
BBX 12 17 0 -3
BITMAP
0200
0200
0200
3FC0
0200
4220
8210
8210
8210
8210
8210
8210
4220
3FC0
0200
0200
0200
ENDCHAR
STARTCHAR 0445
ENCODING 1093
SWIDTH 600 0
DWIDTH 10 0
BBX 9 11 0 0
BITMAP
8080
4100
0000
1200
0800
0800
0800
1200
4100
0000
8080
ENDCHAR
STARTCHAR 0446
ENCODING 1094
SWIDTH 600 0
DWIDTH 10 0
BBX 9 14 0 -3
BITMAP
8100
8100
8100
8100
8100
8100
8100
8100
8100
8100
FF80
0080
0080
0080
ENDCHAR
STARTCHAR 0447
ENCODING 1095
SWIDTH 540 0
DWIDTH 9 0
BBX 8 11 0 0
BITMAP
81
81
81
81
81
81
87
79
01
01
01
ENDCHAR
STARTCHAR 0448
ENCODING 1096
SWIDTH 600 0
DWIDTH 10 0
BBX 9 11 0 0
BITMAP
8880
8880
8880
8880
8880
8880
8880
8880
8880
8880
FF80
ENDCHAR
STARTCHAR 0449
ENCODING 1097
SWIDTH 720 0
DWIDTH 12 0
BBX 11 14 0 -3
BITMAP
8880
8880
8880
8880
8880
8880
8880
8880
8880
8880
FFE0
0020
0020
0020
ENDCHAR
STARTCHAR 044A
ENCODING 1098
SWIDTH 720 0
DWIDTH 12 0
BBX 11 11 0 0
BITMAP
F000
1000
1000
1000
1FC0
1000
1020
1020
1020
1020
1FC0
ENDCHAR
STARTCHAR 044B
ENCODING 1099
SWIDTH 720 0
DWIDTH 12 0
BBX 11 11 0 0
BITMAP
8020
8020
8020
8020
FE20
8020
8120
8120
8120
8120
FE20
ENDCHAR
STARTCHAR 044C
ENCODING 1100
SWIDTH 540 0
DWIDTH 9 0
BBX 8 11 0 0
BITMAP
80
80
80
80
FE
80
81
81
81
81
FE
ENDCHAR
STARTCHAR 044D
ENCODING 1101
SWIDTH 600 0
DWIDTH 10 0
BBX 9 11 0 0
BITMAP
1E00
4100
0000
8080
0F80
0080
0080
8080
4100
0000
1E00
ENDCHAR
STARTCHAR 044E
ENCODING 1102
SWIDTH 960 0
DWIDTH 16 0
BBX 15 11 0 0
BITMAP
81E0
8200
8000
8806
F806
8806
8806
8806
8200
8000
81E0
ENDCHAR
STARTCHAR 044F
ENCODING 1103
SWIDTH 540 0
DWIDTH 9 0
BBX 8 11 0 0
BITMAP
7F
81
81
81
81
01
7F
11
41
01
81
ENDCHAR
STARTCHAR 0450
ENCODING 1104
SWIDTH 600 0
DWIDTH 10 0
BBX 9 15 0 0
BITMAP
1000
0800
0000
0000
1E00
4100
8080
8080
FF80
8000
8000
8080
4100
0000
1E00
ENDCHAR
STARTCHAR 0451
ENCODING 1105
SWIDTH 600 0
DWIDTH 10 0
BBX 9 14 0 0
BITMAP
1200
0000
0000
1E00
4100
8080
8080
FF80
8000
8000
8080
4100
0000
1E00
ENDCHAR
STARTCHAR 0452
ENCODING 1106
SWIDTH 720 0
DWIDTH 12 0
BBX 11 18 0 -3
BITMAP
1000
1000
FE00
1000
1000
1000
13C0
1C20
1020
1020
1020
1020
1020
1020
1020
0020
0020
01C0
ENDCHAR
STARTCHAR 0453
ENCODING 1107
SWIDTH 480 0
DWIDTH 8 0
BBX 7 15 0 0
BITMAP
08
10
00
00
FE
80
80
80
80
80
80
80
80
80
80
ENDCHAR
STARTCHAR 0454
ENCODING 1108
SWIDTH 600 0
DWIDTH 10 0
BBX 9 11 0 0
BITMAP
1E00
4100
0000
8080
FE00
8000
8000
8080
4100
0000
1E00
ENDCHAR
STARTCHAR 0455
ENCODING 1109
SWIDTH 540 0
DWIDTH 9 0
BBX 8 11 0 0
BITMAP
7E
81
81
80
70
00
0D
01
81
00
7E
ENDCHAR
STARTCHAR 0456
ENCODING 1110
SWIDTH 360 0
DWIDTH 6 0
BBX 1 14 2 0
BITMAP
80
00
00
80
80
80
80
80
80
80
80
80
80
80
ENDCHAR
STARTCHAR 0457
ENCODING 1111
SWIDTH 300 0
DWIDTH 5 0
BBX 4 14 0 0
BITMAP
B0
00
00
40
40
40
40
40
40
40
40
40
40
40
ENDCHAR
STARTCHAR 0458
ENCODING 1112
SWIDTH 360 0
DWIDTH 6 0
BBX 5 16 0 -3
BITMAP
08
00
08
08
08
08
08
08
08
08
08
08
08
88
00
70
ENDCHAR
STARTCHAR 0459
ENCODING 1113
SWIDTH 960 0
DWIDTH 16 0
BBX 15 11 0 0
BITMAP
1FC0
1040
1040
1040
107C
1040
1042
1042
1042
1042
E07C
ENDCHAR
STARTCHAR 045A
ENCODING 1114
SWIDTH 900 0
DWIDTH 15 0
BBX 14 11 0 0
BITMAP
8100
8100
8100
8100
FFF8
8100
8104
8104
8104
8104
81F8
ENDCHAR
STARTCHAR 045B
ENCODING 1115
SWIDTH 720 0
DWIDTH 12 0
BBX 11 15 0 0
BITMAP
1000
FE00
1000
1000
1000
13C0
1000
1C20
1020
1020
1020
1020
1020
1020
1020
ENDCHAR
STARTCHAR 045C
ENCODING 1116
SWIDTH 540 0
DWIDTH 9 0
BBX 8 15 0 0
BITMAP
08
10
00
00
81
82
80
88
F0
90
90
88
82
80
81
ENDCHAR
STARTCHAR 045D
ENCODING 1117
SWIDTH 600 0
DWIDTH 10 0
BBX 9 15 0 0
BITMAP
1000
0800
0000
0000
8080
8180
8080
8280
8880
8880
8880
9080
E080
8080
8080
ENDCHAR
STARTCHAR 045E
ENCODING 1118
SWIDTH 600 0
DWIDTH 10 0
BBX 9 18 0 -3
BITMAP
1100
0000
0E00
0000
8080
8080
8080
4100
4100
4100
1200
1200
0800
0800
0800
1000
0000
C000
ENDCHAR
STARTCHAR 045F
ENCODING 1119
SWIDTH 600 0
DWIDTH 10 0
BBX 9 14 0 -3
BITMAP
8080
8080
8080
8080
8080
8080
8080
8080
8080
8080
FF80
0800
0800
0800
ENDCHAR
STARTCHAR 0490
ENCODING 1168
SWIDTH 540 0
DWIDTH 9 0
BBX 8 18 0 0
BITMAP
01
01
01
FF
80
80
80
80
80
80
80
80
80
80
80
80
80
80
ENDCHAR
STARTCHAR 0491
ENCODING 1169
SWIDTH 480 0
DWIDTH 8 0
BBX 7 14 0 0
BITMAP
02
02
02
FE
80
80
80
80
80
80
80
80
80
80
ENDCHAR
STARTCHAR 04C0
ENCODING 1216
SWIDTH 300 0
DWIDTH 5 0
BBX 4 15 0 0
BITMAP
F0
20
20
20
20
20
20
20
20
20
20
20
20
20
F0
ENDCHAR
STARTCHAR 04C1
ENCODING 1217
SWIDTH 960 0
DWIDTH 16 0
BBX 15 19 0 0
BITMAP
0220
01C0
0000
0000
8102
4104
4104
4104
1110
0920
0100
03C0
0920
0100
1110
4104
4104
4104
8102
ENDCHAR
STARTCHAR 04C2
ENCODING 1218
SWIDTH 780 0
DWIDTH 13 0
BBX 12 15 0 0
BITMAP
0880
0380
0000
0000
8210
4220
4220
4220
1280
0200
0F80
1200
4220
0200
8210
ENDCHAR
STARTCHAR 04CF
ENCODING 1231
SWIDTH 360 0
DWIDTH 6 0
BBX 1 15 2 0
BITMAP
80
80
80
80
80
80
80
80
80
80
80
80
80
80
80
ENDCHAR
STARTCHAR 04D0
ENCODING 1232
SWIDTH 600 0
DWIDTH 10 0
BBX 9 19 0 0
BITMAP
1100
0E00
0000
0000
0800
1200
1200
1200
1200
4100
4100
4100
4100
4100
7F00
8080
8080
8080
8080
ENDCHAR
STARTCHAR 04D1
ENCODING 1233
SWIDTH 540 0
DWIDTH 9 0
BBX 8 15 0 0
BITMAP
42
38
00
00
7E
81
01
01
3F
01
81
81
87
01
79
ENDCHAR
STARTCHAR 04D2
ENCODING 1234
SWIDTH 600 0
DWIDTH 10 0
BBX 9 18 0 0
BITMAP
1200
0000
0000
0800
1200
1200
1200
1200
4100
4100
4100
4100
4100
7F00
8080
8080
8080
8080
ENDCHAR
STARTCHAR 04D3
ENCODING 1235
SWIDTH 540 0
DWIDTH 9 0
BBX 8 14 0 0
BITMAP
42
00
00
7E
81
01
01
3F
01
81
81
87
01
79
ENDCHAR
STARTCHAR 04D4
ENCODING 1236
SWIDTH 840 0
DWIDTH 14 0
BBX 12 15 0 0
BITMAP
0FF0
1200
1200
1200
1200
4200
4200
43F0
4200
4200
7E00
8200
8200
8200
83F0
ENDCHAR
STARTCHAR 04D5
ENCODING 1237
SWIDTH 600 0
DWIDTH 10 0
BBX 9 11 0 0
BITMAP
7700
8880
0880
0880
3F80
0800
8800
8800
8880
0000
7700
ENDCHAR
STARTCHAR 04D6
ENCODING 1238
SWIDTH 600 0
DWIDTH 10 0
BBX 8 19 0 0
BITMAP
42
38
00
00
FF
80
80
80
80
80
80
FF
80
80
80
80
80
80
FF
ENDCHAR
STARTCHAR 04D7
ENCODING 1239
SWIDTH 600 0
DWIDTH 10 0
BBX 9 15 0 0
BITMAP
1100
0E00
0000
0000
1E00
4100
8080
8080
FF80
8000
8000
8080
4100
0000
1E00
ENDCHAR
STARTCHAR 04D8
ENCODING 1240
SWIDTH 720 0
DWIDTH 12 0
BBX 11 15 0 0
BITMAP
3F00
4080
0000
8020
0020
0020
0020
FFE0
8020
8020
8020
8020
4080
0000
3F00
ENDCHAR
STARTCHAR 04D9
ENCODING 1241
SWIDTH 600 0
DWIDTH 10 0
BBX 9 11 0 0
BITMAP
1E00
4100
0000
8080
0080
0080
FF80
8080
4100
0000
1E00
ENDCHAR
STARTCHAR 04DA
ENCODING 1242
SWIDTH 720 0
DWIDTH 12 0
BBX 11 18 0 0
BITMAP
1100
0000
0000
1F00
4080
0000
8020
0020
0020
0020
FFE0
8020
8020
8020
8020
4080
0000
1F00
ENDCHAR
STARTCHAR 04DB
ENCODING 1243
SWIDTH 600 0
DWIDTH 10 0
BBX 9 14 0 0
BITMAP
1200
0000
0000
1E00
4100
0000
8080
0080
0080
FF80
8080
4100
0000
1E00
ENDCHAR
STARTCHAR 04DC
ENCODING 1244
SWIDTH 960 0
DWIDTH 16 0
BBX 15 18 0 0
BITMAP
0280
0000
0000
8102
4104
4104
4104
1110
0920
0100
0380
0920
0100
1110
4104
4104
4104
8102
ENDCHAR
STARTCHAR 04DD
ENCODING 1245
SWIDTH 780 0
DWIDTH 13 0
BBX 12 14 0 0
BITMAP
0900
0000
0000
8210
4220
4220
4220
1280
0200
0F00
1280
4220
0200
8210
ENDCHAR
STARTCHAR 04DE
ENCODING 1246
SWIDTH 720 0
DWIDTH 12 0
BBX 11 18 0 0
BITMAP
1100
0000
0000
1F00
4080
0000
8020
0020
0080
0000
0F00
0080
0020
0020
8020
4080
0000
1F00
ENDCHAR
STARTCHAR 04DF
ENCODING 1247
SWIDTH 540 0
DWIDTH 9 0
BBX 8 14 0 0
BITMAP
42
00
00
7E
81
81
01
1E
01
01
01
81
00
7E
ENDCHAR
STARTCHAR 04E0
ENCODING 1248
SWIDTH 720 0
DWIDTH 12 0
BBX 11 15 0 0
BITMAP
FFE0
0020
0020
0080
0100
0200
0200
0F00
0080
0020
0020
8020
4080
0000
3F00
ENDCHAR
STARTCHAR 04E1
ENCODING 1249
SWIDTH 540 0
DWIDTH 9 0
BBX 8 11 0 0
BITMAP
FF
02
02
08
1E
01
01
01
81
00
7E
ENDCHAR
STARTCHAR 04E2
ENCODING 1250
SWIDTH 600 0
DWIDTH 10 0
BBX 9 18 0 0
BITMAP
7F00
0000
0000
8080
8180
8180
8180
8280
8280
8280
8880
9080
9080
9080
E080
E080
E080
8080
ENDCHAR
STARTCHAR 04E3
ENCODING 1251
SWIDTH 600 0
DWIDTH 10 0
BBX 9 14 0 0
BITMAP
7F00
0000
0000
8080
8180
8080
8280
8880
8880
8880
9080
E080
8080
8080
ENDCHAR
STARTCHAR 04E4
ENCODING 1252
SWIDTH 660 0
DWIDTH 11 0
BBX 9 18 0 0
BITMAP
1200
0000
0000
8080
8180
8180
8180
8280
8280
8280
8880
9080
9080
9080
E080
E080
E080
8080
ENDCHAR
STARTCHAR 04E5
ENCODING 1253
SWIDTH 600 0
DWIDTH 10 0
BBX 9 14 0 0
BITMAP
1200
0000
0000
8080
8180
8080
8280
8880
8880
8880
9080
E080
8080
8080
ENDCHAR
STARTCHAR 04E6
ENCODING 1254
SWIDTH 720 0
DWIDTH 12 0
BBX 11 18 0 0
BITMAP
1100
0000
0000
1F00
4080
8020
8020
8020
8020
8020
8020
8020
8020
8020
8020
4080
0000
1F00
ENDCHAR
STARTCHAR 04E7
ENCODING 1255
SWIDTH 600 0
DWIDTH 10 0
BBX 9 14 0 0
BITMAP
1200
0000
0000
1E00
4100
0000
8080
8080
8080
8080
8080
4100
0000
1E00
ENDCHAR
STARTCHAR 04E8
ENCODING 1256
SWIDTH 720 0
DWIDTH 12 0
BBX 11 15 0 0
BITMAP
3F00
4080
8020
8020
8020
8020
8020
FFE0
8020
8020
8020
8020
4080
0000
3F00
ENDCHAR
STARTCHAR 04E9
ENCODING 1257
SWIDTH 600 0
DWIDTH 10 0
BBX 9 11 0 0
BITMAP
1E00
4100
0000
8080
FF80
8080
8080
8080
4100
0000
1E00
ENDCHAR
STARTCHAR 04EA
ENCODING 1258
SWIDTH 720 0
DWIDTH 12 0
BBX 11 18 0 0
BITMAP
1100
0000
0000
1F00
4080
8020
8020
8020
8020
8020
FFE0
8020
8020
8020
8020
4080
0000
1F00
ENDCHAR
STARTCHAR 04EB
ENCODING 1259
SWIDTH 600 0
DWIDTH 10 0
BBX 9 14 0 0
BITMAP
1200
0000
0000
1E00
4100
0000
8080
FF80
8080
8080
8080
4100
0000
1E00
ENDCHAR
STARTCHAR 04EC
ENCODING 1260
SWIDTH 720 0
DWIDTH 12 0
BBX 11 18 0 0
BITMAP
1100
0000
0000
1F00
4080
0000
8020
0020
0020
0020
0FE0
0020
0020
0020
8020
4080
0000
1F00
ENDCHAR
STARTCHAR 04ED
ENCODING 1261
SWIDTH 600 0
DWIDTH 10 0
BBX 9 14 0 0
BITMAP
1200
0000
0000
1E00
4100
0000
8080
0F80
0080
0080
8080
4100
0000
1E00
ENDCHAR
STARTCHAR 04EE
ENCODING 1262
SWIDTH 600 0
DWIDTH 10 0
BBX 9 18 0 0
BITMAP
7F00
0000
0000
8080
8080
8080
4100
4100
1200
1200
1200
0800
0800
0800
0800
1000
0000
C000
ENDCHAR
STARTCHAR 04EF
ENCODING 1263
SWIDTH 600 0
DWIDTH 10 0
BBX 9 16 0 -3
BITMAP
7F00
0000
8080
8080
8080
4100
4100
4100
1200
1200
0800
0800
0800
1000
0000
C000
ENDCHAR
STARTCHAR 04F0
ENCODING 1264
SWIDTH 600 0
DWIDTH 10 0
BBX 9 18 0 0
BITMAP
1200
0000
0000
8080
8080
8080
4100
4100
1200
1200
1200
0800
0800
0800
0800
1000
0000
C000
ENDCHAR
STARTCHAR 04F1
ENCODING 1265
SWIDTH 600 0
DWIDTH 10 0
BBX 9 16 0 -3
BITMAP
1200
0000
8080
8080
8080
4100
4100
4100
1200
1200
0800
0800
0800
1000
0000
C000
ENDCHAR
STARTCHAR 04F2
ENCODING 1266
SWIDTH 600 0
DWIDTH 10 0
BBX 9 18 0 0
BITMAP
0900
0000
1200
8080
8080
8080
4100
4100
1200
1200
1200
0800
0800
0800
0800
1000
0000
C000
ENDCHAR
STARTCHAR 04F3
ENCODING 1267
SWIDTH 600 0
DWIDTH 10 0
BBX 9 16 0 -3
BITMAP
0900
1200
8080
8080
8080
4100
4100
4100
1200
1200
0800
0800
0800
1000
0000
C000
ENDCHAR
STARTCHAR 04F4
ENCODING 1268
SWIDTH 600 0
DWIDTH 10 0
BBX 9 18 0 0
BITMAP
1200
0000
0000
8080
8080
8080
8080
8080
8080
8080
4180
1E80
0080
0080
0080
0080
0080
0080
ENDCHAR
STARTCHAR 04F5
ENCODING 1269
SWIDTH 540 0
DWIDTH 9 0
BBX 8 14 0 0
BITMAP
42
00
00
81
81
81
81
81
81
87
79
01
01
01
ENDCHAR
STARTCHAR 04F8
ENCODING 1272
SWIDTH 780 0
DWIDTH 13 0
BBX 12 16 0 0
BITMAP
0900
8010
8010
8010
8010
8010
FE10
8010
8110
8090
8090
8090
8090
8110
8010
FE10
ENDCHAR
STARTCHAR 04F9
ENCODING 1273
SWIDTH 720 0
DWIDTH 12 0
BBX 11 14 0 0
BITMAP
1100
0000
0000
8020
8020
8020
8020
FE20
8020
8120
8120
8120
8120
FE20
ENDCHAR
STARTCHAR 1EF2
ENCODING 7922
SWIDTH 600 0
DWIDTH 10 0
BBX 9 18 0 0
BITMAP
1000
0000
0800
8080
8080
8080
4100
4100
1200
1200
1200
0800
0800
0800
0800
0800
0800
0800
ENDCHAR
STARTCHAR 1EF3
ENCODING 7923
SWIDTH 600 0
DWIDTH 10 0
BBX 9 16 0 -3
BITMAP
1000
0800
8080
8080
8080
4100
4100
4100
1200
1200
0800
0800
0800
1000
0000
C000
ENDCHAR
STARTCHAR 2010
ENCODING 8208
SWIDTH 480 0
DWIDTH 8 0
BBX 7 1 0 7
BITMAP
FE
ENDCHAR
STARTCHAR 2011
ENCODING 8209
SWIDTH 480 0
DWIDTH 8 0
BBX 7 1 0 7
BITMAP
FE
ENDCHAR
STARTCHAR 2012
ENCODING 8210
SWIDTH 660 0
DWIDTH 11 0
BBX 10 1 0 7
BITMAP
FFC0
ENDCHAR
STARTCHAR 2013
ENCODING 8211
SWIDTH 600 0
DWIDTH 10 0
BBX 9 1 0 7
BITMAP
FF80
ENDCHAR
STARTCHAR 2014
ENCODING 8212
SWIDTH 1020 0
DWIDTH 17 0
BBX 16 1 0 7
BITMAP
FFFF
ENDCHAR
STARTCHAR 2015
ENCODING 8213
SWIDTH 1020 0
DWIDTH 17 0
BBX 16 1 0 7
BITMAP
FFFF
ENDCHAR
STARTCHAR 2016
ENCODING 8214
SWIDTH 300 0
DWIDTH 5 0
BBX 4 15 0 0
BITMAP
90
90
90
90
90
90
90
90
90
90
90
90
90
90
90
ENDCHAR
STARTCHAR 2017
ENCODING 8215
SWIDTH 600 0
DWIDTH 10 0
BBX 9 4 0 0
BITMAP
FF80
0000
0000
FF80
ENDCHAR
STARTCHAR 2018
ENCODING 8216
SWIDTH 300 0
DWIDTH 5 0
BBX 2 4 2 11
BITMAP
40
80
80
80
ENDCHAR
STARTCHAR 2019
ENCODING 8217
SWIDTH 300 0
DWIDTH 5 0
BBX 2 4 0 11
BITMAP
40
40
40
80
ENDCHAR
STARTCHAR 201A
ENCODING 8218
SWIDTH 300 0
DWIDTH 5 0
BBX 2 4 0 -1
BITMAP
40
40
40
80
ENDCHAR
STARTCHAR 201B
ENCODING 8219
SWIDTH 300 0
DWIDTH 5 0
BBX 2 4 2 11
BITMAP
80
80
80
40
ENDCHAR
STARTCHAR 201C
ENCODING 8220
SWIDTH 480 0
DWIDTH 8 0
BBX 5 4 2 11
BITMAP
48
90
90
90
ENDCHAR
STARTCHAR 201D
ENCODING 8221
SWIDTH 480 0
DWIDTH 8 0
BBX 5 4 0 11
BITMAP
48
48
48
90
ENDCHAR
STARTCHAR 201E
ENCODING 8222
SWIDTH 480 0
DWIDTH 8 0
BBX 5 4 0 -1
BITMAP
48
48
48
90
ENDCHAR
STARTCHAR 201F
ENCODING 8223
SWIDTH 480 0
DWIDTH 8 0
BBX 5 4 2 11
BITMAP
90
90
90
48
ENDCHAR
STARTCHAR 2020
ENCODING 8224
SWIDTH 480 0
DWIDTH 8 0
BBX 7 15 0 0
BITMAP
10
10
10
10
FE
10
10
10
10
10
10
10
10
10
10
ENDCHAR
STARTCHAR 2021
ENCODING 8225
SWIDTH 480 0
DWIDTH 8 0
BBX 7 15 0 0
BITMAP
10
10
10
FE
10
10
10
10
10
10
10
FE
10
10
10
ENDCHAR
STARTCHAR 2022
ENCODING 8226
SWIDTH 420 0
DWIDTH 7 0
BBX 6 6 0 4
BITMAP
38
38
FC
FC
FC
38
ENDCHAR
STARTCHAR 2023
ENCODING 8227
SWIDTH 420 0
DWIDTH 7 0
BBX 4 7 2 4
BITMAP
80
80
E0
F0
E0
E0
80
ENDCHAR
STARTCHAR 2024
ENCODING 8228
SWIDTH 360 0
DWIDTH 6 0
BBX 1 1 2 0
BITMAP
80
ENDCHAR
STARTCHAR 2025
ENCODING 8229
SWIDTH 840 0
DWIDTH 14 0
BBX 8 1 3 7
BITMAP
81
ENDCHAR
STARTCHAR 2026
ENCODING 8230
SWIDTH 840 0
DWIDTH 14 0
BBX 9 1 2 7
BITMAP
8880
ENDCHAR
STARTCHAR 2027
ENCODING 8231
SWIDTH 360 0
DWIDTH 6 0
BBX 1 1 2 7
BITMAP
80
ENDCHAR
STARTCHAR 2030
ENCODING 8240
SWIDTH 1020 0
DWIDTH 17 0
BBX 16 12 0 2
BITMAP
7010
0000
8820
8880
7100
0000
0200
08EE
0000
1111
4111
80EE
ENDCHAR
STARTCHAR 2031
ENCODING 8241
SWIDTH 1260 0
DWIDTH 21 0
BBX 20 12 0 2
BITMAP
701000
000000
882000
888000
710000
000000
020000
08EEE0
000000
111110
411110
80EEE0
ENDCHAR
STARTCHAR 2032
ENCODING 8242
SWIDTH 300 0
DWIDTH 5 0
BBX 2 4 0 11
BITMAP
40
40
40
80
ENDCHAR
STARTCHAR 2033
ENCODING 8243
SWIDTH 480 0
DWIDTH 8 0
BBX 5 4 0 11
BITMAP
48
48
48
90
ENDCHAR
STARTCHAR 2034
ENCODING 8244
SWIDTH 660 0
DWIDTH 11 0
BBX 8 4 0 11
BITMAP
49
49
49
92
ENDCHAR
STARTCHAR 2035
ENCODING 8245
SWIDTH 300 0
DWIDTH 5 0
BBX 2 4 2 11
BITMAP
80
80
80
40
ENDCHAR
STARTCHAR 2036
ENCODING 8246
SWIDTH 480 0
DWIDTH 8 0
BBX 5 4 2 11
BITMAP
90
90
90
48
ENDCHAR
STARTCHAR 2037
ENCODING 8247
SWIDTH 660 0
DWIDTH 11 0
BBX 8 4 2 11
BITMAP
92
92
92
49
ENDCHAR
STARTCHAR 2038
ENCODING 8248
SWIDTH 480 0
DWIDTH 8 0
BBX 7 4 0 0
BITMAP
10
48
00
82
ENDCHAR
STARTCHAR 2039
ENCODING 8249
SWIDTH 300 0
DWIDTH 5 0
BBX 4 7 0 3
BITMAP
30
00
40
80
00
40
30
ENDCHAR
STARTCHAR 203A
ENCODING 8250
SWIDTH 300 0
DWIDTH 5 0
BBX 4 7 0 3
BITMAP
80
00
40
30
00
40
80
ENDCHAR
STARTCHAR 203B
ENCODING 8251
SWIDTH 1020 0
DWIDTH 17 0
BBX 12 12 2 2
BITMAP
8210
0200
4220
1080
0900
0000
C230
0900
0000
1080
4220
8210
ENDCHAR
STARTCHAR 203C
ENCODING 8252
SWIDTH 600 0
DWIDTH 10 0
BBX 5 15 2 0
BITMAP
88
88
88
88
88
88
88
88
88
88
88
00
88
88
88
ENDCHAR
STARTCHAR 203D
ENCODING 8253
SWIDTH 480 0
DWIDTH 8 0
BBX 7 15 0 0
BITMAP
78
82
92
92
12
18
10
10
10
10
10
00
10
10
10
ENDCHAR
STARTCHAR 2043
ENCODING 8259
SWIDTH 420 0
DWIDTH 7 0
BBX 6 1 0 7
BITMAP
FC
ENDCHAR
STARTCHAR 2044
ENCODING 8260
SWIDTH 480 0
DWIDTH 8 0
BBX 7 15 0 0
BITMAP
02
02
02
08
08
10
10
10
10
40
40
40
80
80
80
ENDCHAR
STARTCHAR 2045
ENCODING 8261
SWIDTH 300 0
DWIDTH 5 0
BBX 4 15 0 0
BITMAP
F0
80
80
80
80
80
80
F0
80
80
80
80
80
80
F0
ENDCHAR
STARTCHAR 2046
ENCODING 8262
SWIDTH 360 0
DWIDTH 6 0
BBX 4 15 0 0
BITMAP
F0
10
10
10
10
10
10
F0
10
10
10
10
10
10
F0
ENDCHAR
STARTCHAR 2047
ENCODING 8263
SWIDTH 960 0
DWIDTH 16 0
BBX 15 15 0 0
BITMAP
783C
8282
8282
8282
0202
0804
0000
1010
1010
1010
1010
0000
1010
1010
1010
ENDCHAR
STARTCHAR 2048
ENCODING 8264
SWIDTH 840 0
DWIDTH 14 0
BBX 11 15 0 0
BITMAP
7820
8220
8220
8220
0220
0820
0020
1020
1020
1020
1020
0000
1020
1020
1020
ENDCHAR
STARTCHAR 2049
ENCODING 8265
SWIDTH 840 0
DWIDTH 14 0
BBX 11 15 2 0
BITMAP
8780
8820
8820
8820
8020
8080
8000
8100
8100
8100
8100
0000
8100
8100
8100
ENDCHAR
STARTCHAR 204B
ENCODING 8267
SWIDTH 600 0
DWIDTH 10 0
BBX 8 15 0 0
BITMAP
FE
9F
9F
9F
9F
9E
90
90
90
90
90
90
90
90
90
ENDCHAR
STARTCHAR 2057
ENCODING 8279
SWIDTH 840 0
DWIDTH 14 0
BBX 11 4 0 11
BITMAP
4920
4920
4920
9280
ENDCHAR
STARTCHAR 20A1
ENCODING 8353
SWIDTH 600 0
DWIDTH 10 0
BBX 9 15 0 0
BITMAP
0100
1E00
0200
4300
8280
8800
8800
8800
8800
8000
9080
7100
1E00
0000
4000
ENDCHAR
STARTCHAR 20A4
ENCODING 8356
SWIDTH 720 0
DWIDTH 12 0
BBX 11 12 0 2
BITMAP
0F00
1080
1080
1080
1000
7F00
0800
0800
7820
0820
8820
7780
ENDCHAR
STARTCHAR 20A9
ENCODING 8361
SWIDTH 1020 0
DWIDTH 17 0
BBX 16 13 0 1
BITMAP
2084
2084
2084
FFFF
2084
2084
FFFF
1248
1248
1248
0420
0420
0420
ENDCHAR
STARTCHAR 20AC
ENCODING 8364
SWIDTH 720 0
DWIDTH 12 0
BBX 11 12 0 2
BITMAP
0FC0
0000
1020
2000
2000
FF00
2000
FF00
2000
2000
1020
0FC0
ENDCHAR
STARTCHAR 20B1
ENCODING 8369
SWIDTH 840 0
DWIDTH 14 0
BBX 13 15 0 0
BITMAP
3F80
2040
2040
FFF8
2020
FFF8
2040
2040
3F80
2000
2000
2000
2000
2000
2000
ENDCHAR
STARTCHAR 20B9
ENCODING 8377
SWIDTH 660 0
DWIDTH 11 0
BBX 10 15 0 0
BITMAP
FFC0
0C00
0E00
0200
FFC0
0200
0200
0C00
F000
6000
6000
1000
0C00
0C00
0200
ENDCHAR
STARTCHAR 20BD
ENCODING 8381
SWIDTH 840 0
DWIDTH 14 0
BBX 11 15 0 0
BITMAP
3F80
2040
2000
2020
2020
2020
2020
2040
FF80
2000
2000
FE00
2000
2000
2000
ENDCHAR
STARTCHAR 2103
ENCODING 8451
SWIDTH 1020 0
DWIDTH 17 0
BBX 15 15 0 0
BITMAP
6000
91F8
6204
6204
0C02
0C00
0C00
0C00
0C00
0C00
0C00
0C02
0204
0000
01F8
ENDCHAR
STARTCHAR 2109
ENCODING 8457
SWIDTH 900 0
DWIDTH 15 0
BBX 14 15 0 0
BITMAP
6000
93FC
93FC
6200
0200
0200
0200
03FC
0200
0200
0200
0200
0200
0200
0200
ENDCHAR
STARTCHAR 2116
ENCODING 8470
SWIDTH 1020 0
DWIDTH 17 0
BBX 15 15 0 0
BITMAP
8200
8200
E200
E200
E238
9244
9244
9244
9244
8E44
8E44
8E44
8244
8200
823A
ENDCHAR
STARTCHAR 2121
ENCODING 8481
SWIDTH 1020 0
DWIDTH 17 0
BBX 16 15 0 0
BITMAP
F3C8
2208
2208
2208
2208
2208
2208
23C8
2208
2208
2208
2208
2208
2208
23CF
ENDCHAR
STARTCHAR 2122
ENCODING 8482
SWIDTH 1020 0
DWIDTH 17 0
BBX 15 6 0 9
BITMAP
FE42
106E
106E
1052
1042
1042
ENDCHAR
STARTCHAR 2150
ENCODING 8528
SWIDTH 1020 0
DWIDTH 17 0
BBX 14 15 2 0
BITMAP
C000
4010
4000
4020
4080
4100
4000
42FC
0804
0000
1010
4010
8020
8020
0020
ENDCHAR
STARTCHAR 2151
ENCODING 8529
SWIDTH 1020 0
DWIDTH 17 0
BBX 14 15 2 0
BITMAP
C000
4010
4000
4020
4080
4100
4000
4230
0884
0084
1084
407C
8004
0000
0030
ENDCHAR
STARTCHAR 2152
ENCODING 8530
SWIDTH 1020 0
DWIDTH 17 0
BBX 14 15 2 0
BITMAP
C000
4010
4000
4020
4080
4100
4000
4200
0910
0100
1124
4124
8124
0100
0110
ENDCHAR
STARTCHAR 2153
ENCODING 8531
SWIDTH 1020 0
DWIDTH 17 0
BBX 14 15 2 0
BITMAP
C000
4010
4000
4020
4080
4100
4000
42F0
0804
0000
1030
4004
8004
0000
00F0
ENDCHAR
STARTCHAR 2154
ENCODING 8532
SWIDTH 960 0
DWIDTH 16 0
BBX 15 15 0 0
BITMAP
F000
0804
0000
1010
4020
8080
8000
F93C
0202
0000
081C
1002
4002
0000
003C
ENDCHAR
STARTCHAR 2155
ENCODING 8533
SWIDTH 1020 0
DWIDTH 17 0
BBX 14 15 2 0
BITMAP
C000
4010
4000
4020
4080
4100
4000
42FC
0880
0080
10F8
4004
8004
0000
00F0
ENDCHAR
STARTCHAR 2156
ENCODING 8534
SWIDTH 960 0
DWIDTH 16 0
BBX 15 15 0 0
BITMAP
F000
0804
0000
1010
4020
8080
8000
F93E
0220
0020
083C
1002
4002
0000
003C
ENDCHAR
STARTCHAR 2157
ENCODING 8535
SWIDTH 960 0
DWIDTH 16 0
BBX 15 15 0 0
BITMAP
F000
0804
0000
3010
0820
0840
0000
F13E
0220
0020
083C
1002
2002
0000
003C
ENDCHAR
STARTCHAR 2158
ENCODING 8536
SWIDTH 960 0
DWIDTH 16 0
BBX 15 15 0 0
BITMAP
0800
1804
0800
4810
8820
FE80
0800
093E
0220
0020
083C
1002
4002
0000
003C
ENDCHAR
STARTCHAR 2159
ENCODING 8537
SWIDTH 1020 0
DWIDTH 17 0
BBX 14 15 2 0
BITMAP
C000
4010
4000
4020
4080
4100
4000
4230
0880
0080
10F8
4084
8084
0000
0030
ENDCHAR
STARTCHAR 215A
ENCODING 8538
SWIDTH 960 0
DWIDTH 16 0
BBX 15 15 0 0
BITMAP
F800
8004
8000
F010
0820
0880
0000
F11C
0220
0020
083C
1022
4022
0000
001C
ENDCHAR
STARTCHAR 215B
ENCODING 8539
SWIDTH 1020 0
DWIDTH 17 0
BBX 14 15 2 0
BITMAP
C000
4010
4000
4020
4080
4100
4000
4230
0884
0000
1030
4084
8084
0000
0030
ENDCHAR
STARTCHAR 215C
ENCODING 8540
SWIDTH 960 0
DWIDTH 16 0
BBX 15 15 0 0
BITMAP
F000
0804
0000
3010
0820
0840
0000
F11C
0222
0000
081C
1022
2022
0000
001C
ENDCHAR
STARTCHAR 215D
ENCODING 8541
SWIDTH 960 0
DWIDTH 16 0
BBX 15 15 0 0
BITMAP
F800
8004
8000
F010
0820
0880
0000
F11C
0222
0000
081C
1022
4022
0000
001C
ENDCHAR
STARTCHAR 215E
ENCODING 8542
SWIDTH 1020 0
DWIDTH 17 0
BBX 14 15 2 0
BITMAP
F800
0810
0000
1020
1080
4100
4000
4230
0884
0000
1030
4084
8084
0000
0030
ENDCHAR
STARTCHAR 215F
ENCODING 8543
SWIDTH 1020 0
DWIDTH 17 0
BBX 12 13 2 2
BITMAP
C000
4010
4000
4020
4080
4100
4000
4200
0800
0000
1000
4000
8000
ENDCHAR
STARTCHAR 2160
ENCODING 8544
SWIDTH 300 0
DWIDTH 5 0
BBX 4 15 0 0
BITMAP
F0
20
20
20
20
20
20
20
20
20
20
20
20
20
F0
ENDCHAR
STARTCHAR 2161
ENCODING 8545
SWIDTH 540 0
DWIDTH 9 0
BBX 7 15 0 0
BITMAP
FE
24
24
24
24
24
24
24
24
24
24
24
24
24
FE
ENDCHAR
STARTCHAR 2162
ENCODING 8546
SWIDTH 720 0
DWIDTH 12 0
BBX 10 15 0 0
BITMAP
FFC0
2480
2480
2480
2480
2480
2480
2480
2480
2480
2480
2480
2480
2480
FFC0
ENDCHAR
STARTCHAR 2163
ENCODING 8547
SWIDTH 900 0
DWIDTH 15 0
BBX 14 15 0 0
BITMAP
F804
2804
2804
2804
2210
2210
2210
2210
2120
2120
2120
2120
2040
2040
F040
ENDCHAR
STARTCHAR 2164
ENCODING 8548
SWIDTH 600 0
DWIDTH 10 0
BBX 9 15 0 0
BITMAP
8080
8080
8080
8080
4100
4100
4100
4100
1200
1200
1200
1200
0800
0800
0800
ENDCHAR
STARTCHAR 2165
ENCODING 8549
SWIDTH 900 0
DWIDTH 15 0
BBX 14 15 0 0
BITMAP
80FC
8090
8090
8090
4110
4110
4110
4110
1210
1210
1210
1210
0810
0810
083C
ENDCHAR
STARTCHAR 2166
ENCODING 8550
SWIDTH 1080 0
DWIDTH 18 0
BBX 16 15 0 0
BITMAP
80FF
8092
8092
8092
4112
4112
4112
4112
1212
1212
1212
1212
0812
0812
087F
ENDCHAR
STARTCHAR 2167
ENCODING 8551
SWIDTH 1260 0
DWIDTH 21 0
BBX 19 15 0 0
BITMAP
80FFE0
809240
809240
809240
411240
411240
411240
411240
121240
121240
121240
121240
081240
081240
087FE0
ENDCHAR
STARTCHAR 2168
ENCODING 8552
SWIDTH 900 0
DWIDTH 15 0
BBX 14 15 0 0
BITMAP
FC04
2208
2208
2208
20A0
20A0
20A0
2040
20A0
20A0
20A0
2208
2208
2208
FC04
ENDCHAR
STARTCHAR 2169
ENCODING 8553
SWIDTH 600 0
DWIDTH 10 0
BBX 9 15 0 0
BITMAP
8080
4100
4100
4100
1200
1200
1200
0800
1200
1200
1200
4100
4100
4100
8080
ENDCHAR
STARTCHAR 216A
ENCODING 8554
SWIDTH 900 0
DWIDTH 15 0
BBX 14 15 0 0
BITMAP
80FC
4110
4110
4110
1210
1210
1210
0810
1210
1210
1210
4110
4110
4110
80FC
ENDCHAR
STARTCHAR 216B
ENCODING 8555
SWIDTH 1080 0
DWIDTH 18 0
BBX 16 15 0 0
BITMAP
80FF
4112
4112
4112
1212
1212
1212
0812
1212
1212
1212
4112
4112
4112
80FF
ENDCHAR
STARTCHAR 216C
ENCODING 8556
SWIDTH 600 0
DWIDTH 10 0
BBX 8 15 0 0
BITMAP
80
80
80
80
80
80
80
80
80
80
80
80
80
80
FF
ENDCHAR
STARTCHAR 216D
ENCODING 8557
SWIDTH 720 0
DWIDTH 12 0
BBX 11 15 0 0
BITMAP
3F00
4080
0000
8020
8000
8000
8000
8000
8000
8000
8000
8020
4080
0000
3F00
ENDCHAR
STARTCHAR 216E
ENCODING 8558
SWIDTH 600 0
DWIDTH 10 0
BBX 9 15 0 0
BITMAP
FE00
8100
8080
8080
8080
8080
8080
8080
8080
8080
8080
8080
8100
8000
FE00
ENDCHAR
STARTCHAR 216F
ENCODING 8559
SWIDTH 780 0
DWIDTH 13 0
BBX 12 15 0 0
BITMAP
8010
E070
E070
E070
9090
9090
9090
9090
8910
8910
8910
8910
8210
8210
8210
ENDCHAR
STARTCHAR 2170
ENCODING 8560
SWIDTH 360 0
DWIDTH 6 0
BBX 1 14 2 0
BITMAP
80
00
00
80
80
80
80
80
80
80
80
80
80
80
ENDCHAR
STARTCHAR 2171
ENCODING 8561
SWIDTH 300 0
DWIDTH 5 0
BBX 4 14 0 0
BITMAP
90
00
00
90
90
90
90
90
90
90
90
90
90
90
ENDCHAR
STARTCHAR 2172
ENCODING 8562
SWIDTH 480 0
DWIDTH 8 0
BBX 7 14 0 0
BITMAP
92
00
00
92
92
92
92
92
92
92
92
92
92
92
ENDCHAR
STARTCHAR 2173
ENCODING 8563
SWIDTH 780 0
DWIDTH 13 0
BBX 12 14 0 0
BITMAP
8000
0000
0000
9010
9010
9010
8820
8820
8280
8280
8280
8100
8100
8100
ENDCHAR
STARTCHAR 2174
ENCODING 8564
SWIDTH 600 0
DWIDTH 10 0
BBX 9 11 0 0
BITMAP
8080
8080
8080
4100
4100
1200
1200
1200
0800
0800
0800
ENDCHAR
STARTCHAR 2175
ENCODING 8565
SWIDTH 780 0
DWIDTH 13 0
BBX 12 14 0 0
BITMAP
0010
0000
0000
8090
8090
8090
4110
4110
1210
1210
1210
0810
0810
0810
ENDCHAR
STARTCHAR 2176
ENCODING 8566
SWIDTH 960 0
DWIDTH 16 0
BBX 15 14 0 0
BITMAP
0012
0000
0000
8092
8092
8092
4112
4112
1212
1212
1212
0812
0812
0812
ENDCHAR
STARTCHAR 2177
ENCODING 8567
SWIDTH 1140 0
DWIDTH 19 0
BBX 18 14 0 0
BITMAP
001240
000000
000000
809240
809240
809240
411240
411240
121240
121240
121240
081240
081240
081240
ENDCHAR
STARTCHAR 2178
ENCODING 8568
SWIDTH 780 0
DWIDTH 13 0
BBX 12 14 0 0
BITMAP
8000
0000
0000
9010
8820
8000
8280
8100
8100
8100
8280
8820
8000
9010
ENDCHAR
STARTCHAR 2179
ENCODING 8569
SWIDTH 600 0
DWIDTH 10 0
BBX 9 11 0 0
BITMAP
8080
4100
0000
1200
0800
0800
0800
1200
4100
0000
8080
ENDCHAR
STARTCHAR 217A
ENCODING 8570
SWIDTH 780 0
DWIDTH 13 0
BBX 12 14 0 0
BITMAP
0010
0000
0000
8090
4110
0010
1210
0810
0810
0810
1210
4110
0010
8090
ENDCHAR
STARTCHAR 217B
ENCODING 8571
SWIDTH 960 0
DWIDTH 16 0
BBX 15 14 0 0
BITMAP
0012
0000
0000
8092
4112
0012
1212
0812
0812
0812
1212
4112
0012
8092
ENDCHAR
STARTCHAR 217C
ENCODING 8572
SWIDTH 360 0
DWIDTH 6 0
BBX 1 15 2 0
BITMAP
80
80
80
80
80
80
80
80
80
80
80
80
80
80
80
ENDCHAR
STARTCHAR 217D
ENCODING 8573
SWIDTH 540 0
DWIDTH 9 0
BBX 8 11 0 0
BITMAP
1E
41
00
80
80
80
80
80
41
00
1E
ENDCHAR
STARTCHAR 217E
ENCODING 8574
SWIDTH 600 0
DWIDTH 10 0
BBX 9 15 0 0
BITMAP
0080
0080
0080
0080
1E80
4180
0080
8080
8080
8080
8080
8080
4180
0080
1E80
ENDCHAR
STARTCHAR 217F
ENCODING 8575
SWIDTH 780 0
DWIDTH 13 0
BBX 12 11 0 0
BITMAP
B8E0
C310
8210
8210
8210
8210
8210
8210
8210
8210
8210
ENDCHAR
STARTCHAR 2180
ENCODING 8576
SWIDTH 960 0
DWIDTH 16 0
BBX 15 15 0 0
BITMAP
3FF8
4104
8102
8102
8102
8102
8102
8102
8102
8102
8102
8102
4104
0100
3FF8
ENDCHAR
STARTCHAR 2181
ENCODING 8577
SWIDTH 960 0
DWIDTH 16 0
BBX 9 15 3 0
BITMAP
FE00
8100
8000
FC80
8280
8280
8280
8280
8280
8280
8280
FC80
8100
8000
FE00
ENDCHAR
STARTCHAR 2182
ENCODING 8578
SWIDTH 960 0
DWIDTH 16 0
BBX 15 15 0 0
BITMAP
1FF0
4104
0100
8FE2
9112
9112
9112
9112
9112
9112
9112
8FE2
4104
0100
1FF0
ENDCHAR
STARTCHAR 2189
ENCODING 8585
SWIDTH 960 0
DWIDTH 16 0
BBX 15 15 0 0
BITMAP
7000
8804
8800
8810
8820
8880
0000
713C
0202
0000
081C
1002
4002
0000
003C
ENDCHAR
STARTCHAR 2190
ENCODING 8592
SWIDTH 1020 0
DWIDTH 17 0
BBX 13 10 1 3
BITMAP
0400
0400
1800
2000
2000
FFF8
2000
1800
1800
0400
ENDCHAR
STARTCHAR 2191
ENCODING 8593
SWIDTH 1020 0
DWIDTH 17 0
BBX 10 13 3 1
BITMAP
0800
1E00
1E00
6900
88C0
88C0
0800
0800
0800
0800
0800
0800
0800
ENDCHAR
STARTCHAR 2192
ENCODING 8594
SWIDTH 1020 0
DWIDTH 17 0
BBX 13 10 1 3
BITMAP
0180
0180
0040
0030
0030
FFF8
0030
0040
0040
0180
ENDCHAR
STARTCHAR 2193
ENCODING 8595
SWIDTH 1020 0
DWIDTH 17 0
BBX 10 13 3 1
BITMAP
0800
0800
0800
0800
0800
0800
0800
88C0
6900
6900
1E00
0800
0800
ENDCHAR
STARTCHAR 2194
ENCODING 8596
SWIDTH 1020 0
DWIDTH 17 0
BBX 15 10 0 3
BITMAP
0C20
0C20
1018
600C
600C
FFFE
600C
1018
1018
0C20
ENDCHAR
STARTCHAR 2195
ENCODING 8597
SWIDTH 1020 0
DWIDTH 17 0
BBX 10 15 3 0
BITMAP
0800
1E00
6900
6900
88C0
0800
0800
0800
0800
0800
88C0
6900
1E00
0800
0800
ENDCHAR
STARTCHAR 2196
ENCODING 8598
SWIDTH 1020 0
DWIDTH 17 0
BBX 9 9 3 3
BITMAP
FE00
E000
9000
8C00
8C00
8200
0100
0100
0080
ENDCHAR
STARTCHAR 2197
ENCODING 8599
SWIDTH 1020 0
DWIDTH 17 0
BBX 9 9 3 3
BITMAP
1F80
0180
0280
0C80
0C80
1080
6000
6000
8000
ENDCHAR
STARTCHAR 2198
ENCODING 8600
SWIDTH 1020 0
DWIDTH 17 0
BBX 9 9 3 3
BITMAP
8000
6000
1080
0C80
0C80
0280
0180
0180
1F80
ENDCHAR
STARTCHAR 2199
ENCODING 8601
SWIDTH 1020 0
DWIDTH 17 0
BBX 9 9 3 3
BITMAP
0080
0100
8200
8C00
8C00
9000
E000
E000
FE00
ENDCHAR
STARTCHAR 219A
ENCODING 8602
SWIDTH 1020 0
DWIDTH 17 0
BBX 13 7 1 4
BITMAP
1800
2040
2040
FFF8
2180
0000
1800
ENDCHAR
STARTCHAR 219B
ENCODING 8603
SWIDTH 1020 0
DWIDTH 17 0
BBX 13 7 1 4
BITMAP
0040
0430
0430
FFF8
1830
0000
0040
ENDCHAR
STARTCHAR 219C
ENCODING 8604
SWIDTH 1020 0
DWIDTH 17 0
BBX 14 5 2 6
BITMAP
F800
C0E0
9110
9110
8E0C
ENDCHAR
STARTCHAR 219D
ENCODING 8605
SWIDTH 1020 0
DWIDTH 17 0
BBX 14 5 0 6
BITMAP
00FC
1C1C
6224
6224
81C4
ENDCHAR
STARTCHAR 219E
ENCODING 8606
SWIDTH 1020 0
DWIDTH 17 0
BBX 13 7 1 4
BITMAP
1A00
2400
2400
FFF8
2400
0000
1A00
ENDCHAR
STARTCHAR 219F
ENCODING 8607
SWIDTH 1020 0
DWIDTH 17 0
BBX 7 13 4 1
BITMAP
10
7C
7C
92
7C
7C
92
10
10
10
10
10
10
ENDCHAR
STARTCHAR 21A0
ENCODING 8608
SWIDTH 1020 0
DWIDTH 17 0
BBX 13 7 1 4
BITMAP
0240
01B0
01B0
FFF8
01B0
0000
0240
ENDCHAR
STARTCHAR 21A1
ENCODING 8609
SWIDTH 1020 0
DWIDTH 17 0
BBX 7 13 4 1
BITMAP
10
10
10
10
10
10
92
7C
92
92
7C
10
10
ENDCHAR
STARTCHAR 21A2
ENCODING 8610
SWIDTH 1020 0
DWIDTH 17 0
BBX 13 7 1 4
BITMAP
1008
2030
2030
FFC0
2030
0000
1008
ENDCHAR
STARTCHAR 21A3
ENCODING 8611
SWIDTH 1020 0
DWIDTH 17 0
BBX 12 7 2 4
BITMAP
8080
4060
4060
3FF0
4060
4060
8080
ENDCHAR
STARTCHAR 21A4
ENCODING 8612
SWIDTH 1020 0
DWIDTH 17 0
BBX 13 7 1 4
BITMAP
1808
2008
2008
FFF8
2008
1808
1808
ENDCHAR
STARTCHAR 21A5
ENCODING 8613
SWIDTH 1020 0
DWIDTH 17 0
BBX 7 12 4 2
BITMAP
10
3C
3C
D2
10
10
10
10
10
10
10
FE
ENDCHAR
STARTCHAR 21A6
ENCODING 8614
SWIDTH 1020 0
DWIDTH 17 0
BBX 12 7 2 4
BITMAP
8080
8060
8060
FFF0
8060
8080
8080
ENDCHAR
STARTCHAR 21A7
ENCODING 8615
SWIDTH 1020 0
DWIDTH 17 0
BBX 7 13 4 1
BITMAP
FE
10
10
10
10
10
10
10
D2
D2
3C
10
10
ENDCHAR
STARTCHAR 21A8
ENCODING 8616
SWIDTH 1020 0
DWIDTH 17 0
BBX 7 15 4 0
BITMAP
10
3C
3C
D2
10
10
10
10
10
D2
D2
3C
10
10
FE
ENDCHAR
STARTCHAR 21A9
ENCODING 8617
SWIDTH 1020 0
DWIDTH 17 0
BBX 15 12 0 3
BITMAP
000C
0002
0C02
0C02
1002
600C
600C
FFF8
6000
1000
1000
0C00
ENDCHAR
STARTCHAR 21AA
ENCODING 8618
SWIDTH 1020 0
DWIDTH 17 0
BBX 16 12 0 3
BITMAP
6000
8000
8020
8020
8018
6004
6004
1FFF
0004
0018
0018
0020
ENDCHAR
STARTCHAR 21AB
ENCODING 8619
SWIDTH 1080 0
DWIDTH 18 0
BBX 17 13 0 1
BITMAP
001E00
001E00
0C2180
102180
602180
602180
FFFE00
602000
102000
102000
0C2000
002000
002000
ENDCHAR
STARTCHAR 21AC
ENCODING 8620
SWIDTH 1020 0
DWIDTH 17 0
BBX 15 13 0 1
BITMAP
7C00
7C00
8220
8218
8204
8204
7FFE
0204
0218
0218
0220
0200
0200
ENDCHAR
STARTCHAR 21AD
ENCODING 8621
SWIDTH 1020 0
DWIDTH 17 0
BBX 16 7 0 4
BITMAP
1018
6104
6104
FD3F
62C4
62C4
1018
ENDCHAR
STARTCHAR 21AE
ENCODING 8622
SWIDTH 1020 0
DWIDTH 17 0
BBX 15 7 0 4
BITMAP
1018
60CC
60CC
FFFE
620C
620C
1018
ENDCHAR
STARTCHAR 21AF
ENCODING 8623
SWIDTH 1020 0
DWIDTH 17 0
BBX 10 15 4 0
BITMAP
8000
8000
8000
8000
8200
8E00
9200
9200
E200
8200
8200
1240
0F00
0200
0200
ENDCHAR
STARTCHAR 21B0
ENCODING 8624
SWIDTH 1020 0
DWIDTH 17 0
BBX 13 12 1 2
BITMAP
0400
0400
1800
2000
FFF8
2008
2008
1808
1808
0408
0008
0008
ENDCHAR
STARTCHAR 21B1
ENCODING 8625
SWIDTH 1020 0
DWIDTH 17 0
BBX 12 12 2 2
BITMAP
0100
0100
00C0
0020
FFF0
8020
8020
80C0
80C0
8100
8000
8000
ENDCHAR
STARTCHAR 21B2
ENCODING 8626
SWIDTH 1020 0
DWIDTH 17 0
BBX 13 12 1 2
BITMAP
0008
0008
0008
0408
1808
0008
2008
FFF8
2000
2000
1800
0400
ENDCHAR
STARTCHAR 21B3
ENCODING 8627
SWIDTH 1020 0
DWIDTH 17 0
BBX 12 12 2 2
BITMAP
8000
8000
8000
8100
80C0
8000
8020
FFF0
0020
0020
00C0
0100
ENDCHAR
STARTCHAR 21B4
ENCODING 8628
SWIDTH 1020 0
DWIDTH 17 0
BBX 13 13 1 1
BITMAP
FF00
0100
0100
0100
0100
0100
0100
1118
0D20
0D20
03C0
0100
0100
ENDCHAR
STARTCHAR 21B5
ENCODING 8629
SWIDTH 1020 0
DWIDTH 17 0
BBX 13 12 1 2
BITMAP
0008
0008
0008
0408
1808
0008
2008
FFF8
2000
2000
1800
0400
ENDCHAR
STARTCHAR 21B6
ENCODING 8630
SWIDTH 1020 0
DWIDTH 17 0
BBX 15 13 0 1
BITMAP
01F8
0604
0604
0802
0802
0802
0802
88C0
88C0
6900
1E00
0800
0800
ENDCHAR
STARTCHAR 21B7
ENCODING 8631
SWIDTH 1020 0
DWIDTH 17 0
BBX 15 13 0 1
BITMAP
1F80
6040
6040
8020
8020
8020
8020
0222
0222
01A4
0078
0020
0020
ENDCHAR
STARTCHAR 21B8
ENCODING 8632
SWIDTH 1020 0
DWIDTH 17 0
BBX 12 12 2 2
BITMAP
FFF0
0000
0000
F800
C000
C000
9000
8800
8800
0600
0100
0080
ENDCHAR
STARTCHAR 21B9
ENCODING 8633
SWIDTH 1020 0
DWIDTH 17 0
BBX 12 13 2 1
BITMAP
8800
9000
9000
FFF0
9000
9000
8910
0090
FFF0
FFF0
0090
0110
0110
ENDCHAR
STARTCHAR 21BA
ENCODING 8634
SWIDTH 1020 0
DWIDTH 17 0
BBX 12 13 2 2
BITMAP
01F0
11C0
6120
6120
8110
8110
8010
8010
8010
8010
8010
6020
1FC0
ENDCHAR
STARTCHAR 21BB
ENCODING 8635
SWIDTH 1020 0
DWIDTH 17 0
BBX 12 13 2 2
BITMAP
F800
3880
5860
5860
9810
9810
8010
8010
8010
8010
8010
4060
3F80
ENDCHAR
STARTCHAR 21BC
ENCODING 8636
SWIDTH 1020 0
DWIDTH 17 0
BBX 13 6 1 7
BITMAP
0400
0400
1800
2000
2000
FFF8
ENDCHAR
STARTCHAR 21BD
ENCODING 8637
SWIDTH 1020 0
DWIDTH 17 0
BBX 13 5 1 3
BITMAP
FFF8
2000
1800
1800
0400
ENDCHAR
STARTCHAR 21BE
ENCODING 8638
SWIDTH 1020 0
DWIDTH 17 0
BBX 6 13 7 1
BITMAP
80
E0
E0
90
8C
8C
80
80
80
80
80
80
80
ENDCHAR
STARTCHAR 21BF
ENCODING 8639
SWIDTH 1020 0
DWIDTH 17 0
BBX 5 13 3 1
BITMAP
08
18
18
68
88
88
08
08
08
08
08
08
08
ENDCHAR
STARTCHAR 21C0
ENCODING 8640
SWIDTH 1020 0
DWIDTH 17 0
BBX 13 6 1 7
BITMAP
0180
0180
0040
0030
0030
FFF8
ENDCHAR
STARTCHAR 21C1
ENCODING 8641
SWIDTH 1020 0
DWIDTH 17 0
BBX 13 5 1 3
BITMAP
FFF8
0030
0040
0040
0180
ENDCHAR
STARTCHAR 21C2
ENCODING 8642
SWIDTH 1020 0
DWIDTH 17 0
BBX 6 13 7 1
BITMAP
80
80
80
80
80
80
80
8C
90
90
E0
80
80
ENDCHAR
STARTCHAR 21C3
ENCODING 8643
SWIDTH 1020 0
DWIDTH 17 0
BBX 5 13 3 1
BITMAP
08
08
08
08
08
08
08
88
68
68
18
08
08
ENDCHAR
STARTCHAR 21C4
ENCODING 8644
SWIDTH 1020 0
DWIDTH 17 0
BBX 13 12 1 2
BITMAP
0040
0030
0030
FFF8
0030
0030
1840
2000
2000
FFF8
2000
1800
ENDCHAR
STARTCHAR 21C5
ENCODING 8645
SWIDTH 1020 0
DWIDTH 17 0
BBX 12 13 2 1
BITMAP
1080
7880
7880
9680
1080
1080
1080
1080
1690
1690
11E0
1080
1080
ENDCHAR
STARTCHAR 21C6
ENCODING 8646
SWIDTH 1020 0
DWIDTH 17 0
BBX 13 12 1 2
BITMAP
1800
2000
2000
FFF8
2000
2000
1840
0030
0030
FFF8
0030
0040
ENDCHAR
STARTCHAR 21C7
ENCODING 8647
SWIDTH 1020 0
DWIDTH 17 0
BBX 13 12 1 2
BITMAP
1800
2000
2000
FFF8
2000
2000
1800
2000
2000
FFF8
2000
1800
ENDCHAR
STARTCHAR 21C8
ENCODING 8648
SWIDTH 1020 0
DWIDTH 17 0
BBX 12 13 2 1
BITMAP
1080
79E0
79E0
9690
1080
1080
1080
1080
1080
1080
1080
1080
1080
ENDCHAR
STARTCHAR 21C9
ENCODING 8649
SWIDTH 1020 0
DWIDTH 17 0
BBX 13 12 1 2
BITMAP
0040
0030
0030
FFF8
0030
0030
0040
0030
0030
FFF8
0030
0040
ENDCHAR
STARTCHAR 21CA
ENCODING 8650
SWIDTH 1020 0
DWIDTH 17 0
BBX 12 13 2 1
BITMAP
1080
1080
1080
1080
1080
1080
1080
1080
9690
9690
79E0
1080
1080
ENDCHAR
STARTCHAR 21CB
ENCODING 8651
SWIDTH 1020 0
DWIDTH 17 0
BBX 13 12 1 2
BITMAP
1800
2000
2000
FFF8
0000
0000
0000
0000
0000
FFF8
0030
0040
ENDCHAR
STARTCHAR 21CC
ENCODING 8652
SWIDTH 1020 0
DWIDTH 17 0
BBX 13 12 1 2
BITMAP
0040
0030
0030
FFF8
0000
0000
0000
0000
0000
FFF8
2000
1800
ENDCHAR
STARTCHAR 21CD
ENCODING 8653
SWIDTH 1020 0
DWIDTH 17 0
BBX 12 9 2 3
BITMAP
0800
1020
7FF0
80C0
80C0
7FF0
1100
1100
0800
ENDCHAR
STARTCHAR 21CE
ENCODING 8654
SWIDTH 1020 0
DWIDTH 17 0
BBX 15 9 0 3
BITMAP
0C20
1050
7FFC
8182
8182
7FFC
1210
1210
0C20
ENDCHAR
STARTCHAR 21CF
ENCODING 8655
SWIDTH 1020 0
DWIDTH 17 0
BBX 13 9 1 3
BITMAP
0100
0CC0
FFE0
1018
1018
FFE0
60C0
60C0
0100
ENDCHAR
STARTCHAR 21D0
ENCODING 8656
SWIDTH 1020 0
DWIDTH 17 0
BBX 12 9 2 3
BITMAP
0800
1000
7FF0
8000
8000
7FF0
1000
1000
0800
ENDCHAR
STARTCHAR 21D1
ENCODING 8657
SWIDTH 1020 0
DWIDTH 17 0
BBX 9 13 3 1
BITMAP
0C00
0C00
1200
7300
7300
9280
1200
1200
1200
1200
1200
1200
1200
ENDCHAR
STARTCHAR 21D2
ENCODING 8658
SWIDTH 1020 0
DWIDTH 17 0
BBX 13 9 1 3
BITMAP
0100
00C0
FFE0
0018
0018
FFE0
00C0
00C0
0100
ENDCHAR
STARTCHAR 21D3
ENCODING 8659
SWIDTH 1020 0
DWIDTH 17 0
BBX 9 12 3 2
BITMAP
1200
1200
1200
1200
1200
1200
1200
9280
9280
7300
1200
0C00
ENDCHAR
STARTCHAR 21D4
ENCODING 8660
SWIDTH 1020 0
DWIDTH 17 0
BBX 15 9 0 3
BITMAP
0C20
1018
7FFC
8002
8002
7FFC
1018
1018
0C20
ENDCHAR
STARTCHAR 21D5
ENCODING 8661
SWIDTH 1020 0
DWIDTH 17 0
BBX 9 15 3 0
BITMAP
0C00
1200
7300
7300
9280
1200
1200
1200
1200
9280
9280
7300
1200
1200
0C00
ENDCHAR
STARTCHAR 21D6
ENCODING 8662
SWIDTH 1020 0
DWIDTH 17 0
BBX 9 9 3 3
BITMAP
FE00
9000
EC00
9200
9200
8D00
0280
0280
0100
ENDCHAR
STARTCHAR 21D7
ENCODING 8663
SWIDTH 1020 0
DWIDTH 17 0
BBX 9 9 3 3
BITMAP
1F80
0280
0D80
1280
1280
6C80
9000
9000
6000
ENDCHAR
STARTCHAR 21D8
ENCODING 8664
SWIDTH 1020 0
DWIDTH 17 0
BBX 9 9 3 3
BITMAP
6000
9000
6C80
1280
1280
0D80
0280
0280
1F80
ENDCHAR
STARTCHAR 21D9
ENCODING 8665
SWIDTH 1020 0
DWIDTH 17 0
BBX 9 9 3 3
BITMAP
0100
0280
8D00
9200
9200
EC00
9000
9000
FE00
ENDCHAR
STARTCHAR 21DA
ENCODING 8666
SWIDTH 1020 0
DWIDTH 17 0
BBX 13 10 1 3
BITMAP
0400
0400
1FF8
2000
2000
FFF8
2000
0000
1FF8
0400
ENDCHAR
STARTCHAR 21DB
ENCODING 8667
SWIDTH 1020 0
DWIDTH 17 0
BBX 13 10 1 3
BITMAP
0180
0180
FFC0
0030
0030
FFF8
0030
0000
FFC0
0180
ENDCHAR
STARTCHAR 21DC
ENCODING 8668
SWIDTH 1020 0
DWIDTH 17 0
BBX 13 7 1 4
BITMAP
1800
2040
2040
FCB8
2300
2300
1800
ENDCHAR
STARTCHAR 21DD
ENCODING 8669
SWIDTH 1020 0
DWIDTH 17 0
BBX 13 7 1 4
BITMAP
00C0
1820
1820
E5F8
0220
0220
00C0
ENDCHAR
STARTCHAR 21DE
ENCODING 8670
SWIDTH 1020 0
DWIDTH 17 0
BBX 7 13 4 1
BITMAP
10
7C
7C
92
10
10
FE
10
FE
FE
10
10
10
ENDCHAR
STARTCHAR 21DF
ENCODING 8671
SWIDTH 1020 0
DWIDTH 17 0
BBX 7 13 4 1
BITMAP
10
10
10
FE
10
10
FE
10
92
92
7C
10
10
ENDCHAR
STARTCHAR 21E0
ENCODING 8672
SWIDTH 1020 0
DWIDTH 17 0
BBX 12 9 1 3
BITMAP
0C00
1000
6000
F250
F250
6000
1000
1000
0C00
ENDCHAR
STARTCHAR 21E1
ENCODING 8673
SWIDTH 1020 0
DWIDTH 17 0
BBX 9 12 3 2
BITMAP
0C00
1E00
1E00
6D00
8080
8080
0C00
0000
0000
0C00
0000
0C00
ENDCHAR
STARTCHAR 21E2
ENCODING 8674
SWIDTH 1020 0
DWIDTH 17 0
BBX 12 9 2 3
BITMAP
0100
0080
0060
96F0
96F0
0060
0080
0080
0100
ENDCHAR
STARTCHAR 21E3
ENCODING 8675
SWIDTH 1020 0
DWIDTH 17 0
BBX 9 13 3 1
BITMAP
0C00
0000
0000
0C00
0000
0000
0C00
8080
8080
6D00
1E00
1E00
0C00
ENDCHAR
STARTCHAR 21E4
ENCODING 8676
SWIDTH 1020 0
DWIDTH 17 0
BBX 15 10 0 3
BITMAP
8200
8200
8C00
9000
9000
FFFE
9000
8C00
8C00
8200
ENDCHAR
STARTCHAR 21E5
ENCODING 8677
SWIDTH 1020 0
DWIDTH 17 0
BBX 16 10 0 3
BITMAP
0043
0043
0033
000B
000B
FFFF
000B
0033
0033
0043
ENDCHAR
STARTCHAR 21E6
ENCODING 8678
SWIDTH 1020 0
DWIDTH 17 0
BBX 15 15 0 0
BITMAP
0100
0300
0D00
0D00
11FE
6002
6002
8002
6002
6002
11FE
0D00
0300
0100
0100
ENDCHAR
STARTCHAR 21E7
ENCODING 8679
SWIDTH 1020 0
DWIDTH 17 0
BBX 15 15 0 0
BITMAP
0180
0240
0430
0430
1808
2004
2004
FC3E
0430
0430
0430
0430
0430
0430
07F0
ENDCHAR
STARTCHAR 21E8
ENCODING 8680
SWIDTH 1020 0
DWIDTH 17 0
BBX 15 15 0 0
BITMAP
0100
01C0
0120
0120
FF18
8004
8004
8002
8004
8004
FF18
0120
01C0
0100
0100
ENDCHAR
STARTCHAR 21E9
ENCODING 8681
SWIDTH 1020 0
DWIDTH 17 0
BBX 15 15 0 0
BITMAP
07F0
0430
0430
0430
0430
0430
0430
FC3E
2004
0000
1808
0430
0240
0000
0180
ENDCHAR
STARTCHAR 21EA
ENCODING 8682
SWIDTH 1020 0
DWIDTH 17 0
BBX 15 15 0 0
BITMAP
0180
0240
0430
0430
1808
2004
2004
FC3E
0430
0430
0430
07F0
0000
0000
07F0
ENDCHAR
STARTCHAR 21EB
ENCODING 8683
SWIDTH 1020 0
DWIDTH 17 0
BBX 15 15 0 0
BITMAP
0100
02C0
0C20
0C20
1018
600C
600C
FC3E
0C20
0C20
0C20
0C20
0C20
0C20
FFFE
ENDCHAR
STARTCHAR 21EC
ENCODING 8684
SWIDTH 1020 0
DWIDTH 17 0
BBX 15 15 0 0
BITMAP
0100
02C0
0C20
0C20
1FF8
600C
600C
FC3E
0C20
0C20
0C20
0C20
0C20
0C20
FFFE
ENDCHAR
STARTCHAR 21ED
ENCODING 8685
SWIDTH 1020 0
DWIDTH 17 0
BBX 15 15 0 0
BITMAP
0100
03C0
0D20
0D20
1118
610C
610C
FD3E
0D20
0D20
0D20
0D20
0D20
0D20
FFFE
ENDCHAR
STARTCHAR 21EE
ENCODING 8686
SWIDTH 1020 0
DWIDTH 17 0
BBX 15 15 0 0
BITMAP
0180
0240
0DA0
0DA0
1250
6C2C
6C2C
9012
600C
600C
FC3E
0C20
0C20
0C20
0FE0
ENDCHAR
STARTCHAR 21EF
ENCODING 8687
SWIDTH 1020 0
DWIDTH 17 0
BBX 15 15 0 0
BITMAP
0100
02C0
0D20
0D20
12D8
6C2C
6C2C
901A
600C
600C
FC3E
0C20
0C20
0C20
FFFE
ENDCHAR
STARTCHAR 21F0
ENCODING 8688
SWIDTH 1020 0
DWIDTH 17 0
BBX 15 15 0 0
BITMAP
8100
81C0
8120
8120
FF18
8004
8004
8002
8004
8004
FF18
8120
81C0
8100
8100
ENDCHAR
STARTCHAR 21F1
ENCODING 8689
SWIDTH 1020 0
DWIDTH 17 0
BBX 12 12 2 2
BITMAP
FFF0
8000
8000
9F00
9800
9800
9600
9100
9100
80C0
8020
8010
ENDCHAR
STARTCHAR 21F2
ENCODING 8690
SWIDTH 1020 0
DWIDTH 17 0
BBX 12 12 2 2
BITMAP
8010
6010
6010
1010
0890
0890
0690
0190
0190
0F90
0010
FFF0
ENDCHAR
STARTCHAR 21F3
ENCODING 8691
SWIDTH 1020 0
DWIDTH 17 0
BBX 13 15 1 0
BITMAP
0300
0480
0480
1840
2020
F878
1840
1840
F878
2020
2020
1840
0480
0000
0300
ENDCHAR
STARTCHAR 21F4
ENCODING 8692
SWIDTH 1020 0
DWIDTH 17 0
BBX 15 7 0 4
BITMAP
0F18
10CC
10CC
FFFE
10CC
0000
0F18
ENDCHAR
STARTCHAR 21F5
ENCODING 8693
SWIDTH 1020 0
DWIDTH 17 0
BBX 12 13 2 1
BITMAP
1080
11E0
11E0
1690
1080
1080
1080
1080
9680
9680
7880
1080
1080
ENDCHAR
STARTCHAR 21F6
ENCODING 8694
SWIDTH 1020 0
DWIDTH 17 0
BBX 13 15 1 0
BITMAP
0040
0030
0030
FFF8
0040
0030
0030
FFF8
0030
0040
0040
FFF8
0030
0030
0040
ENDCHAR
STARTCHAR 21F7
ENCODING 8695
SWIDTH 1020 0
DWIDTH 17 0
BBX 13 7 1 4
BITMAP
1980
2180
2180
FFF8
2180
1980
1980
ENDCHAR
STARTCHAR 21F8
ENCODING 8696
SWIDTH 1020 0
DWIDTH 17 0
BBX 13 7 1 4
BITMAP
0440
0430
0430
FFF8
0430
0440
0440
ENDCHAR
STARTCHAR 21F9
ENCODING 8697
SWIDTH 1020 0
DWIDTH 17 0
BBX 15 7 0 4
BITMAP
1118
6104
6104
FFFE
6104
1118
1118
ENDCHAR
STARTCHAR 21FA
ENCODING 8698
SWIDTH 1020 0
DWIDTH 17 0
BBX 13 7 1 4
BITMAP
1A40
2240
2240
FFF8
2240
2240
1A40
ENDCHAR
STARTCHAR 21FB
ENCODING 8699
SWIDTH 1020 0
DWIDTH 17 0
BBX 13 7 1 4
BITMAP
1A40
1A30
1A30
FFF8
1A30
1A30
1A40
ENDCHAR
STARTCHAR 21FC
ENCODING 8700
SWIDTH 1020 0
DWIDTH 17 0
BBX 15 7 0 4
BITMAP
12D8
62CC
62CC
FFFE
62CC
62CC
12D8
ENDCHAR
STARTCHAR 21FD
ENCODING 8701
SWIDTH 1020 0
DWIDTH 17 0
BBX 12 10 2 3
BITMAP
0800
0800
3800
4800
8FF0
8FF0
4800
3800
3800
0800
ENDCHAR
STARTCHAR 21FE
ENCODING 8702
SWIDTH 1020 0
DWIDTH 17 0
BBX 12 10 2 3
BITMAP
0100
0100
0180
0120
FF10
FF10
0120
0180
0180
0100
ENDCHAR
STARTCHAR 21FF
ENCODING 8703
SWIDTH 1020 0
DWIDTH 17 0
BBX 15 10 0 3
BITMAP
0820
0820
1838
6824
8FE2
8FE2
6824
1838
1838
0820
ENDCHAR
STARTCHAR 2200
ENCODING 8704
SWIDTH 1020 0
DWIDTH 17 0
BBX 15 15 0 0
BITMAP
8002
8002
8002
600C
600C
1FF0
1010
1010
0C20
0C20
0C20
0240
0240
0240
0180
ENDCHAR
STARTCHAR 2202
ENCODING 8706
SWIDTH 1020 0
DWIDTH 17 0
BBX 8 13 3 2
BITMAP
1E
61
01
01
01
1D
1D
62
82
82
82
8C
70
ENDCHAR
STARTCHAR 2203
ENCODING 8707
SWIDTH 1020 0
DWIDTH 17 0
BBX 14 12 0 2
BITMAP
FFFC
0004
0004
0004
0004
0004
FFFC
0004
0004
0004
0004
FFFC
ENDCHAR
STARTCHAR 2205
ENCODING 8709
SWIDTH 1020 0
DWIDTH 17 0
BBX 12 12 2 2
BITMAP
1FD0
6020
6020
80D0
8110
8110
8610
8810
8810
9010
6020
9FC0
ENDCHAR
STARTCHAR 2206
ENCODING 8710
SWIDTH 1020 0
DWIDTH 17 0
BBX 15 15 0 0
BITMAP
0180
0240
0240
0240
0C20
0C20
0C20
1010
1010
600C
600C
600C
8002
8002
FFFE
ENDCHAR
STARTCHAR 2207
ENCODING 8711
SWIDTH 1020 0
DWIDTH 17 0
BBX 15 15 0 0
BITMAP
FFFE
8002
8002
600C
600C
1010
1010
1010
0C20
0C20
0C20
0240
0240
0240
0180
ENDCHAR
STARTCHAR 2208
ENCODING 8712
SWIDTH 1020 0
DWIDTH 17 0
BBX 12 12 2 2
BITMAP
3FF0
4000
4000
8000
8000
8000
FFF0
8000
8000
8000
4000
3FF0
ENDCHAR
STARTCHAR 220B
ENCODING 8715
SWIDTH 1020 0
DWIDTH 17 0
BBX 13 12 1 2
BITMAP
FFC0
0030
0030
0008
0008
0008
FFF8
0008
0008
0008
0030
FFC0
ENDCHAR
STARTCHAR 220F
ENCODING 8719
SWIDTH 1020 0
DWIDTH 17 0
BBX 11 15 3 0
BITMAP
FFE0
60C0
60C0
60C0
60C0
60C0
60C0
60C0
60C0
60C0
60C0
60C0
60C0
60C0
60C0
ENDCHAR
STARTCHAR 2210
ENCODING 8720
SWIDTH 1020 0
DWIDTH 17 0
BBX 11 15 3 0
BITMAP
60C0
60C0
60C0
60C0
60C0
60C0
60C0
60C0
60C0
60C0
60C0
60C0
60C0
60C0
FFE0
ENDCHAR
STARTCHAR 2211
ENCODING 8721
SWIDTH 1020 0
DWIDTH 17 0
BBX 11 15 3 0
BITMAP
FFE0
6000
6000
1000
0800
0600
0100
0100
0600
0800
0800
1000
6000
6000
FFE0
ENDCHAR
STARTCHAR 221A
ENCODING 8730
SWIDTH 1020 0
DWIDTH 17 0
BBX 15 15 0 0
BITMAP
00FE
00C0
00C0
00C0
0100
0100
0100
0100
0600
8600
8600
6600
1800
0800
0800
ENDCHAR
STARTCHAR 221D
ENCODING 8733
SWIDTH 1020 0
DWIDTH 17 0
BBX 14 7 0 4
BITMAP
7C3C
8240
8240
8180
8240
8240
7C3C
ENDCHAR
STARTCHAR 221E
ENCODING 8734
SWIDTH 1020 0
DWIDTH 17 0
BBX 15 7 0 4
BITMAP
7C3C
8242
8242
8182
8242
8242
7C3C
ENDCHAR
STARTCHAR 221F
ENCODING 8735
SWIDTH 1020 0
DWIDTH 17 0
BBX 12 12 2 2
BITMAP
8000
8000
8000
8000
8000
8000
8000
8000
8000
8000
8000
FFF0
ENDCHAR
STARTCHAR 2220
ENCODING 8736
SWIDTH 1020 0
DWIDTH 17 0
BBX 13 11 1 2
BITMAP
0030
0030
0040
0180
0180
0200
0400
0400
1800
2000
FFF8
ENDCHAR
STARTCHAR 2223
ENCODING 8739
SWIDTH 1020 0
DWIDTH 17 0
BBX 1 15 7 0
BITMAP
80
80
80
80
80
80
80
80
80
80
80
80
80
80
80
ENDCHAR
STARTCHAR 2224
ENCODING 8740
SWIDTH 1020 0
DWIDTH 17 0
BBX 7 15 4 0
BITMAP
10
10
10
10
12
1C
10
10
70
70
90
10
10
10
10
ENDCHAR
STARTCHAR 2225
ENCODING 8741
SWIDTH 1020 0
DWIDTH 17 0
BBX 5 15 4 0
BITMAP
88
88
88
88
88
88
88
88
88
88
88
88
88
88
88
ENDCHAR
STARTCHAR 2226
ENCODING 8742
SWIDTH 1020 0
DWIDTH 17 0
BBX 11 15 1 0
BITMAP
1100
1100
1100
1100
1100
11E0
1F00
1F00
F100
1100
1100
1100
1100
1100
1100
ENDCHAR
STARTCHAR 2227
ENCODING 8743
SWIDTH 1020 0
DWIDTH 17 0
BBX 12 12 2 2
BITMAP
0600
0600
0600
0900
0900
0900
10C0
10C0
10C0
6020
6020
8010
ENDCHAR
STARTCHAR 2228
ENCODING 8744
SWIDTH 1020 0
DWIDTH 17 0
BBX 12 13 2 1
BITMAP
8010
6020
6020
6020
10C0
10C0
10C0
0900
0900
0900
0600
0600
0600
ENDCHAR
STARTCHAR 2229
ENCODING 8745
SWIDTH 1020 0
DWIDTH 17 0
BBX 12 13 2 1
BITMAP
3F80
4060
4060
8010
8010
8010
8010
8010
8010
8010
8010
8010
8010
ENDCHAR
STARTCHAR 222A
ENCODING 8746
SWIDTH 1020 0
DWIDTH 17 0
BBX 12 12 2 2
BITMAP
8010
8010
8010
8010
8010
8010
8010
8010
8010
8010
4060
3F80
ENDCHAR
STARTCHAR 222B
ENCODING 8747
SWIDTH 1020 0
DWIDTH 17 0
BBX 7 15 4 0
BITMAP
0C
12
10
10
10
10
10
10
10
10
10
10
90
00
60
ENDCHAR
STARTCHAR 222C
ENCODING 8748
SWIDTH 1020 0
DWIDTH 17 0
BBX 11 15 2 0
BITMAP
08C0
1720
1100
1100
1100
1100
1100
1100
1100
1100
1100
1100
9900
0000
6600
ENDCHAR
STARTCHAR 222D
ENCODING 8749
SWIDTH 1020 0
DWIDTH 17 0
BBX 12 15 2 0
BITMAP
0920
16D0
16C0
16C0
16C0
16C0
16C0
16C0
16C0
16C0
16C0
16C0
96C0
0000
6900
ENDCHAR
STARTCHAR 222E
ENCODING 8750
SWIDTH 1020 0
DWIDTH 17 0
BBX 7 15 4 0
BITMAP
0C
12
10
10
7C
92
92
92
7C
10
10
10
90
00
60
ENDCHAR
STARTCHAR 222F
ENCODING 8751
SWIDTH 1020 0
DWIDTH 17 0
BBX 12 15 2 0
BITMAP
08C0
1720
1100
1100
7FE0
9110
9110
9110
7FE0
1100
1100
1100
9900
0000
6600
ENDCHAR
STARTCHAR 2230
ENCODING 8752
SWIDTH 1020 0
DWIDTH 17 0
BBX 12 15 2 0
BITMAP
0920
16D0
16C0
16C0
7FE0
96D0
96D0
96D0
7FE0
16C0
16C0
16C0
96C0
96C0
6900
ENDCHAR
STARTCHAR 2234
ENCODING 8756
SWIDTH 1020 0
DWIDTH 17 0
BBX 13 14 0 1
BITMAP
0700
0700
0700
0000
0000
0000
0000
0000
0000
0000
0000
E038
E038
E038
ENDCHAR
STARTCHAR 2235
ENCODING 8757
SWIDTH 1020 0
DWIDTH 17 0
BBX 13 14 0 0
BITMAP
E038
E038
E038
0000
0000
0000
0000
0000
0000
0000
0000
0700
0700
0700
ENDCHAR
STARTCHAR 2236
ENCODING 8758
SWIDTH 1020 0
DWIDTH 17 0
BBX 3 13 5 1
BITMAP
E0
E0
E0
00
00
00
00
00
00
00
E0
E0
E0
ENDCHAR
STARTCHAR 2237
ENCODING 8759
SWIDTH 1020 0
DWIDTH 17 0
BBX 13 13 1 1
BITMAP
E038
E038
E038
0000
0000
0000
0000
0000
0000
0000
E038
E038
E038
ENDCHAR
STARTCHAR 223D
ENCODING 8765
SWIDTH 1020 0
DWIDTH 17 0
BBX 15 7 0 4
BITMAP
7C3C
8042
8042
8182
8202
8202
7C3C
ENDCHAR
STARTCHAR 2252
ENCODING 8786
SWIDTH 1020 0
DWIDTH 17 0
BBX 13 11 1 3
BITMAP
3800
0000
0000
FFF8
0000
0000
0000
FFF8
0000
0000
0070
ENDCHAR
STARTCHAR 2260
ENCODING 8800
SWIDTH 1020 0
DWIDTH 17 0
BBX 13 11 1 3
BITMAP
0180
0180
0180
FFF8
0200
0200
0200
FFF8
0400
0400
0400
ENDCHAR
STARTCHAR 2261
ENCODING 8801
SWIDTH 1020 0
DWIDTH 17 0
BBX 13 9 1 3
BITMAP
FFF8
0000
0000
0000
FFF8
0000
0000
0000
FFF8
ENDCHAR
STARTCHAR 2264
ENCODING 8804
SWIDTH 1020 0
DWIDTH 17 0
BBX 13 12 1 2
BITMAP
0038
03C0
03C0
1C00
E000
E000
1C00
03C0
03C0
0038
0000
FFF8
ENDCHAR
STARTCHAR 2265
ENCODING 8805
SWIDTH 1020 0
DWIDTH 17 0
BBX 13 12 1 2
BITMAP
E000
1E00
1E00
01C0
0038
0038
01C0
1E00
1E00
E000
0000
FFF8
ENDCHAR
STARTCHAR 2266
ENCODING 8806
SWIDTH 1020 0
DWIDTH 17 0
BBX 13 12 1 2
BITMAP
0078
0780
0780
F800
0780
0780
0078
0000
0000
FFF8
0000
FFF8
ENDCHAR
STARTCHAR 2267
ENCODING 8807
SWIDTH 1020 0
DWIDTH 17 0
BBX 13 12 1 2
BITMAP
F800
0780
0780
0078
0780
0780
F800
0000
0000
FFF8
0000
FFF8
ENDCHAR
STARTCHAR 226A
ENCODING 8810
SWIDTH 1020 0
DWIDTH 17 0
BBX 11 12 2 2
BITMAP
0620
08C0
08C0
1100
6600
6600
8800
6600
6600
1100
08C0
0620
ENDCHAR
STARTCHAR 226B
ENCODING 8811
SWIDTH 1020 0
DWIDTH 17 0
BBX 11 12 3 2
BITMAP
8C00
6200
6200
1100
0C80
0C80
0260
0C80
0C80
1100
6200
8C00
ENDCHAR
STARTCHAR 2282
ENCODING 8834
SWIDTH 1020 0
DWIDTH 17 0
BBX 12 12 2 2
BITMAP
3FF0
4000
4000
8000
8000
8000
8000
8000
8000
8000
4000
3FF0
ENDCHAR
STARTCHAR 2283
ENCODING 8835
SWIDTH 1020 0
DWIDTH 17 0
BBX 13 12 1 2
BITMAP
FFC0
0030
0030
0008
0008
0008
0008
0008
0008
0008
0030
FFC0
ENDCHAR
STARTCHAR 2286
ENCODING 8838
SWIDTH 1020 0
DWIDTH 17 0
BBX 13 12 1 2
BITMAP
1FF8
2000
2000
C000
C000
C000
C000
2000
2000
1FF8
0000
FFF8
ENDCHAR
STARTCHAR 2287
ENCODING 8839
SWIDTH 1020 0
DWIDTH 17 0
BBX 13 12 1 2
BITMAP
FFC0
0030
0030
0008
0008
0008
0008
0030
0030
FFC0
0000
FFF8
ENDCHAR
STARTCHAR 22A4
ENCODING 8868
SWIDTH 1020 0
DWIDTH 17 0
BBX 13 11 1 1
BITMAP
FFF8
0200
0200
0200
0200
0200
0200
0200
0200
0200
0200
ENDCHAR
STARTCHAR 22A5
ENCODING 8869
SWIDTH 1020 0
DWIDTH 17 0
BBX 13 11 1 2
BITMAP
0200
0200
0200
0200
0200
0200
0200
0200
0200
0200
FFF8
ENDCHAR
STARTCHAR 22BF
ENCODING 8895
SWIDTH 1020 0
DWIDTH 17 0
BBX 13 12 1 2
BITMAP
0008
0038
0038
0048
0088
0088
0308
0408
0408
1808
2008
FFF8
ENDCHAR
STARTCHAR 2460
ENCODING 9312
SWIDTH 1020 0
DWIDTH 17 0
BBX 15 15 0 0
BITMAP
0FE0
1010
610C
610C
8302
8102
8102
8102
8102
8102
8102
63CC
1010
0000
0FE0
ENDCHAR
STARTCHAR 2461
ENCODING 9313
SWIDTH 1020 0
DWIDTH 17 0
BBX 15 15 0 0
BITMAP
0FE0
1010
63CC
63CC
8C22
8022
8022
8042
8182
8202
8202
6FEC
1010
0000
0FE0
ENDCHAR
STARTCHAR 2462
ENCODING 9314
SWIDTH 1020 0
DWIDTH 17 0
BBX 15 15 0 0
BITMAP
0FE0
1010
63CC
63CC
8C22
8022
8022
81C2
8022
8022
8C22
63CC
1010
0000
0FE0
ENDCHAR
STARTCHAR 2463
ENCODING 9315
SWIDTH 1020 0
DWIDTH 17 0
BBX 15 15 0 0
BITMAP
0FE0
1018
60C4
60C4
81C2
82C2
82C2
8CC2
9FE2
9FE2
80C2
60C4
1018
0000
0FE0
ENDCHAR
STARTCHAR 2464
ENCODING 9316
SWIDTH 1020 0
DWIDTH 17 0
BBX 15 15 0 0
BITMAP
0FE0
1010
6FEC
6FEC
8C02
8FC2
8FC2
8C22
8022
8C22
8C22
63CC
1010
0000
0FE0
ENDCHAR
STARTCHAR 2465
ENCODING 9317
SWIDTH 1020 0
DWIDTH 17 0
BBX 15 15 0 0
BITMAP
0FE0
1010
63CC
63CC
8C22
8C02
8C02
8FC2
8C22
8C22
8C22
63CC
1010
0000
0FE0
ENDCHAR
STARTCHAR 2466
ENCODING 9318
SWIDTH 1020 0
DWIDTH 17 0
BBX 15 15 0 0
BITMAP
0FE0
1018
6FE4
6FE4
8022
80C2
80C2
80C2
8102
8102
8102
6104
1018
0000
0FE0
ENDCHAR
STARTCHAR 2467
ENCODING 9319
SWIDTH 1020 0
DWIDTH 17 0
BBX 15 15 0 0
BITMAP
0FE0
1010
63CC
63CC
8C22
8C22
8C22
83C2
8C22
8C22
8C22
63CC
1010
0000
0FE0
ENDCHAR
STARTCHAR 2468
ENCODING 9320
SWIDTH 1020 0
DWIDTH 17 0
BBX 15 15 0 0
BITMAP
0FE0
1010
63CC
63CC
8C22
8C22
8C22
83E2
8022
8022
8C22
63CC
1010
0000
0FE0
ENDCHAR
STARTCHAR 2469
ENCODING 9321
SWIDTH 1020 0
DWIDTH 17 0
BBX 15 15 0 0
BITMAP
0FE0
1010
6CEC
6CEC
9D12
8D12
8D12
8D12
8D12
8D12
8D12
6CEC
1010
0000
0FE0
ENDCHAR
STARTCHAR 246A
ENCODING 9322
SWIDTH 1020 0
DWIDTH 17 0
BBX 15 15 0 0
BITMAP
0FE0
1018
6C24
6C24
9CE2
8C22
8C22
8C22
8C22
8C22
8C22
6C24
1018
0000
0FE0
ENDCHAR
STARTCHAR 246B
ENCODING 9323
SWIDTH 1020 0
DWIDTH 17 0
BBX 15 15 0 0
BITMAP
0FE0
1010
6CEC
6CEC
9D12
8C12
8C12
8C22
8CC2
8D02
8D02
6DFC
1010
0000
0FE0
ENDCHAR
STARTCHAR 246C
ENCODING 9324
SWIDTH 1020 0
DWIDTH 17 0
BBX 15 15 0 0
BITMAP
0FE0
1010
6CEC
6CEC
9D12
8C12
8C12
8CE2
8C12
8C12
8D12
6CEC
1010
0000
0FE0
ENDCHAR
STARTCHAR 246D
ENCODING 9325
SWIDTH 1020 0
DWIDTH 17 0
BBX 15 15 0 0
BITMAP
0FE0
1018
6C24
6C24
9CE2
8D22
8D22
8D22
8DFA
8DFA
8C22
6C24
1018
0000
0FE0
ENDCHAR
STARTCHAR 246E
ENCODING 9326
SWIDTH 1020 0
DWIDTH 17 0
BBX 15 15 0 0
BITMAP
0FE0
1010
6DFC
6DFC
9D02
8DE2
8DE2
8D12
8C12
8D12
8D12
6CEC
1010
0000
0FE0
ENDCHAR
STARTCHAR 246F
ENCODING 9327
SWIDTH 1020 0
DWIDTH 17 0
BBX 15 15 0 0
BITMAP
0FE0
1010
6CEC
6CEC
9D12
8D02
8D02
8DE2
8D12
8D12
8D12
6CEC
1010
0000
0FE0
ENDCHAR
STARTCHAR 2470
ENCODING 9328
SWIDTH 1020 0
DWIDTH 17 0
BBX 15 15 0 0
BITMAP
0FE0
1018
6DFC
6DFC
9C1A
8C22
8C22
8C22
8CC2
8CC2
8CC2
6CC4
1018
0000
0FE0
ENDCHAR
STARTCHAR 2471
ENCODING 9329
SWIDTH 1020 0
DWIDTH 17 0
BBX 15 15 0 0
BITMAP
0FE0
1010
6CEC
6CEC
9D12
8D12
8D12
8CE2
8D12
8D12
8D12
6CEC
1010
0000
0FE0
ENDCHAR
STARTCHAR 2472
ENCODING 9330
SWIDTH 1020 0
DWIDTH 17 0
BBX 15 15 0 0
BITMAP
0FE0
1010
6CEC
6CEC
9D12
8D12
8D12
8CF2
8C12
8C12
8D12
6CEC
1010
0000
0FE0
ENDCHAR
STARTCHAR 2473
ENCODING 9331
SWIDTH 1020 0
DWIDTH 17 0
BBX 15 15 0 0
BITMAP
0FE0
1010
6C2C
6C2C
9252
8252
8252
8C52
8C52
8C52
9052
7E2C
7E2C
1010
0FE0
ENDCHAR
STARTCHAR 24B6
ENCODING 9398
SWIDTH 1020 0
DWIDTH 17 0
BBX 15 15 0 0
BITMAP
0FE0
1010
618C
618C
8242
8C22
8C22
8C22
8FE2
8FE2
8C22
6C2C
1010
0000
0FE0
ENDCHAR
STARTCHAR 24B7
ENCODING 9399
SWIDTH 1020 0
DWIDTH 17 0
BBX 15 15 0 0
BITMAP
0FE0
1018
6FC4
6FC4
8C22
8C22
8C22
8FC2
8C22
8C22
8C22
6FC4
1018
0000
0FE0
ENDCHAR
STARTCHAR 24B8
ENCODING 9400
SWIDTH 1020 0
DWIDTH 17 0
BBX 15 15 0 0
BITMAP
0FE0
1010
63CC
63CC
8C22
8C02
8C02
8C02
8C02
8C02
8C22
63CC
1010
0000
0FE0
ENDCHAR
STARTCHAR 24B9
ENCODING 9401
SWIDTH 1020 0
DWIDTH 17 0
BBX 15 15 0 0
BITMAP
0FE0
1018
6FC4
6FC4
8C22
8C22
8C22
8C22
8C22
8C22
8C22
6FC4
1018
0000
0FE0
ENDCHAR
STARTCHAR 24BA
ENCODING 9402
SWIDTH 1020 0
DWIDTH 17 0
BBX 15 15 0 0
BITMAP
0FE0
1010
6FEC
6FEC
8C02
8C02
8C02
8FC2
8C02
8C02
8C02
6FEC
1010
0000
0FE0
ENDCHAR
STARTCHAR 24BB
ENCODING 9403
SWIDTH 1020 0
DWIDTH 17 0
BBX 15 15 0 0
BITMAP
0FE0
1010
6FEC
6FEC
8C02
8C02
8C02
8FC2
8C02
8C02
8C02
6C0C
1010
0000
0FE0
ENDCHAR
STARTCHAR 24BC
ENCODING 9404
SWIDTH 1020 0
DWIDTH 17 0
BBX 15 15 0 0
BITMAP
0FE0
1010
63CC
63CC
8C22
8C02
8C02
8DE2
8C22
8C22
8C22
63CC
1010
0000
0FE0
ENDCHAR
STARTCHAR 24BD
ENCODING 9405
SWIDTH 1020 0
DWIDTH 17 0
BBX 15 15 0 0
BITMAP
0FE0
1018
6C24
6C24
8C22
8C22
8C22
8FE2
8C22
8C22
8C22
6C24
1018
0000
0FE0
ENDCHAR
STARTCHAR 24BE
ENCODING 9406
SWIDTH 1020 0
DWIDTH 17 0
BBX 15 15 0 0
BITMAP
0FE0
1010
63CC
63CC
8102
8102
8102
8102
8102
8102
8102
63CC
1010
0000
0FE0
ENDCHAR
STARTCHAR 24BF
ENCODING 9407
SWIDTH 1020 0
DWIDTH 17 0
BBX 15 15 0 0
BITMAP
0FE0
1010
602C
602C
8022
8022
8022
8022
8C22
8C22
8C22
63CC
1010
0000
0FE0
ENDCHAR
STARTCHAR 24C0
ENCODING 9408
SWIDTH 1020 0
DWIDTH 17 0
BBX 15 15 0 0
BITMAP
0FE0
1018
6C24
6C24
8CC2
8D02
8D02
8E02
8D02
8D02
8CC2
6C24
1018
0000
0FE0
ENDCHAR
STARTCHAR 24C1
ENCODING 9409
SWIDTH 1020 0
DWIDTH 17 0
BBX 15 15 0 0
BITMAP
0FE0
1010
6C0C
6C0C
8C02
8C02
8C02
8C02
8C02
8C02
8C02
6FEC
1010
0000
0FE0
ENDCHAR
STARTCHAR 24C2
ENCODING 9410
SWIDTH 1020 0
DWIDTH 17 0
BBX 15 15 0 0
BITMAP
0FE0
1010
701C
701C
9C32
9C32
9C32
9252
9252
9192
9192
719C
1010
1010
0FE0
ENDCHAR
STARTCHAR 24C3
ENCODING 9411
SWIDTH 1020 0
DWIDTH 17 0
BBX 15 15 0 0
BITMAP
0FE0
1018
6C24
6C24
8E22
8E22
8E22
8D22
8CE2
8CE2
8CE2
6C24
1018
0000
0FE0
ENDCHAR
STARTCHAR 24C4
ENCODING 9412
SWIDTH 1020 0
DWIDTH 17 0
BBX 15 15 0 0
BITMAP
0FE0
1010
63CC
63CC
8C22
8C22
8C22
8C22
8C22
8C22
8C22
63CC
1010
0000
0FE0
ENDCHAR
STARTCHAR 24C5
ENCODING 9413
SWIDTH 1020 0
DWIDTH 17 0
BBX 15 15 0 0
BITMAP
0FE0
1018
6FC4
6FC4
8C22
8C22
8C22
8FC2
8C02
8C02
8C02
6C04
1018
0000
0FE0
ENDCHAR
STARTCHAR 24C6
ENCODING 9414
SWIDTH 1020 0
DWIDTH 17 0
BBX 15 15 0 0
BITMAP
0FE0
1018
63C4
63C4
8C22
8C22
8C22
8C22
8C22
8DA2
8DA2
63C4
1038
0020
0FE0
ENDCHAR
STARTCHAR 24C7
ENCODING 9415
SWIDTH 1020 0
DWIDTH 17 0
BBX 15 15 0 0
BITMAP
0FE0
1010
6FCC
6FCC
8C22
8C22
8C22
8FC2
8C42
8C22
8C22
6C2C
1010
0000
0FE0
ENDCHAR
STARTCHAR 24C8
ENCODING 9416
SWIDTH 1020 0
DWIDTH 17 0
BBX 15 15 0 0
BITMAP
0FE0
1010
63CC
63CC
8C22
8C02
8C02
83C2
8022
8022
8C22
63CC
1010
0000
0FE0
ENDCHAR
STARTCHAR 24C9
ENCODING 9417
SWIDTH 1020 0
DWIDTH 17 0
BBX 15 15 0 0
BITMAP
0FE0
1010
6FEC
6FEC
8102
8102
8102
8102
8102
8102
8102
610C
1010
0000
0FE0
ENDCHAR
STARTCHAR 24CA
ENCODING 9418
SWIDTH 1020 0
DWIDTH 17 0
BBX 15 15 0 0
BITMAP
0FE0
1010
6C2C
6C2C
8C22
8C22
8C22
8C22
8C22
8C22
8C22
63CC
1010
0000
0FE0
ENDCHAR
STARTCHAR 24CB
ENCODING 9419
SWIDTH 1020 0
DWIDTH 17 0
BBX 15 15 0 0
BITMAP
0FE0
1010
6C2C
6C2C
8C22
8C22
8C22
8242
8242
8242
8182
618C
1010
0000
0FE0
ENDCHAR
STARTCHAR 24CC
ENCODING 9420
SWIDTH 1020 0
DWIDTH 17 0
BBX 15 15 0 0
BITMAP
0FE0
1010
1010
701C
9192
9192
9192
9252
9252
9252
8C22
6C2C
1010
0000
0FE0
ENDCHAR
STARTCHAR 24CD
ENCODING 9421
SWIDTH 1020 0
DWIDTH 17 0
BBX 15 15 0 0
BITMAP
0FE0
1010
6C2C
6C2C
8C22
8242
8242
8182
8242
8242
8C22
6C2C
1010
0000
0FE0
ENDCHAR
STARTCHAR 24CE
ENCODING 9422
SWIDTH 1020 0
DWIDTH 17 0
BBX 15 15 0 0
BITMAP
0FE0
1010
6C2C
6C2C
8C22
8C22
8C22
8242
8182
8182
8182
618C
1010
0000
0FE0
ENDCHAR
STARTCHAR 24CF
ENCODING 9423
SWIDTH 1020 0
DWIDTH 17 0
BBX 15 15 0 0
BITMAP
0FE0
1010
6FEC
6FEC
8022
8042
8042
8182
8202
8C02
8C02
6FEC
1010
0000
0FE0
ENDCHAR
STARTCHAR 24EA
ENCODING 9450
SWIDTH 1020 0
DWIDTH 17 0
BBX 15 15 0 0
BITMAP
0FE0
1010
63CC
63CC
8C22
8C22
8C22
8C22
8C22
8C22
8C22
63CC
1010
0000
0FE0
ENDCHAR
STARTCHAR 24EB
ENCODING 9451
SWIDTH 1020 0
DWIDTH 17 0
BBX 15 15 0 0
BITMAP
0FE0
7FFC
7FFC
77DC
E71E
F7DE
F7DE
F7DE
F7DE
F7DE
F7DE
77DC
7FFC
7FFC
0FE0
ENDCHAR
STARTCHAR 24EC
ENCODING 9452
SWIDTH 1020 0
DWIDTH 17 0
BBX 15 15 0 0
BITMAP
0FE0
7FFC
7FFC
771C
E6EE
F7EE
F7EE
F7DE
F77E
F6FE
F6FE
760C
7FFC
0FE0
0FE0
ENDCHAR
STARTCHAR 24ED
ENCODING 9453
SWIDTH 1020 0
DWIDTH 17 0
BBX 15 15 0 0
BITMAP
0FE0
7FFC
7FFC
771C
E6EE
F7EE
F71E
F71E
F7EE
F6EE
F6EE
771C
7FFC
0FE0
0FE0
ENDCHAR
STARTCHAR 24EE
ENCODING 9454
SWIDTH 1020 0
DWIDTH 17 0
BBX 15 15 0 0
BITMAP
0FE0
7FFC
7FFC
77DC
E71E
E71E
F6DE
F6DE
F60E
F60E
F7DE
77DC
7FFC
7FFC
0FE0
ENDCHAR
STARTCHAR 24EF
ENCODING 9455
SWIDTH 1020 0
DWIDTH 17 0
BBX 15 15 0 0
BITMAP
0FE0
7FFC
7FFC
760C
E6FE
F61E
F61E
F6EE
F7EE
F6EE
F6EE
771C
7FFC
0FE0
0FE0
ENDCHAR
STARTCHAR 24F0
ENCODING 9456
SWIDTH 1020 0
DWIDTH 17 0
BBX 15 15 0 0
BITMAP
0FE0
7FFC
7FFC
771C
E6EE
F6FE
F61E
F61E
F6EE
F6EE
F6EE
771C
7FFC
0FE0
0FE0
ENDCHAR
STARTCHAR 24F1
ENCODING 9457
SWIDTH 1020 0
DWIDTH 17 0
BBX 15 15 0 0
BITMAP
0FE0
7FFC
7FFC
760C
E7EE
F7DE
F7DE
F7DE
F73E
F73E
F73E
773C
7FFC
0FE0
0FE0
ENDCHAR
STARTCHAR 24F2
ENCODING 9458
SWIDTH 1020 0
DWIDTH 17 0
BBX 15 15 0 0
BITMAP
0FE0
7FFC
7FFC
771C
E6EE
F6EE
F71E
F71E
F6EE
F6EE
F6EE
771C
7FFC
0FE0
0FE0
ENDCHAR
STARTCHAR 24F3
ENCODING 9459
SWIDTH 1020 0
DWIDTH 17 0
BBX 15 15 0 0
BITMAP
0FE0
7FFC
7FFC
771C
E6EE
F6EE
F70E
F70E
F7EE
F6EE
F6EE
771C
7FFC
0FE0
0FE0
ENDCHAR
STARTCHAR 24F4
ENCODING 9460
SWIDTH 1020 0
DWIDTH 17 0
BBX 15 15 0 0
BITMAP
0FE0
7FFC
7FFC
77DC
E92E
F92E
F92E
F72E
F72E
EF2E
EF2E
61DC
7FFC
7FFC
0FE0
ENDCHAR
STARTCHAR 24FF
ENCODING 9471
SWIDTH 1020 0
DWIDTH 17 0
BBX 15 15 0 0
BITMAP
0FE0
7FFC
7FFC
7C3C
F3DE
F3DE
F3DE
F3DE
F3DE
F3DE
F3DE
7C3C
7FFC
7FFC
0FE0
ENDCHAR
STARTCHAR 2500
ENCODING 9472
SWIDTH 1020 0
DWIDTH 17 0
BBX 17 1 0 7
BITMAP
FFFF80
ENDCHAR
STARTCHAR 2501
ENCODING 9473
SWIDTH 1020 0
DWIDTH 17 0
BBX 17 3 0 7
BITMAP
FFFF80
FFFF80
FFFF80
ENDCHAR
STARTCHAR 2502
ENCODING 9474
SWIDTH 1020 0
DWIDTH 17 0
BBX 1 17 7 0
BITMAP
80
80
80
80
80
80
80
80
80
80
80
80
80
80
80
80
80
ENDCHAR
STARTCHAR 2503
ENCODING 9475
SWIDTH 1020 0
DWIDTH 17 0
BBX 3 17 7 0
BITMAP
E0
E0
E0
E0
E0
E0
E0
E0
E0
E0
E0
E0
E0
E0
E0
E0
E0
ENDCHAR
STARTCHAR 2504
ENCODING 9476
SWIDTH 1020 0
DWIDTH 17 0
BBX 16 1 0 7
BITMAP
F3CF
ENDCHAR
STARTCHAR 2505
ENCODING 9477
SWIDTH 1020 0
DWIDTH 17 0
BBX 16 3 0 7
BITMAP
F3CF
F3CF
F3CF
ENDCHAR
STARTCHAR 2506
ENCODING 9478
SWIDTH 1020 0
DWIDTH 17 0
BBX 1 15 7 0
BITMAP
80
80
80
80
00
80
80
80
80
00
00
80
80
80
80
ENDCHAR
STARTCHAR 2507
ENCODING 9479
SWIDTH 1020 0
DWIDTH 17 0
BBX 3 15 7 0
BITMAP
E0
E0
E0
E0
00
E0
E0
E0
E0
00
00
E0
E0
E0
E0
ENDCHAR
STARTCHAR 2508
ENCODING 9480
SWIDTH 1020 0
DWIDTH 17 0
BBX 15 1 0 7
BITMAP
EEEE
ENDCHAR
STARTCHAR 2509
ENCODING 9481
SWIDTH 1020 0
DWIDTH 17 0
BBX 15 3 0 7
BITMAP
EEEE
EEEE
EEEE
ENDCHAR
STARTCHAR 250A
ENCODING 9482
SWIDTH 1020 0
DWIDTH 17 0
BBX 1 15 7 0
BITMAP
80
80
80
00
80
80
80
00
80
80
80
00
80
80
80
ENDCHAR
STARTCHAR 250B
ENCODING 9483
SWIDTH 1020 0
DWIDTH 17 0
BBX 3 15 7 0
BITMAP
E0
E0
E0
00
E0
E0
E0
00
E0
E0
E0
00
E0
E0
E0
ENDCHAR
STARTCHAR 250C
ENCODING 9484
SWIDTH 1020 0
DWIDTH 17 0
BBX 10 8 7 0
BITMAP
FFC0
8000
8000
8000
8000
8000
8000
8000
ENDCHAR
STARTCHAR 250D
ENCODING 9485
SWIDTH 1020 0
DWIDTH 17 0
BBX 10 10 7 0
BITMAP
FFC0
FFC0
FFC0
8000
8000
8000
8000
8000
8000
8000
ENDCHAR
STARTCHAR 250E
ENCODING 9486
SWIDTH 1020 0
DWIDTH 17 0
BBX 10 8 7 0
BITMAP
FFC0
E000
E000
E000
E000
E000
E000
E000
ENDCHAR
STARTCHAR 250F
ENCODING 9487
SWIDTH 1020 0
DWIDTH 17 0
BBX 10 10 7 0
BITMAP
FFC0
FFC0
FFC0
E000
E000
E000
E000
E000
E000
E000
ENDCHAR
STARTCHAR 2510
ENCODING 9488
SWIDTH 1020 0
DWIDTH 17 0
BBX 8 8 0 0
BITMAP
FF
01
01
01
01
01
01
01
ENDCHAR
STARTCHAR 2511
ENCODING 9489
SWIDTH 1020 0
DWIDTH 17 0
BBX 8 10 0 0
BITMAP
FF
FF
FF
01
01
01
01
01
01
01
ENDCHAR
STARTCHAR 2512
ENCODING 9490
SWIDTH 1020 0
DWIDTH 17 0
BBX 10 8 0 0
BITMAP
FFC0
01C0
01C0
01C0
01C0
01C0
01C0
01C0
ENDCHAR
STARTCHAR 2513
ENCODING 9491
SWIDTH 1020 0
DWIDTH 17 0
BBX 10 10 0 0
BITMAP
FFC0
FFC0
FFC0
01C0
01C0
01C0
01C0
01C0
01C0
01C0
ENDCHAR
STARTCHAR 2514
ENCODING 9492
SWIDTH 1020 0
DWIDTH 17 0
BBX 10 10 7 7
BITMAP
8000
8000
8000
8000
8000
8000
8000
8000
8000
FFC0
ENDCHAR
STARTCHAR 2515
ENCODING 9493
SWIDTH 1020 0
DWIDTH 17 0
BBX 10 10 7 7
BITMAP
8000
8000
8000
8000
8000
8000
8000
FFC0
FFC0
FFC0
ENDCHAR
STARTCHAR 2516
ENCODING 9494
SWIDTH 1020 0
DWIDTH 17 0
BBX 10 10 7 7
BITMAP
E000
E000
E000
E000
E000
E000
E000
E000
E000
FFC0
ENDCHAR
STARTCHAR 2517
ENCODING 9495
SWIDTH 1020 0
DWIDTH 17 0
BBX 10 10 7 7
BITMAP
E000
E000
E000
E000
E000
E000
E000
FFC0
FFC0
FFC0
ENDCHAR
STARTCHAR 2518
ENCODING 9496
SWIDTH 1020 0
DWIDTH 17 0
BBX 8 10 0 7
BITMAP
01
01
01
01
01
01
01
01
01
FF
ENDCHAR
STARTCHAR 2519
ENCODING 9497
SWIDTH 1020 0
DWIDTH 17 0
BBX 8 10 0 7
BITMAP
01
01
01
01
01
01
01
FF
FF
FF
ENDCHAR
STARTCHAR 251A
ENCODING 9498
SWIDTH 1020 0
DWIDTH 17 0
BBX 10 10 0 7
BITMAP
01C0
01C0
01C0
01C0
01C0
01C0
01C0
01C0
01C0
FFC0
ENDCHAR
STARTCHAR 251B
ENCODING 9499
SWIDTH 1020 0
DWIDTH 17 0
BBX 10 10 0 7
BITMAP
01C0
01C0
01C0
01C0
01C0
01C0
01C0
FFC0
FFC0
FFC0
ENDCHAR
STARTCHAR 251C
ENCODING 9500
SWIDTH 1020 0
DWIDTH 17 0
BBX 10 17 7 0
BITMAP
8000
8000
8000
8000
8000
8000
8000
8000
8000
FFC0
8000
8000
8000
8000
8000
8000
8000
ENDCHAR
STARTCHAR 251D
ENCODING 9501
SWIDTH 1020 0
DWIDTH 17 0
BBX 10 17 7 0
BITMAP
8000
8000
8000
8000
8000
8000
8000
FFC0
FFC0
FFC0
8000
8000
8000
8000
8000
8000
8000
ENDCHAR
STARTCHAR 251E
ENCODING 9502
SWIDTH 1020 0
DWIDTH 17 0
BBX 10 17 7 0
BITMAP
E000
E000
E000
E000
E000
E000
E000
E000
E000
FFC0
8000
8000
8000
8000
8000
8000
8000
ENDCHAR
STARTCHAR 251F
ENCODING 9503
SWIDTH 1020 0
DWIDTH 17 0
BBX 10 17 7 0
BITMAP
8000
8000
8000
8000
8000
8000
8000
8000
8000
FFC0
E000
E000
E000
E000
E000
E000
E000
ENDCHAR
STARTCHAR 2520
ENCODING 9504
SWIDTH 1020 0
DWIDTH 17 0
BBX 10 17 7 0
BITMAP
E000
E000
E000
E000
E000
E000
E000
E000
E000
FFC0
E000
E000
E000
E000
E000
E000
E000
ENDCHAR
STARTCHAR 2521
ENCODING 9505
SWIDTH 1020 0
DWIDTH 17 0
BBX 10 17 7 0
BITMAP
E000
E000
E000
E000
E000
E000
E000
FFC0
FFC0
FFC0
8000
8000
8000
8000
8000
8000
8000
ENDCHAR
STARTCHAR 2522
ENCODING 9506
SWIDTH 1020 0
DWIDTH 17 0
BBX 10 17 7 0
BITMAP
8000
8000
8000
8000
8000
8000
8000
FFC0
FFC0
FFC0
E000
E000
E000
E000
E000
E000
E000
ENDCHAR
STARTCHAR 2523
ENCODING 9507
SWIDTH 1020 0
DWIDTH 17 0
BBX 10 17 7 0
BITMAP
E000
E000
E000
E000
E000
E000
E000
FFC0
FFC0
FFC0
E000
E000
E000
E000
E000
E000
E000
ENDCHAR
STARTCHAR 2524
ENCODING 9508
SWIDTH 1020 0
DWIDTH 17 0
BBX 8 17 0 0
BITMAP
01
01
01
01
01
01
01
01
01
FF
01
01
01
01
01
01
01
ENDCHAR
STARTCHAR 2525
ENCODING 9509
SWIDTH 1020 0
DWIDTH 17 0
BBX 8 17 0 0
BITMAP
01
01
01
01
01
01
01
FF
FF
FF
01
01
01
01
01
01
01
ENDCHAR
STARTCHAR 2526
ENCODING 9510
SWIDTH 1020 0
DWIDTH 17 0
BBX 10 17 0 0
BITMAP
01C0
01C0
01C0
01C0
01C0
01C0
01C0
01C0
01C0
FFC0
0100
0100
0100
0100
0100
0100
0100
ENDCHAR
STARTCHAR 2527
ENCODING 9511
SWIDTH 1020 0
DWIDTH 17 0
BBX 10 17 0 0
BITMAP
0100
0100
0100
0100
0100
0100
0100
0100
0100
FFC0
01C0
01C0
01C0
01C0
01C0
01C0
01C0
ENDCHAR
STARTCHAR 2528
ENCODING 9512
SWIDTH 1020 0
DWIDTH 17 0
BBX 10 17 0 0
BITMAP
01C0
01C0
01C0
01C0
01C0
01C0
01C0
01C0
01C0
FFC0
01C0
01C0
01C0
01C0
01C0
01C0
01C0
ENDCHAR
STARTCHAR 2529
ENCODING 9513
SWIDTH 1020 0
DWIDTH 17 0
BBX 10 17 0 0
BITMAP
01C0
01C0
01C0
01C0
01C0
01C0
01C0
FFC0
FFC0
FFC0
0100
0100
0100
0100
0100
0100
0100
ENDCHAR
STARTCHAR 252A
ENCODING 9514
SWIDTH 1020 0
DWIDTH 17 0
BBX 10 17 0 0
BITMAP
0100
0100
0100
0100
0100
0100
0100
FFC0
FFC0
FFC0
01C0
01C0
01C0
01C0
01C0
01C0
01C0
ENDCHAR
STARTCHAR 252B
ENCODING 9515
SWIDTH 1020 0
DWIDTH 17 0
BBX 10 17 0 0
BITMAP
01C0
01C0
01C0
01C0
01C0
01C0
01C0
FFC0
FFC0
FFC0
01C0
01C0
01C0
01C0
01C0
01C0
01C0
ENDCHAR
STARTCHAR 252C
ENCODING 9516
SWIDTH 1020 0
DWIDTH 17 0
BBX 17 8 0 0
BITMAP
FFFF80
010000
010000
010000
010000
010000
010000
010000
ENDCHAR
STARTCHAR 252D
ENCODING 9517
SWIDTH 1020 0
DWIDTH 17 0
BBX 17 10 0 0
BITMAP
FF0000
FF0000
FFFF80
010000
010000
010000
010000
010000
010000
010000
ENDCHAR
STARTCHAR 252E
ENCODING 9518
SWIDTH 1020 0
DWIDTH 17 0
BBX 17 10 0 0
BITMAP
01FF80
01FF80
FFFF80
010000
010000
010000
010000
010000
010000
010000
ENDCHAR
STARTCHAR 252F
ENCODING 9519
SWIDTH 1020 0
DWIDTH 17 0
BBX 17 10 0 0
BITMAP
FFFF80
FFFF80
FFFF80
010000
010000
010000
010000
010000
010000
010000
ENDCHAR
STARTCHAR 2530
ENCODING 9520
SWIDTH 1020 0
DWIDTH 17 0
BBX 17 8 0 0
BITMAP
FFFF80
01C000
01C000
01C000
01C000
01C000
01C000
01C000
ENDCHAR
STARTCHAR 2531
ENCODING 9521
SWIDTH 1020 0
DWIDTH 17 0
BBX 17 10 0 0
BITMAP
FFC000
FFC000
FFFF80
01C000
01C000
01C000
01C000
01C000
01C000
01C000
ENDCHAR
STARTCHAR 2532
ENCODING 9522
SWIDTH 1020 0
DWIDTH 17 0
BBX 17 10 0 0
BITMAP
01FF80
01FF80
FFFF80
01C000
01C000
01C000
01C000
01C000
01C000
01C000
ENDCHAR
STARTCHAR 2533
ENCODING 9523
SWIDTH 1020 0
DWIDTH 17 0
BBX 17 10 0 0
BITMAP
FFFF80
FFFF80
FFFF80
01C000
01C000
01C000
01C000
01C000
01C000
01C000
ENDCHAR
STARTCHAR 2534
ENCODING 9524
SWIDTH 1020 0
DWIDTH 17 0
BBX 17 10 0 7
BITMAP
010000
010000
010000
010000
010000
010000
010000
010000
010000
FFFF80
ENDCHAR
STARTCHAR 2535
ENCODING 9525
SWIDTH 1020 0
DWIDTH 17 0
BBX 17 10 0 7
BITMAP
010000
010000
010000
010000
010000
010000
010000
FF0000
FF0000
FFFF80
ENDCHAR
STARTCHAR 2536
ENCODING 9526
SWIDTH 1020 0
DWIDTH 17 0
BBX 17 10 0 7
BITMAP
010000
010000
010000
010000
010000
010000
010000
01FF80
01FF80
FFFF80
ENDCHAR
STARTCHAR 2537
ENCODING 9527
SWIDTH 1020 0
DWIDTH 17 0
BBX 17 10 0 7
BITMAP
010000
010000
010000
010000
010000
010000
010000
FFFF80
FFFF80
FFFF80
ENDCHAR
STARTCHAR 2538
ENCODING 9528
SWIDTH 1020 0
DWIDTH 17 0
BBX 17 10 0 7
BITMAP
01C000
01C000
01C000
01C000
01C000
01C000
01C000
01C000
01C000
FFFF80
ENDCHAR
STARTCHAR 2539
ENCODING 9529
SWIDTH 1020 0
DWIDTH 17 0
BBX 17 10 0 7
BITMAP
01C000
01C000
01C000
01C000
01C000
01C000
01C000
FFC000
FFC000
FFFF80
ENDCHAR
STARTCHAR 253A
ENCODING 9530
SWIDTH 1020 0
DWIDTH 17 0
BBX 17 10 0 7
BITMAP
01C000
01C000
01C000
01C000
01C000
01C000
01C000
01FF80
01FF80
FFFF80
ENDCHAR
STARTCHAR 253B
ENCODING 9531
SWIDTH 1020 0
DWIDTH 17 0
BBX 17 10 0 7
BITMAP
01C000
01C000
01C000
01C000
01C000
01C000
01C000
FFFF80
FFFF80
FFFF80
ENDCHAR
STARTCHAR 253C
ENCODING 9532
SWIDTH 1020 0
DWIDTH 17 0
BBX 17 17 0 0
BITMAP
010000
010000
010000
010000
010000
010000
010000
010000
010000
FFFF80
010000
010000
010000
010000
010000
010000
010000
ENDCHAR
STARTCHAR 253D
ENCODING 9533
SWIDTH 1020 0
DWIDTH 17 0
BBX 17 17 0 0
BITMAP
010000
010000
010000
010000
010000
010000
010000
FF0000
FF0000
FFFF80
010000
010000
010000
010000
010000
010000
010000
ENDCHAR
STARTCHAR 253E
ENCODING 9534
SWIDTH 1020 0
DWIDTH 17 0
BBX 17 17 0 0
BITMAP
010000
010000
010000
010000
010000
010000
010000
01FF80
01FF80
FFFF80
010000
010000
010000
010000
010000
010000
010000
ENDCHAR
STARTCHAR 253F
ENCODING 9535
SWIDTH 1020 0
DWIDTH 17 0
BBX 17 17 0 0
BITMAP
010000
010000
010000
010000
010000
010000
010000
FFFF80
FFFF80
FFFF80
010000
010000
010000
010000
010000
010000
010000
ENDCHAR
STARTCHAR 2540
ENCODING 9536
SWIDTH 1020 0
DWIDTH 17 0
BBX 17 17 0 0
BITMAP
01C000
01C000
01C000
01C000
01C000
01C000
01C000
01C000
01C000
FFFF80
010000
010000
010000
010000
010000
010000
010000
ENDCHAR
STARTCHAR 2541
ENCODING 9537
SWIDTH 1020 0
DWIDTH 17 0
BBX 17 17 0 0
BITMAP
010000
010000
010000
010000
010000
010000
010000
010000
010000
FFFF80
01C000
01C000
01C000
01C000
01C000
01C000
01C000
ENDCHAR
STARTCHAR 2542
ENCODING 9538
SWIDTH 1020 0
DWIDTH 17 0
BBX 17 17 0 0
BITMAP
01C000
01C000
01C000
01C000
01C000
01C000
01C000
01C000
01C000
FFFF80
01C000
01C000
01C000
01C000
01C000
01C000
01C000
ENDCHAR
STARTCHAR 2543
ENCODING 9539
SWIDTH 1020 0
DWIDTH 17 0
BBX 17 17 0 0
BITMAP
01C000
01C000
01C000
01C000
01C000
01C000
01C000
FFC000
FFC000
FFFF80
010000
010000
010000
010000
010000
010000
010000
ENDCHAR
STARTCHAR 2544
ENCODING 9540
SWIDTH 1020 0
DWIDTH 17 0
BBX 17 17 0 0
BITMAP
01C000
01C000
01C000
01C000
01C000
01C000
01C000
01FF80
01FF80
FFFF80
010000
010000
010000
010000
010000
010000
010000
ENDCHAR
STARTCHAR 2545
ENCODING 9541
SWIDTH 1020 0
DWIDTH 17 0
BBX 17 17 0 0
BITMAP
010000
010000
010000
010000
010000
010000
010000
FFC000
FFC000
FFFF80
01C000
01C000
01C000
01C000
01C000
01C000
01C000
ENDCHAR
STARTCHAR 2546
ENCODING 9542
SWIDTH 1020 0
DWIDTH 17 0
BBX 17 17 0 0
BITMAP
010000
010000
010000
010000
010000
010000
010000
01FF80
01FF80
FFFF80
01C000
01C000
01C000
01C000
01C000
01C000
01C000
ENDCHAR
STARTCHAR 2547
ENCODING 9543
SWIDTH 1020 0
DWIDTH 17 0
BBX 17 17 0 0
BITMAP
01C000
01C000
01C000
01C000
01C000
01C000
01C000
FFFF80
FFFF80
FFFF80
010000
010000
010000
010000
010000
010000
010000
ENDCHAR
STARTCHAR 2548
ENCODING 9544
SWIDTH 1020 0
DWIDTH 17 0
BBX 17 17 0 0
BITMAP
010000
010000
010000
010000
010000
010000
010000
FFFF80
FFFF80
FFFF80
01C000
01C000
01C000
01C000
01C000
01C000
01C000
ENDCHAR
STARTCHAR 2549
ENCODING 9545
SWIDTH 1020 0
DWIDTH 17 0
BBX 17 17 0 0
BITMAP
01C000
01C000
01C000
01C000
01C000
01C000
01C000
FFC000
FFC000
FFFF80
01C000
01C000
01C000
01C000
01C000
01C000
01C000
ENDCHAR
STARTCHAR 254A
ENCODING 9546
SWIDTH 1020 0
DWIDTH 17 0
BBX 17 17 0 0
BITMAP
01C000
01C000
01C000
01C000
01C000
01C000
01C000
01FF80
01FF80
FFFF80
01C000
01C000
01C000
01C000
01C000
01C000
01C000
ENDCHAR
STARTCHAR 254B
ENCODING 9547
SWIDTH 1020 0
DWIDTH 17 0
BBX 17 17 0 0
BITMAP
01C000
01C000
01C000
01C000
01C000
01C000
01C000
FFFF80
FFFF80
FFFF80
01C000
01C000
01C000
01C000
01C000
01C000
01C000
ENDCHAR
STARTCHAR 254C
ENCODING 9548
SWIDTH 1020 0
DWIDTH 17 0
BBX 15 1 0 7
BITMAP
FEFE
ENDCHAR
STARTCHAR 254D
ENCODING 9549
SWIDTH 1020 0
DWIDTH 17 0
BBX 15 3 0 7
BITMAP
FEFE
FEFE
FEFE
ENDCHAR
STARTCHAR 254E
ENCODING 9550
SWIDTH 1020 0
DWIDTH 17 0
BBX 1 15 7 0
BITMAP
80
80
80
80
80
80
80
00
80
80
80
80
80
80
80
ENDCHAR
STARTCHAR 254F
ENCODING 9551
SWIDTH 1020 0
DWIDTH 17 0
BBX 3 15 7 0
BITMAP
E0
E0
E0
E0
E0
E0
E0
00
E0
E0
E0
E0
E0
E0
E0
ENDCHAR
STARTCHAR 2550
ENCODING 9552
SWIDTH 1020 0
DWIDTH 17 0
BBX 17 4 0 6
BITMAP
FFFF80
000000
000000
FFFF80
ENDCHAR
STARTCHAR 2551
ENCODING 9553
SWIDTH 1020 0
DWIDTH 17 0
BBX 4 17 6 0
BITMAP
90
90
90
90
90
90
90
90
90
90
90
90
90
90
90
90
90
ENDCHAR
STARTCHAR 2552
ENCODING 9554
SWIDTH 1020 0
DWIDTH 17 0
BBX 10 10 7 0
BITMAP
FFC0
8000
8000
FFC0
8000
8000
8000
8000
8000
8000
ENDCHAR
STARTCHAR 2553
ENCODING 9555
SWIDTH 1020 0
DWIDTH 17 0
BBX 11 8 6 0
BITMAP
FFE0
9000
9000
9000
9000
9000
9000
9000
ENDCHAR
STARTCHAR 2554
ENCODING 9556
SWIDTH 1020 0
DWIDTH 17 0
BBX 11 10 6 0
BITMAP
FFE0
8000
8000
9FE0
9000
9000
9000
9000
9000
9000
ENDCHAR
STARTCHAR 2555
ENCODING 9557
SWIDTH 1020 0
DWIDTH 17 0
BBX 8 10 0 0
BITMAP
FF
01
01
FF
01
01
01
01
01
01
ENDCHAR
STARTCHAR 2556
ENCODING 9558
SWIDTH 1020 0
DWIDTH 17 0
BBX 10 8 0 0
BITMAP
FFC0
0240
0240
0240
0240
0240
0240
0240
ENDCHAR
STARTCHAR 2557
ENCODING 9559
SWIDTH 1020 0
DWIDTH 17 0
BBX 10 10 0 0
BITMAP
FFC0
0040
0040
FE40
0240
0240
0240
0240
0240
0240
ENDCHAR
STARTCHAR 2558
ENCODING 9560
SWIDTH 1020 0
DWIDTH 17 0
BBX 10 11 7 6
BITMAP
8000
8000
8000
8000
8000
8000
8000
FFC0
8000
8000
FFC0
ENDCHAR
STARTCHAR 2559
ENCODING 9561
SWIDTH 1020 0
DWIDTH 17 0
BBX 11 10 6 7
BITMAP
9000
9000
9000
9000
9000
9000
9000
9000
9000
FFE0
ENDCHAR
STARTCHAR 255A
ENCODING 9562
SWIDTH 1020 0
DWIDTH 17 0
BBX 11 11 6 6
BITMAP
9000
9000
9000
9000
9000
9000
9000
9FE0
8000
8000
FFE0
ENDCHAR
STARTCHAR 255B
ENCODING 9563
SWIDTH 1020 0
DWIDTH 17 0
BBX 8 11 0 6
BITMAP
01
01
01
01
01
01
01
FF
01
01
FF
ENDCHAR
STARTCHAR 255C
ENCODING 9564
SWIDTH 1020 0
DWIDTH 17 0
BBX 10 10 0 7
BITMAP
0240
0240
0240
0240
0240
0240
0240
0240
0240
FFC0
ENDCHAR
STARTCHAR 255D
ENCODING 9565
SWIDTH 1020 0
DWIDTH 17 0
BBX 10 11 0 6
BITMAP
0240
0240
0240
0240
0240
0240
0240
FE40
0040
0040
FFC0
ENDCHAR
STARTCHAR 255E
ENCODING 9566
SWIDTH 1020 0
DWIDTH 17 0
BBX 10 17 7 0
BITMAP
8000
8000
8000
8000
8000
8000
8000
FFC0
8000
8000
FFC0
8000
8000
8000
8000
8000
8000
ENDCHAR
STARTCHAR 255F
ENCODING 9567
SWIDTH 1020 0
DWIDTH 17 0
BBX 11 17 6 0
BITMAP
9000
9000
9000
9000
9000
9000
9000
9000
9000
9FE0
9000
9000
9000
9000
9000
9000
9000
ENDCHAR
STARTCHAR 2560
ENCODING 9568
SWIDTH 1020 0
DWIDTH 17 0
BBX 11 17 6 0
BITMAP
9000
9000
9000
9000
9000
9000
9000
9FE0
8000
8000
9FE0
9000
9000
9000
9000
9000
9000
ENDCHAR
STARTCHAR 2561
ENCODING 9569
SWIDTH 1020 0
DWIDTH 17 0
BBX 8 17 0 0
BITMAP
01
01
01
01
01
01
01
FF
01
01
FF
01
01
01
01
01
01
ENDCHAR
STARTCHAR 2562
ENCODING 9570
SWIDTH 1020 0
DWIDTH 17 0
BBX 10 17 0 0
BITMAP
0240
0240
0240
0240
0240
0240
0240
0240
0240
FE40
0240
0240
0240
0240
0240
0240
0240
ENDCHAR
STARTCHAR 2563
ENCODING 9571
SWIDTH 1020 0
DWIDTH 17 0
BBX 10 17 0 0
BITMAP
0240
0240
0240
0240
0240
0240
0240
FE40
0040
0040
FE40
0240
0240
0240
0240
0240
0240
ENDCHAR
STARTCHAR 2564
ENCODING 9572
SWIDTH 1020 0
DWIDTH 17 0
BBX 17 10 0 0
BITMAP
FFFF80
000000
000000
FFFF80
010000
010000
010000
010000
010000
010000
ENDCHAR
STARTCHAR 2565
ENCODING 9573
SWIDTH 1020 0
DWIDTH 17 0
BBX 17 8 0 0
BITMAP
FFFF80
02C000
02C000
02C000
02C000
02C000
02C000
02C000
ENDCHAR
STARTCHAR 2566
ENCODING 9574
SWIDTH 1020 0
DWIDTH 17 0
BBX 17 10 0 0
BITMAP
FFFF80
000000
000000
FEFF80
02C000
02C000
02C000
02C000
02C000
02C000
ENDCHAR
STARTCHAR 2567
ENCODING 9575
SWIDTH 1020 0
DWIDTH 17 0
BBX 17 11 0 6
BITMAP
010000
010000
010000
010000
010000
010000
010000
FFFF80
000000
000000
FFFF80
ENDCHAR
STARTCHAR 2568
ENCODING 9576
SWIDTH 1020 0
DWIDTH 17 0
BBX 17 10 0 7
BITMAP
02C000
02C000
02C000
02C000
02C000
02C000
02C000
02C000
02C000
FFFF80
ENDCHAR
STARTCHAR 2569
ENCODING 9577
SWIDTH 1020 0
DWIDTH 17 0
BBX 17 11 0 6
BITMAP
02C000
02C000
02C000
02C000
02C000
02C000
02C000
FEFF80
000000
000000
FFFF80
ENDCHAR
STARTCHAR 256A
ENCODING 9578
SWIDTH 1020 0
DWIDTH 17 0
BBX 17 17 0 0
BITMAP
010000
010000
010000
010000
010000
010000
010000
FFFF80
010000
010000
FFFF80
010000
010000
010000
010000
010000
010000
ENDCHAR
STARTCHAR 256B
ENCODING 9579
SWIDTH 1020 0
DWIDTH 17 0
BBX 17 17 0 0
BITMAP
02C000
02C000
02C000
02C000
02C000
02C000
02C000
02C000
02C000
FFFF80
02C000
02C000
02C000
02C000
02C000
02C000
02C000
ENDCHAR
STARTCHAR 256C
ENCODING 9580
SWIDTH 1020 0
DWIDTH 17 0
BBX 17 17 0 0
BITMAP
024000
024000
024000
024000
024000
024000
024000
FE7F80
000000
000000
FE7F80
024000
024000
024000
024000
024000
024000
ENDCHAR
STARTCHAR 256D
ENCODING 9581
SWIDTH 1020 0
DWIDTH 17 0
BBX 10 8 7 0
BITMAP
01C0
0E00
1000
1000
6000
6000
6000
8000
ENDCHAR
STARTCHAR 256E
ENCODING 9582
SWIDTH 1020 0
DWIDTH 17 0
BBX 8 8 0 0
BITMAP
80
70
08
08
06
06
06
01
ENDCHAR
STARTCHAR 256F
ENCODING 9583
SWIDTH 1020 0
DWIDTH 17 0
BBX 8 10 0 7
BITMAP
01
01
01
06
06
06
08
70
70
80
ENDCHAR
STARTCHAR 2570
ENCODING 9584
SWIDTH 1020 0
DWIDTH 17 0
BBX 10 10 7 7
BITMAP
8000
8000
8000
6000
6000
6000
1000
0E00
0E00
01C0
ENDCHAR
STARTCHAR 2571
ENCODING 9585
SWIDTH 1020 0
DWIDTH 17 0
BBX 17 16 0 0
BITMAP
000180
000200
000C00
001000
001000
002000
004000
004000
018000
020000
020000
0C0000
100000
600000
000000
800000
ENDCHAR
STARTCHAR 2572
ENCODING 9586
SWIDTH 1020 0
DWIDTH 17 0
BBX 15 15 0 0
BITMAP
8000
6000
1000
1000
0C00
0200
0200
0180
0040
0040
0020
0010
000C
0000
0002
ENDCHAR
STARTCHAR 2573
ENCODING 9587
SWIDTH 1020 0
DWIDTH 17 0
BBX 17 16 0 0
BITMAP
000180
800200
600C00
101000
101000
0C2000
024000
024000
018000
024000
024000
0C2000
101000
600C00
000000
800200
ENDCHAR
STARTCHAR 2574
ENCODING 9588
SWIDTH 1020 0
DWIDTH 17 0
BBX 8 1 0 7
BITMAP
FF
ENDCHAR
STARTCHAR 2575
ENCODING 9589
SWIDTH 1020 0
DWIDTH 17 0
BBX 1 10 7 7
BITMAP
80
80
80
80
80
80
80
80
80
80
ENDCHAR
STARTCHAR 2576
ENCODING 9590
SWIDTH 1020 0
DWIDTH 17 0
BBX 10 1 7 7
BITMAP
FFC0
ENDCHAR
STARTCHAR 2577
ENCODING 9591
SWIDTH 1020 0
DWIDTH 17 0
BBX 1 8 7 0
BITMAP
80
80
80
80
80
80
80
80
ENDCHAR
STARTCHAR 2578
ENCODING 9592
SWIDTH 1020 0
DWIDTH 17 0
BBX 8 3 0 7
BITMAP
FF
FF
FF
ENDCHAR
STARTCHAR 2579
ENCODING 9593
SWIDTH 1020 0
DWIDTH 17 0
BBX 3 10 7 7
BITMAP
E0
E0
E0
E0
E0
E0
E0
E0
E0
E0
ENDCHAR
STARTCHAR 257A
ENCODING 9594
SWIDTH 1020 0
DWIDTH 17 0
BBX 10 3 7 7
BITMAP
FFC0
FFC0
FFC0
ENDCHAR
STARTCHAR 257B
ENCODING 9595
SWIDTH 1020 0
DWIDTH 17 0
BBX 3 8 7 0
BITMAP
E0
E0
E0
E0
E0
E0
E0
E0
ENDCHAR
STARTCHAR 257C
ENCODING 9596
SWIDTH 1020 0
DWIDTH 17 0
BBX 17 3 0 7
BITMAP
01FF80
01FF80
FFFF80
ENDCHAR
STARTCHAR 257D
ENCODING 9597
SWIDTH 1020 0
DWIDTH 17 0
BBX 3 17 7 0
BITMAP
80
80
80
80
80
80
80
80
80
E0
E0
E0
E0
E0
E0
E0
E0
ENDCHAR
STARTCHAR 257E
ENCODING 9598
SWIDTH 1020 0
DWIDTH 17 0
BBX 17 3 0 7
BITMAP
FF0000
FF0000
FFFF80
ENDCHAR
STARTCHAR 257F
ENCODING 9599
SWIDTH 1020 0
DWIDTH 17 0
BBX 3 17 7 0
BITMAP
E0
E0
E0
E0
E0
E0
E0
E0
E0
E0
80
80
80
80
80
80
80
ENDCHAR
STARTCHAR 2580
ENCODING 9600
SWIDTH 1020 0
DWIDTH 17 0
BBX 17 8 0 8
BITMAP
FFFF80
FFFF80
FFFF80
FFFF80
FFFF80
FFFF80
FFFF80
FFFF80
ENDCHAR
STARTCHAR 2581
ENCODING 9601
SWIDTH 1020 0
DWIDTH 17 0
BBX 17 3 0 0
BITMAP
FFFF80
FFFF80
FFFF80
ENDCHAR
STARTCHAR 2582
ENCODING 9602
SWIDTH 1020 0
DWIDTH 17 0
BBX 17 4 0 0
BITMAP
FFFF80
FFFF80
FFFF80
FFFF80
ENDCHAR
STARTCHAR 2583
ENCODING 9603
SWIDTH 1020 0
DWIDTH 17 0
BBX 17 7 0 0
BITMAP
FFFF80
FFFF80
FFFF80
FFFF80
FFFF80
FFFF80
FFFF80
ENDCHAR
STARTCHAR 2584
ENCODING 9604
SWIDTH 1020 0
DWIDTH 17 0
BBX 17 8 0 0
BITMAP
FFFF80
FFFF80
FFFF80
FFFF80
FFFF80
FFFF80
FFFF80
FFFF80
ENDCHAR
STARTCHAR 2585
ENCODING 9605
SWIDTH 1020 0
DWIDTH 17 0
BBX 17 11 0 0
BITMAP
FFFF80
FFFF80
FFFF80
FFFF80
FFFF80
FFFF80
FFFF80
FFFF80
FFFF80
FFFF80
FFFF80
ENDCHAR
STARTCHAR 2586
ENCODING 9606
SWIDTH 1020 0
DWIDTH 17 0
BBX 17 13 0 0
BITMAP
FFFF80
FFFF80
FFFF80
FFFF80
FFFF80
FFFF80
FFFF80
FFFF80
FFFF80
FFFF80
FFFF80
FFFF80
FFFF80
ENDCHAR
STARTCHAR 2587
ENCODING 9607
SWIDTH 1020 0
DWIDTH 17 0
BBX 17 15 0 0
BITMAP
FFFF80
FFFF80
FFFF80
FFFF80
FFFF80
FFFF80
FFFF80
FFFF80
FFFF80
FFFF80
FFFF80
FFFF80
FFFF80
FFFF80
FFFF80
ENDCHAR
STARTCHAR 2588
ENCODING 9608
SWIDTH 1020 0
DWIDTH 17 0
BBX 17 17 0 0
BITMAP
FFFF80
FFFF80
FFFF80
FFFF80
FFFF80
FFFF80
FFFF80
FFFF80
FFFF80
FFFF80
FFFF80
FFFF80
FFFF80
FFFF80
FFFF80
FFFF80
FFFF80
ENDCHAR
STARTCHAR 2589
ENCODING 9609
SWIDTH 1020 0
DWIDTH 17 0
BBX 15 17 0 0
BITMAP
FFFE
FFFE
FFFE
FFFE
FFFE
FFFE
FFFE
FFFE
FFFE
FFFE
FFFE
FFFE
FFFE
FFFE
FFFE
FFFE
FFFE
ENDCHAR
STARTCHAR 258A
ENCODING 9610
SWIDTH 1020 0
DWIDTH 17 0
BBX 13 17 0 0
BITMAP
FFF8
FFF8
FFF8
FFF8
FFF8
FFF8
FFF8
FFF8
FFF8
FFF8
FFF8
FFF8
FFF8
FFF8
FFF8
FFF8
FFF8
ENDCHAR
STARTCHAR 258B
ENCODING 9611
SWIDTH 1020 0
DWIDTH 17 0
BBX 11 17 0 0
BITMAP
FFE0
FFE0
FFE0
FFE0
FFE0
FFE0
FFE0
FFE0
FFE0
FFE0
FFE0
FFE0
FFE0
FFE0
FFE0
FFE0
FFE0
ENDCHAR
STARTCHAR 258C
ENCODING 9612
SWIDTH 1020 0
DWIDTH 17 0
BBX 8 17 0 0
BITMAP
FF
FF
FF
FF
FF
FF
FF
FF
FF
FF
FF
FF
FF
FF
FF
FF
FF
ENDCHAR
STARTCHAR 258D
ENCODING 9613
SWIDTH 1020 0
DWIDTH 17 0
BBX 7 17 0 0
BITMAP
FE
FE
FE
FE
FE
FE
FE
FE
FE
FE
FE
FE
FE
FE
FE
FE
FE
ENDCHAR
STARTCHAR 258E
ENCODING 9614
SWIDTH 1020 0
DWIDTH 17 0
BBX 4 17 0 0
BITMAP
F0
F0
F0
F0
F0
F0
F0
F0
F0
F0
F0
F0
F0
F0
F0
F0
F0
ENDCHAR
STARTCHAR 258F
ENCODING 9615
SWIDTH 1020 0
DWIDTH 17 0
BBX 3 17 0 0
BITMAP
E0
E0
E0
E0
E0
E0
E0
E0
E0
E0
E0
E0
E0
E0
E0
E0
E0
ENDCHAR
STARTCHAR 2590
ENCODING 9616
SWIDTH 1020 0
DWIDTH 17 0
BBX 8 17 8 0
BITMAP
FF
FF
FF
FF
FF
FF
FF
FF
FF
FF
FF
FF
FF
FF
FF
FF
FF
ENDCHAR
STARTCHAR 2591
ENCODING 9617
SWIDTH 1020 0
DWIDTH 17 0
BBX 15 14 0 2
BITMAP
9252
0000
9252
0000
0000
9252
0000
0000
9252
0000
0000
9252
0000
9252
ENDCHAR
STARTCHAR 2592
ENCODING 9618
SWIDTH 1020 0
DWIDTH 17 0
BBX 17 16 0 0
BITMAP
925200
6DAD80
925200
6DAD80
6DAD80
925200
6DAD80
6DAD80
925200
6DAD80
6DAD80
925200
6DAD80
925200
000000
6DAD80
ENDCHAR
STARTCHAR 2593
ENCODING 9619
SWIDTH 1020 0
DWIDTH 17 0
BBX 17 17 0 0
BITMAP
925200
925200
FFFF80
925200
925200
FFFF80
925200
FFFF80
925200
925200
FFFF80
925200
925200
FFFF80
925200
925200
FFFF80
ENDCHAR
STARTCHAR 2594
ENCODING 9620
SWIDTH 1020 0
DWIDTH 17 0
BBX 17 3 0 14
BITMAP
FFFF80
FFFF80
FFFF80
ENDCHAR
STARTCHAR 2595
ENCODING 9621
SWIDTH 1020 0
DWIDTH 17 0
BBX 3 17 14 0
BITMAP
E0
E0
E0
E0
E0
E0
E0
E0
E0
E0
E0
E0
E0
E0
E0
E0
E0
ENDCHAR
STARTCHAR 2596
ENCODING 9622
SWIDTH 1020 0
DWIDTH 17 0
BBX 8 8 0 0
BITMAP
FF
FF
FF
FF
FF
FF
FF
FF
ENDCHAR
STARTCHAR 2597
ENCODING 9623
SWIDTH 1020 0
DWIDTH 17 0
BBX 8 8 8 0
BITMAP
FF
FF
FF
FF
FF
FF
FF
FF
ENDCHAR
STARTCHAR 2598
ENCODING 9624
SWIDTH 1020 0
DWIDTH 17 0
BBX 8 8 0 8
BITMAP
FF
FF
FF
FF
FF
FF
FF
FF
ENDCHAR
STARTCHAR 2599
ENCODING 9625
SWIDTH 1020 0
DWIDTH 17 0
BBX 17 17 0 0
BITMAP
FF0000
FF0000
FF0000
FF0000
FF0000
FF0000
FF0000
FF0000
FF0000
FFFF80
FFFF80
FFFF80
FFFF80
FFFF80
FFFF80
FFFF80
FFFF80
ENDCHAR
STARTCHAR 259A
ENCODING 9626
SWIDTH 1020 0
DWIDTH 17 0
BBX 17 16 0 0
BITMAP
FF0000
FF0000
FF0000
FF0000
FF0000
FF0000
FF0000
FF0000
00FF80
00FF80
00FF80
00FF80
00FF80
00FF80
00FF80
00FF80
ENDCHAR
STARTCHAR 259B
ENCODING 9627
SWIDTH 1020 0
DWIDTH 17 0
BBX 17 16 0 0
BITMAP
FFFF80
FFFF80
FFFF80
FFFF80
FFFF80
FFFF80
FFFF80
FFFF80
FF0000
FF0000
FF0000
FF0000
FF0000
FF0000
FF0000
FF0000
ENDCHAR
STARTCHAR 259C
ENCODING 9628
SWIDTH 1020 0
DWIDTH 17 0
BBX 16 16 0 0
BITMAP
FFFF
FFFF
FFFF
FFFF
FFFF
FFFF
FFFF
FFFF
00FF
00FF
00FF
00FF
00FF
00FF
00FF
00FF
ENDCHAR
STARTCHAR 259D
ENCODING 9629
SWIDTH 1020 0
DWIDTH 17 0
BBX 8 8 8 8
BITMAP
FF
FF
FF
FF
FF
FF
FF
FF
ENDCHAR
STARTCHAR 259E
ENCODING 9630
SWIDTH 1020 0
DWIDTH 17 0
BBX 17 16 0 0
BITMAP
00FF80
00FF80
00FF80
00FF80
00FF80
00FF80
00FF80
00FF80
FF0000
FF0000
FF0000
FF0000
FF0000
FF0000
FF0000
FF0000
ENDCHAR
STARTCHAR 259F
ENCODING 9631
SWIDTH 1020 0
DWIDTH 17 0
BBX 16 17 0 0
BITMAP
00FF
00FF
00FF
00FF
00FF
00FF
00FF
00FF
00FF
FFFF
FFFF
FFFF
FFFF
FFFF
FFFF
FFFF
FFFF
ENDCHAR
STARTCHAR 25A0
ENCODING 9632
SWIDTH 1020 0
DWIDTH 17 0
BBX 15 15 0 0
BITMAP
FFFE
FFFE
FFFE
FFFE
FFFE
FFFE
FFFE
FFFE
FFFE
FFFE
FFFE
FFFE
FFFE
FFFE
FFFE
ENDCHAR
STARTCHAR 25A1
ENCODING 9633
SWIDTH 1020 0
DWIDTH 17 0
BBX 15 15 0 0
BITMAP
FFFE
8002
8002
8002
8002
8002
8002
8002
8002
8002
8002
8002
8002
8002
FFFE
ENDCHAR
STARTCHAR 25A2
ENCODING 9634
SWIDTH 1020 0
DWIDTH 17 0
BBX 15 15 0 0
BITMAP
7FFC
8002
8002
8002
8002
8002
8002
8002
8002
8002
8002
8002
8002
8002
7FFC
ENDCHAR
STARTCHAR 25A3
ENCODING 9635
SWIDTH 1020 0
DWIDTH 17 0
BBX 15 15 0 0
BITMAP
FFFE
8002
8002
8002
8FE2
8FE2
8FE2
8FE2
8FE2
8FE2
8FE2
8002
8002
8002
FFFE
ENDCHAR
STARTCHAR 25A4
ENCODING 9636
SWIDTH 1020 0
DWIDTH 17 0
BBX 15 15 0 0
BITMAP
FFFE
8002
8002
FFFE
8002
FFFE
8002
8002
FFFE
8002
8002
FFFE
8002
8002
FFFE
ENDCHAR
STARTCHAR 25A5
ENCODING 9637
SWIDTH 1020 0
DWIDTH 17 0
BBX 15 15 0 0
BITMAP
FFFE
9252
9252
9252
9252
9252
9252
9252
9252
9252
9252
9252
9252
9252
FFFE
ENDCHAR
STARTCHAR 25A6
ENCODING 9638
SWIDTH 1020 0
DWIDTH 17 0
BBX 15 15 0 0
BITMAP
FFFE
9252
9252
FFFE
9252
FFFE
9252
9252
FFFE
9252
9252
FFFE
9252
9252
FFFE
ENDCHAR
STARTCHAR 25A7
ENCODING 9639
SWIDTH 1020 0
DWIDTH 17 0
BBX 15 15 0 0
BITMAP
FFFE
E222
E222
9192
8C4E
E222
9192
9192
8C4E
E222
E222
9192
8C4E
8C4E
FFFE
ENDCHAR
STARTCHAR 25A8
ENCODING 9640
SWIDTH 1020 0
DWIDTH 17 0
BBX 15 15 0 0
BITMAP
FFFE
8C4E
8C4E
9192
E222
8C4E
9192
9192
E222
8C4E
8C4E
9192
E222
E222
FFFE
ENDCHAR
STARTCHAR 25A9
ENCODING 9641
SWIDTH 1020 0
DWIDTH 17 0
BBX 15 15 0 0
BITMAP
FFFE
EEEE
EEEE
9112
EEEE
EEEE
EEEE
9112
EEEE
EEEE
EEEE
9112
EEEE
EEEE
FFFE
ENDCHAR
STARTCHAR 25AA
ENCODING 9642
SWIDTH 1020 0
DWIDTH 17 0
BBX 7 7 4 4
BITMAP
FE
FE
FE
FE
FE
FE
FE
ENDCHAR
STARTCHAR 25AB
ENCODING 9643
SWIDTH 1020 0
DWIDTH 17 0
BBX 7 7 4 4
BITMAP
FE
82
82
82
82
82
FE
ENDCHAR
STARTCHAR 25AC
ENCODING 9644
SWIDTH 1020 0
DWIDTH 17 0
BBX 15 7 0 4
BITMAP
FFFE
FFFE
FFFE
FFFE
FFFE
FFFE
FFFE
ENDCHAR
STARTCHAR 25AD
ENCODING 9645
SWIDTH 1020 0
DWIDTH 17 0
BBX 15 7 0 4
BITMAP
FFFE
8002
8002
8002
8002
8002
FFFE
ENDCHAR
STARTCHAR 25AE
ENCODING 9646
SWIDTH 1020 0
DWIDTH 17 0
BBX 7 15 4 0
BITMAP
FE
FE
FE
FE
FE
FE
FE
FE
FE
FE
FE
FE
FE
FE
FE
ENDCHAR
STARTCHAR 25AF
ENCODING 9647
SWIDTH 1020 0
DWIDTH 17 0
BBX 7 15 4 0
BITMAP
FE
82
82
82
82
82
82
82
82
82
82
82
82
82
FE
ENDCHAR
STARTCHAR 25B0
ENCODING 9648
SWIDTH 1020 0
DWIDTH 17 0
BBX 15 7 0 4
BITMAP
7FFE
7FFE
7FFE
FFFE
FFFC
FFFC
FFFC
ENDCHAR
STARTCHAR 25B1
ENCODING 9649
SWIDTH 1020 0
DWIDTH 17 0
BBX 15 7 0 4
BITMAP
7FFE
6002
6002
8002
8004
8004
FFFC
ENDCHAR
STARTCHAR 25B2
ENCODING 9650
SWIDTH 1020 0
DWIDTH 17 0
BBX 15 15 0 0
BITMAP
0100
03C0
03C0
03C0
0FE0
0FE0
0FE0
1FF8
1FF8
7FFC
7FFC
7FFC
FFFE
FFFE
FFFE
ENDCHAR
STARTCHAR 25B3
ENCODING 9651
SWIDTH 1020 0
DWIDTH 17 0
BBX 15 15 0 0
BITMAP
0180
0240
0240
0240
0C20
0C20
0C20
1010
1010
600C
600C
600C
8002
8002
FFFE
ENDCHAR
STARTCHAR 25B4
ENCODING 9652
SWIDTH 1020 0
DWIDTH 17 0
BBX 7 7 4 4
BITMAP
10
7C
7C
7C
FE
FE
FE
ENDCHAR
STARTCHAR 25B5
ENCODING 9653
SWIDTH 1020 0
DWIDTH 17 0
BBX 7 7 4 4
BITMAP
10
6C
6C
6C
82
82
FE
ENDCHAR
STARTCHAR 25B6
ENCODING 9654
SWIDTH 1020 0
DWIDTH 17 0
BBX 15 15 0 0
BITMAP
E000
FC00
FF00
FF00
FFE0
FFFC
FFFC
FFFE
FFFC
FFE0
FFE0
FF00
FC00
FC00
E000
ENDCHAR
STARTCHAR 25B7
ENCODING 9655
SWIDTH 1020 0
DWIDTH 17 0
BBX 15 15 0 0
BITMAP
E000
9C00
8300
8300
80E0
801C
801C
8002
801C
801C
80E0
8300
9C00
8000
E000
ENDCHAR
STARTCHAR 25B8
ENCODING 9656
SWIDTH 1020 0
DWIDTH 17 0
BBX 7 7 4 4
BITMAP
E0
FC
FC
FE
FC
FC
E0
ENDCHAR
STARTCHAR 25B9
ENCODING 9657
SWIDTH 1020 0
DWIDTH 17 0
BBX 7 7 4 4
BITMAP
E0
9C
9C
82
9C
9C
E0
ENDCHAR
STARTCHAR 25BA
ENCODING 9658
SWIDTH 1020 0
DWIDTH 17 0
BBX 15 10 0 3
BITMAP
F000
F000
FF00
FFF8
FFFE
FFFE
FFF8
FF00
FF00
F000
ENDCHAR
STARTCHAR 25BB
ENCODING 9659
SWIDTH 1020 0
DWIDTH 17 0
BBX 15 9 0 3
BITMAP
F000
8F00
80F0
800E
800E
80F0
8F00
8F00
F000
ENDCHAR
STARTCHAR 25BC
ENCODING 9660
SWIDTH 1020 0
DWIDTH 17 0
BBX 15 15 0 0
BITMAP
FFFE
FFFE
FFFE
7FFC
7FFC
7FFC
1FF8
1FF8
0FE0
0FE0
0FE0
03C0
03C0
03C0
0100
ENDCHAR
STARTCHAR 25BD
ENCODING 9661
SWIDTH 1020 0
DWIDTH 17 0
BBX 15 15 0 0
BITMAP
FFFE
8002
8002
600C
600C
1010
1010
1010
0C20
0C20
0C20
0240
0240
0240
0180
ENDCHAR
STARTCHAR 25BE
ENCODING 9662
SWIDTH 1020 0
DWIDTH 17 0
BBX 7 7 4 4
BITMAP
FE
FE
FE
7C
7C
7C
10
ENDCHAR
STARTCHAR 25BF
ENCODING 9663
SWIDTH 1020 0
DWIDTH 17 0
BBX 7 7 4 4
BITMAP
FE
82
82
6C
6C
6C
10
ENDCHAR
STARTCHAR 25C0
ENCODING 9664
SWIDTH 1020 0
DWIDTH 17 0
BBX 15 15 0 0
BITMAP
000E
007E
01FE
01FE
0FFE
7FFE
7FFE
FFFE
7FFE
0FFE
0FFE
01FE
007E
007E
000E
ENDCHAR
STARTCHAR 25C1
ENCODING 9665
SWIDTH 1020 0
DWIDTH 17 0
BBX 15 15 0 0
BITMAP
000E
003A
01C2
01C2
0E02
7002
7002
8002
7002
7002
0E02
01C2
003A
0002
000E
ENDCHAR
STARTCHAR 25C2
ENCODING 9666
SWIDTH 1020 0
DWIDTH 17 0
BBX 7 7 4 4
BITMAP
0E
7E
7E
FE
7E
7E
0E
ENDCHAR
STARTCHAR 25C3
ENCODING 9667
SWIDTH 1020 0
DWIDTH 17 0
BBX 7 7 4 4
BITMAP
0E
72
72
82
72
72
0E
ENDCHAR
STARTCHAR 25C4
ENCODING 9668
SWIDTH 1020 0
DWIDTH 17 0
BBX 15 10 0 3
BITMAP
001E
001E
01FE
1FFE
FFFE
FFFE
1FFE
01FE
01FE
001E
ENDCHAR
STARTCHAR 25C5
ENCODING 9669
SWIDTH 1020 0
DWIDTH 17 0
BBX 15 9 0 3
BITMAP
001E
01E2
1E02
E002
E002
1E02
01E2
01E2
001E
ENDCHAR
STARTCHAR 25C6
ENCODING 9670
SWIDTH 1020 0
DWIDTH 17 0
BBX 15 15 0 0
BITMAP
0100
03C0
0FE0
0FE0
1FF8
7FFC
7FFC
FFFE
7FFC
1FF8
1FF8
0FE0
03C0
03C0
0100
ENDCHAR
STARTCHAR 25C7
ENCODING 9671
SWIDTH 1020 0
DWIDTH 17 0
BBX 15 15 0 0
BITMAP
0180
0240
0C20
0C20
1010
600C
600C
8002
600C
600C
1010
0C20
0240
0000
0180
ENDCHAR
STARTCHAR 25C8
ENCODING 9672
SWIDTH 1020 0
DWIDTH 17 0
BBX 15 15 0 0
BITMAP
0180
0240
0C20
0C20
1190
63CC
63CC
8FE2
63CC
63CC
1190
0C20
0240
0000
0180
ENDCHAR
STARTCHAR 25C9
ENCODING 9673
SWIDTH 1020 0
DWIDTH 17 0
BBX 15 15 0 0
BITMAP
03C0
1C38
6004
6004
63C4
8FE2
8FE2
8FE2
8FE2
8FE2
63C4
6004
1C38
0000
03C0
ENDCHAR
STARTCHAR 25CA
ENCODING 9674
SWIDTH 1020 0
DWIDTH 17 0
BBX 15 15 0 0
BITMAP
0180
0240
0C20
0C20
1010
600C
600C
8002
600C
600C
1010
0C20
0240
0000
0180
ENDCHAR
STARTCHAR 25CB
ENCODING 9675
SWIDTH 1020 0
DWIDTH 17 0
BBX 15 15 0 0
BITMAP
03C0
1C38
6004
6004
6004
8002
8002
8002
8002
6004
6004
6004
1C38
0000
03C0
ENDCHAR
STARTCHAR 25CC
ENCODING 9676
SWIDTH 1020 0
DWIDTH 17 0
BBX 15 15 0 0
BITMAP
0240
1010
1010
600C
0000
8002
0000
0000
8002
0000
0000
600C
1010
0000
0240
ENDCHAR
STARTCHAR 25CD
ENCODING 9677
SWIDTH 1020 0
DWIDTH 17 0
BBX 15 15 0 0
BITMAP
03C0
1E70
725C
725C
725C
9252
9252
9252
9252
725C
725C
725C
1E70
0240
03C0
ENDCHAR
STARTCHAR 25CE
ENCODING 9678
SWIDTH 1020 0
DWIDTH 17 0
BBX 15 15 0 0
BITMAP
07C0
1838
6004
6004
67C4
8822
8822
8822
8822
8822
67C4
6004
1838
0000
07C0
ENDCHAR
STARTCHAR 25CF
ENCODING 9679
SWIDTH 1020 0
DWIDTH 17 0
BBX 15 15 0 0
BITMAP
03C0
1FF8
7FFC
7FFC
7FFC
FFFE
FFFE
FFFE
FFFE
7FFC
7FFC
7FFC
1FF8
1FF8
03C0
ENDCHAR
STARTCHAR 25D0
ENCODING 9680
SWIDTH 1020 0
DWIDTH 17 0
BBX 15 15 0 0
BITMAP
03C0
1E38
7E04
7E04
7E04
FE02
FE02
FE02
FE02
7E04
7E04
7E04
1E38
1E38
03C0
ENDCHAR
STARTCHAR 25D1
ENCODING 9681
SWIDTH 1020 0
DWIDTH 17 0
BBX 15 15 0 0
BITMAP
0380
1CF0
60FC
60FC
60FC
80FE
80FE
80FE
80FE
60FC
60FC
60FC
1CF0
1CF0
0380
ENDCHAR
STARTCHAR 25D2
ENCODING 9682
SWIDTH 1020 0
DWIDTH 17 0
BBX 15 15 0 0
BITMAP
03C0
1C38
6004
6004
6004
8002
8002
8002
FFFE
7FFC
7FFC
7FFC
1FF8
1FF8
03C0
ENDCHAR
STARTCHAR 25D3
ENCODING 9683
SWIDTH 1020 0
DWIDTH 17 0
BBX 15 15 0 0
BITMAP
03C0
1FF8
7FFC
7FFC
7FFC
FFFE
8002
8002
8002
6004
6004
6004
1C38
0000
03C0
ENDCHAR
STARTCHAR 25D4
ENCODING 9684
SWIDTH 1020 0
DWIDTH 17 0
BBX 15 15 0 0
BITMAP
03C0
1DF8
61FC
61FC
61FC
81FE
81FE
81FE
8002
6004
6004
6004
1C38
0000
03C0
ENDCHAR
STARTCHAR 25D5
ENCODING 9685
SWIDTH 1020 0
DWIDTH 17 0
BBX 15 15 0 0
BITMAP
03C0
1C78
607C
607C
607C
807E
807E
807E
FFFE
7FFC
7FFC
7FFC
1FF8
1FF8
03C0
ENDCHAR
STARTCHAR 25D6
ENCODING 9686
SWIDTH 1020 0
DWIDTH 17 0
BBX 8 15 0 0
BITMAP
07
3F
7F
7F
7F
FF
FF
FF
FF
7F
7F
7F
3F
3F
07
ENDCHAR
STARTCHAR 25D7
ENCODING 9687
SWIDTH 1020 0
DWIDTH 17 0
BBX 8 15 7 0
BITMAP
E0
FC
FE
FE
FE
FF
FF
FF
FF
FE
FE
FE
FC
FC
E0
ENDCHAR
STARTCHAR 25D8
ENCODING 9688
SWIDTH 1020 0
DWIDTH 17 0
BBX 15 15 0 0
BITMAP
FFFE
FFFE
FFFE
FC7E
F01E
F01E
E00E
E00E
E00E
F01E
F01E
FC7E
FFFE
FFFE
FFFE
ENDCHAR
STARTCHAR 25D9
ENCODING 9689
SWIDTH 1020 0
DWIDTH 17 0
BBX 15 15 0 0
BITMAP
FFFE
FFFE
FFFE
FC7E
F39E
F39E
EFEE
EFEE
EFEE
F39E
F39E
FC7E
FFFE
FFFE
FFFE
ENDCHAR
STARTCHAR 25DA
ENCODING 9690
SWIDTH 1020 0
DWIDTH 17 0
BBX 15 8 0 7
BITMAP
FFFE
FFFE
FFFE
FC7E
F39E
FFFE
EFEE
EFEE
ENDCHAR
STARTCHAR 25DB
ENCODING 9691
SWIDTH 1020 0
DWIDTH 17 0
BBX 15 8 0 0
BITMAP
EFEE
EFEE
FFFE
F39E
FC7E
FFFE
FFFE
FFFE
ENDCHAR
STARTCHAR 25DC
ENCODING 9692
SWIDTH 1020 0
DWIDTH 17 0
BBX 9 8 0 7
BITMAP
0380
1C00
6000
6000
6000
8000
8000
8000
ENDCHAR
STARTCHAR 25DD
ENCODING 9693
SWIDTH 1020 0
DWIDTH 17 0
BBX 8 8 7 7
BITMAP
E0
1C
02
02
02
01
01
01
ENDCHAR
STARTCHAR 25DE
ENCODING 9694
SWIDTH 1020 0
DWIDTH 17 0
BBX 8 8 7 0
BITMAP
01
01
01
02
02
1C
00
E0
ENDCHAR
STARTCHAR 25DF
ENCODING 9695
SWIDTH 1020 0
DWIDTH 17 0
BBX 9 8 0 0
BITMAP
8000
8000
8000
6000
6000
1C00
0000
0380
ENDCHAR
STARTCHAR 25E0
ENCODING 9696
SWIDTH 1020 0
DWIDTH 17 0
BBX 15 8 0 7
BITMAP
03C0
1C38
6004
6004
6004
8002
8002
8002
ENDCHAR
STARTCHAR 25E1
ENCODING 9697
SWIDTH 1020 0
DWIDTH 17 0
BBX 15 8 0 0
BITMAP
8002
8002
8002
6004
6004
1C38
0000
03C0
ENDCHAR
STARTCHAR 25E2
ENCODING 9698
SWIDTH 1020 0
DWIDTH 17 0
BBX 15 15 0 0
BITMAP
0002
000E
001E
001E
003E
00FE
00FE
01FE
03FE
0FFE
0FFE
1FFE
7FFE
7FFE
FFFE
ENDCHAR
STARTCHAR 25E3
ENCODING 9699
SWIDTH 1020 0
DWIDTH 17 0
BBX 15 15 0 0
BITMAP
8000
E000
F000
F000
FC00
FE00
FE00
FF00
FFC0
FFE0
FFE0
FFF8
FFFC
FFFC
FFFE
ENDCHAR
STARTCHAR 25E4
ENCODING 9700
SWIDTH 1020 0
DWIDTH 17 0
BBX 15 15 0 0
BITMAP
FFFE
FFFC
FFFC
FFF8
FFE0
FFE0
FFC0
FF00
FE00
FE00
FC00
F000
F000
E000
8000
ENDCHAR
STARTCHAR 25E5
ENCODING 9701
SWIDTH 1020 0
DWIDTH 17 0
BBX 15 15 0 0
BITMAP
FFFE
7FFE
7FFE
1FFE
0FFE
0FFE
03FE
01FE
00FE
00FE
003E
001E
001E
000E
0002
ENDCHAR
STARTCHAR 25E6
ENCODING 9702
SWIDTH 480 0
DWIDTH 8 0
BBX 7 7 0 4
BITMAP
7C
82
82
82
82
82
7C
ENDCHAR
STARTCHAR 25E7
ENCODING 9703
SWIDTH 1020 0
DWIDTH 17 0
BBX 15 15 0 0
BITMAP
FFFE
FE02
FE02
FE02
FE02
FE02
FE02
FE02
FE02
FE02
FE02
FE02
FE02
FE02
FFFE
ENDCHAR
STARTCHAR 25E8
ENCODING 9704
SWIDTH 1020 0
DWIDTH 17 0
BBX 15 15 0 0
BITMAP
FFFE
80FE
80FE
80FE
80FE
80FE
80FE
80FE
80FE
80FE
80FE
80FE
80FE
80FE
FFFE
ENDCHAR
STARTCHAR 25E9
ENCODING 9705
SWIDTH 1020 0
DWIDTH 17 0
BBX 15 15 0 0
BITMAP
FFFE
FFFA
FFFA
FFE2
FFC2
FFC2
FF02
FE02
FC02
FC02
F002
E002
E002
8002
FFFE
ENDCHAR
STARTCHAR 25EA
ENCODING 9706
SWIDTH 1020 0
DWIDTH 17 0
BBX 15 15 0 0
BITMAP
FFFE
8002
800E
800E
801E
803E
803E
80FE
81FE
83FE
83FE
8FFE
9FFE
9FFE
FFFE
ENDCHAR
STARTCHAR 25EB
ENCODING 9707
SWIDTH 1020 0
DWIDTH 17 0
BBX 15 15 0 0
BITMAP
FFFE
8102
8102
8102
8102
8102
8102
8102
8102
8102
8102
8102
8102
8102
FFFE
ENDCHAR
STARTCHAR 25EC
ENCODING 9708
SWIDTH 1020 0
DWIDTH 17 0
BBX 15 15 0 0
BITMAP
0180
0240
0240
0240
0C20
0C20
0C20
1010
1010
618C
618C
600C
8002
8002
FFFE
ENDCHAR
STARTCHAR 25ED
ENCODING 9709
SWIDTH 1020 0
DWIDTH 17 0
BBX 15 15 0 0
BITMAP
0180
0240
0240
0240
0E20
0E20
0E20
1E10
1E10
7E0C
7E0C
7E0C
FE02
FE02
FFFE
ENDCHAR
STARTCHAR 25EE
ENCODING 9710
SWIDTH 1020 0
DWIDTH 17 0
BBX 16 15 0 0
BITMAP
0180
0240
0240
0240
0C60
0C60
0C60
1078
1078
607C
607C
607C
807F
807F
FFFF
ENDCHAR
STARTCHAR 25EF
ENCODING 9711
SWIDTH 1020 0
DWIDTH 17 0
BBX 15 15 0 0
BITMAP
03C0
1C38
6004
6004
6004
8002
8002
8002
8002
6004
6004
6004
1C38
0000
03C0
ENDCHAR
STARTCHAR 25F0
ENCODING 9712
SWIDTH 1020 0
DWIDTH 17 0
BBX 15 15 0 0
BITMAP
FFFE
8102
8102
8102
8102
8102
8102
FF02
8002
8002
8002
8002
8002
8002
FFFE
ENDCHAR
STARTCHAR 25F1
ENCODING 9713
SWIDTH 1020 0
DWIDTH 17 0
BBX 15 15 0 0
BITMAP
FFFE
8002
8002
8002
8002
8002
8002
FF02
8102
8102
8102
8102
8102
8102
FFFE
ENDCHAR
STARTCHAR 25F2
ENCODING 9714
SWIDTH 1020 0
DWIDTH 17 0
BBX 15 15 0 0
BITMAP
FFFE
8002
8002
8002
8002
8002
8002
81FE
8102
8102
8102
8102
8102
8102
FFFE
ENDCHAR
STARTCHAR 25F3
ENCODING 9715
SWIDTH 1020 0
DWIDTH 17 0
BBX 15 15 0 0
BITMAP
FFFE
8102
8102
8102
8102
8102
8102
81FE
8002
8002
8002
8002
8002
8002
FFFE
ENDCHAR
STARTCHAR 25F4
ENCODING 9716
SWIDTH 1020 0
DWIDTH 17 0
BBX 15 15 0 0
BITMAP
03C0
1D38
6104
6104
6104
8102
8102
FF02
8002
6004
6004
6004
1C38
0000
03C0
ENDCHAR
STARTCHAR 25F5
ENCODING 9717
SWIDTH 1020 0
DWIDTH 17 0
BBX 15 15 0 0
BITMAP
03C0
1C38
6004
6004
6004
8002
8002
FF02
8102
6104
6104
6104
1D38
0100
03C0
ENDCHAR
STARTCHAR 25F6
ENCODING 9718
SWIDTH 1020 0
DWIDTH 17 0
BBX 15 15 0 0
BITMAP
03C0
1C38
6004
6004
6004
8002
8002
81FE
8102
6104
6104
6104
1D38
0100
03C0
ENDCHAR
STARTCHAR 25F7
ENCODING 9719
SWIDTH 1020 0
DWIDTH 17 0
BBX 15 15 0 0
BITMAP
03C0
1D38
6104
6104
6104
8102
8102
81FE
8002
6004
6004
6004
1C38
0000
03C0
ENDCHAR
STARTCHAR 25F8
ENCODING 9720
SWIDTH 1020 0
DWIDTH 17 0
BBX 15 15 0 0
BITMAP
FFFE
800C
800C
8010
8020
8040
8040
8180
8200
8200
8C00
9000
E000
8000
8000
ENDCHAR
STARTCHAR 25F9
ENCODING 9721
SWIDTH 1020 0
DWIDTH 17 0
BBX 15 15 0 0
BITMAP
FFFE
2002
2002
1802
0402
0202
0202
0182
0042
0042
0032
000A
000E
0002
0002
ENDCHAR
STARTCHAR 25FA
ENCODING 9722
SWIDTH 1020 0
DWIDTH 17 0
BBX 15 15 0 0
BITMAP
8000
E000
E000
9000
8C00
8200
8180
8180
8040
8020
8020
8010
800C
800C
FFFE
ENDCHAR
STARTCHAR 25FB
ENCODING 9723
SWIDTH 1020 0
DWIDTH 17 0
BBX 12 12 2 2
BITMAP
FFF0
8010
8010
8010
8010
8010
8010
8010
8010
8010
8010
FFF0
ENDCHAR
STARTCHAR 25FC
ENCODING 9724
SWIDTH 1020 0
DWIDTH 17 0
BBX 13 13 1 1
BITMAP
FFF8
FFF8
FFF8
FFF8
FFF8
FFF8
FFF8
FFF8
FFF8
FFF8
FFF8
FFF8
FFF8
ENDCHAR
STARTCHAR 25FD
ENCODING 9725
SWIDTH 1020 0
DWIDTH 17 0
BBX 9 9 3 3
BITMAP
FF80
8080
8080
8080
8080
8080
8080
8080
FF80
ENDCHAR
STARTCHAR 25FE
ENCODING 9726
SWIDTH 1020 0
DWIDTH 17 0
BBX 10 10 3 3
BITMAP
FFC0
FFC0
FFC0
FFC0
FFC0
FFC0
FFC0
FFC0
FFC0
FFC0
ENDCHAR
STARTCHAR 25FF
ENCODING 9727
SWIDTH 1020 0
DWIDTH 17 0
BBX 15 15 0 0
BITMAP
0002
000E
000E
000A
0032
0042
0182
0182
0202
0402
0402
1802
2002
2002
FFFE
ENDCHAR
STARTCHAR 2600
ENCODING 9728
SWIDTH 1020 0
DWIDTH 17 0
BBX 15 15 0 0
BITMAP
0180
6004
03C0
03C0
0FE0
1FF8
1FF8
9FFA
1FF8
1FF8
0FE0
03C0
6004
0000
0180
ENDCHAR
STARTCHAR 2601
ENCODING 9729
SWIDTH 1020 0
DWIDTH 17 0
BBX 15 13 0 2
BITMAP
0380
0C60
0C60
1C70
600C
8002
8002
8002
8062
8062
8082
610C
1EF0
ENDCHAR
STARTCHAR 2602
ENCODING 9730
SWIDTH 1020 0
DWIDTH 17 0
BBX 15 15 0 0
BITMAP
0100
0FE0
1FF8
1FF8
7FFC
FFFE
0100
0100
0100
0100
0100
0100
0118
0100
00E0
ENDCHAR
STARTCHAR 2603
ENCODING 9731
SWIDTH 1020 0
DWIDTH 17 0
BBX 12 15 2 0
BITMAP
0F00
1080
6060
6060
6060
70E0
8010
8010
8010
8010
8010
8010
6060
0000
1F80
ENDCHAR
STARTCHAR 2605
ENCODING 9733
SWIDTH 1020 0
DWIDTH 17 0
BBX 15 15 0 0
BITMAP
0100
0100
03C0
03C0
03C0
FFFE
FFFE
7FFC
1FF8
0FE0
0FE0
1EF8
1C38
1C38
1018
ENDCHAR
STARTCHAR 2606
ENCODING 9734
SWIDTH 1020 0
DWIDTH 17 0
BBX 16 15 0 0
BITMAP
0100
0100
0100
02C0
02C0
FC3F
6004
6004
1018
1018
0D20
12D8
1C38
1C38
1018
ENDCHAR
STARTCHAR 2610
ENCODING 9744
SWIDTH 1020 0
DWIDTH 17 0
BBX 12 12 2 2
BITMAP
FFF0
8010
8010
8010
8010
8010
8010
8010
8010
8010
8010
FFF0
ENDCHAR
STARTCHAR 2611
ENCODING 9745
SWIDTH 1020 0
DWIDTH 17 0
BBX 12 12 2 2
BITMAP
FFF0
8010
8010
8070
8090
8090
C110
9610
9610
8810
8010
FFF0
ENDCHAR
STARTCHAR 2612
ENCODING 9746
SWIDTH 1020 0
DWIDTH 17 0
BBX 12 12 2 2
BITMAP
FFF0
8010
8010
9090
8910
8910
8610
8910
8910
9090
8010
FFF0
ENDCHAR
STARTCHAR 262E
ENCODING 9774
SWIDTH 1020 0
DWIDTH 17 0
BBX 15 15 0 0
BITMAP
03C0
1D38
6104
6104
6104
8102
8102
83C2
8D22
8D22
711C
6104
1D38
0100
03C0
ENDCHAR
STARTCHAR 2630
ENCODING 9776
SWIDTH 1020 0
DWIDTH 17 0
BBX 13 9 1 3
BITMAP
FFF8
0000
0000
0000
FFF8
0000
0000
0000
FFF8
ENDCHAR
STARTCHAR 2631
ENCODING 9777
SWIDTH 1020 0
DWIDTH 17 0
BBX 13 9 1 3
BITMAP
FDF8
0000
0000
0000
FFF8
0000
0000
0000
FFF8
ENDCHAR
STARTCHAR 2632
ENCODING 9778
SWIDTH 1020 0
DWIDTH 17 0
BBX 13 9 1 3
BITMAP
FFF8
0000
0000
0000
FDF8
0000
0000
0000
FFF8
ENDCHAR
STARTCHAR 2633
ENCODING 9779
SWIDTH 1020 0
DWIDTH 17 0
BBX 13 9 1 3
BITMAP
FDF8
0000
0000
0000
FDF8
0000
0000
0000
FFF8
ENDCHAR
STARTCHAR 2634
ENCODING 9780
SWIDTH 1020 0
DWIDTH 17 0
BBX 13 9 1 3
BITMAP
FFF8
0000
0000
0000
FFF8
0000
0000
0000
FDF8
ENDCHAR
STARTCHAR 2635
ENCODING 9781
SWIDTH 1020 0
DWIDTH 17 0
BBX 13 9 1 3
BITMAP
FDF8
0000
0000
0000
FFF8
0000
0000
0000
FDF8
ENDCHAR
STARTCHAR 2636
ENCODING 9782
SWIDTH 1020 0
DWIDTH 17 0
BBX 13 9 1 3
BITMAP
FFF8
0000
0000
0000
FDF8
0000
0000
0000
FDF8
ENDCHAR
STARTCHAR 2637
ENCODING 9783
SWIDTH 1020 0
DWIDTH 17 0
BBX 13 9 1 3
BITMAP
FDF8
0000
0000
0000
FDF8
0000
0000
0000
FDF8
ENDCHAR
STARTCHAR 2639
ENCODING 9785
SWIDTH 1020 0
DWIDTH 17 0
BBX 15 15 0 0
BITMAP
FFFE
8002
8002
8C22
8C22
8C22
8C22
8002
8002
8002
8FE2
901A
8002
8002
FFFE
ENDCHAR
STARTCHAR 263A
ENCODING 9786
SWIDTH 1020 0
DWIDTH 17 0
BBX 15 15 0 0
BITMAP
FFFE
8002
8002
8C22
8C22
8C22
8C22
8002
8002
8002
901A
8FE2
8002
8002
FFFE
ENDCHAR
STARTCHAR 263B
ENCODING 9787
SWIDTH 1020 0
DWIDTH 17 0
BBX 15 15 0 0
BITMAP
FFFE
FFFE
FFFE
F7DE
F7DE
F7DE
F7DE
FFFE
FFFE
FFFE
EFEE
F01E
FFFE
FFFE
FFFE
ENDCHAR
STARTCHAR 263C
ENCODING 9788
SWIDTH 1020 0
DWIDTH 17 0
BBX 15 15 0 0
BITMAP
0180
600C
03C0
03C0
0C20
1010
1010
9012
1010
1010
0C20
03C0
600C
0000
0180
ENDCHAR
STARTCHAR 2640
ENCODING 9792
SWIDTH 1020 0
DWIDTH 17 0
BBX 10 15 3 0
BITMAP
1E00
6100
6100
80C0
80C0
80C0
80C0
6100
1E00
0C00
0C00
FFC0
0C00
0C00
0C00
ENDCHAR
STARTCHAR 2641
ENCODING 9793
SWIDTH 1020 0
DWIDTH 17 0
BBX 10 15 3 0
BITMAP
0C00
0C00
0C00
FFC0
0C00
1E00
1E00
6100
80C0
80C0
80C0
80C0
6100
0000
1E00
ENDCHAR
STARTCHAR 2642
ENCODING 9794
SWIDTH 1020 0
DWIDTH 17 0
BBX 14 14 0 0
BITMAP
01FC
001C
001C
0024
1E44
1E44
6184
8040
8040
8040
8040
6180
0000
1E00
ENDCHAR
STARTCHAR 2660
ENCODING 9824
SWIDTH 1020 0
DWIDTH 17 0
BBX 16 15 0 0
BITMAP
0180
03C0
0FE0
0FE0
1FF8
7FFC
FFFF
FFFF
FFFF
FDBF
FDBF
719C
03C0
03C0
0FE0
ENDCHAR
STARTCHAR 2661
ENCODING 9825
SWIDTH 1020 0
DWIDTH 17 0
BBX 15 14 0 0
BITMAP
7C3C
8242
8242
8182
8002
8002
8002
6004
6004
1018
0C20
0240
0000
0180
ENDCHAR
STARTCHAR 2662
ENCODING 9826
SWIDTH 1020 0
DWIDTH 17 0
BBX 15 15 0 0
BITMAP
0180
0240
0C20
0C20
1010
600C
600C
8002
600C
600C
1010
0C20
0240
0000
0180
ENDCHAR
STARTCHAR 2663
ENCODING 9827
SWIDTH 1020 0
DWIDTH 17 0
BBX 15 15 0 0
BITMAP
03C0
0FE0
0FE0
0FE0
03C0
7FFC
7D3C
FFFE
FFFE
FFFE
7D3C
0100
03C0
03C0
0FE0
ENDCHAR
STARTCHAR 2664
ENCODING 9828
SWIDTH 1020 0
DWIDTH 17 0
BBX 15 15 0 0
BITMAP
0100
06C0
06C0
0820
1010
600C
8002
8002
86C2
8922
8922
711C
06C0
06C0
0FE0
ENDCHAR
STARTCHAR 2665
ENCODING 9829
SWIDTH 1020 0
DWIDTH 17 0
BBX 15 14 0 0
BITMAP
7C7C
7C7C
FEFE
FFFE
FFFE
FFFE
FFFE
7FFC
1FF0
1FF0
0FE0
0380
0380
0100
ENDCHAR
STARTCHAR 2666
ENCODING 9830
SWIDTH 1020 0
DWIDTH 17 0
BBX 15 15 0 0
BITMAP
0100
03C0
0FE0
0FE0
1FF8
7FFC
7FFC
FFFE
7FFC
1FF8
1FF8
0FE0
03C0
03C0
0100
ENDCHAR
STARTCHAR 2667
ENCODING 9831
SWIDTH 1020 0
DWIDTH 17 0
BBX 15 15 0 0
BITMAP
07C0
0820
0820
0820
06C0
783C
8002
8002
87C2
87C2
793C
0100
06C0
06C0
0FE0
ENDCHAR
STARTCHAR 2669
ENCODING 9833
SWIDTH 1020 0
DWIDTH 17 0
BBX 6 15 4 0
BITMAP
0C
0C
0C
0C
0C
0C
0C
0C
0C
0C
0C
3C
FC
FC
F0
ENDCHAR
STARTCHAR 266A
ENCODING 9834
SWIDTH 1020 0
DWIDTH 17 0
BBX 10 15 3 0
BITMAP
0800
0E00
0F00
0F00
09C0
08C0
08C0
08C0
0900
0800
0800
7800
F800
F800
F000
ENDCHAR
STARTCHAR 266B
ENCODING 9835
SWIDTH 1020 0
DWIDTH 17 0
BBX 15 15 0 0
BITMAP
0FFE
0FFE
0FFE
0C02
0C02
0C02
0C02
0C02
0C02
0C02
0C02
7C1E
FC3E
FC3E
F03C
ENDCHAR
STARTCHAR 266C
ENCODING 9836
SWIDTH 1020 0
DWIDTH 17 0
BBX 15 15 0 0
BITMAP
0FFE
0C02
0C02
0FFE
0C02
0C02
0C02
0C02
0C02
0C02
0C02
7C1E
FC3E
FC3E
F03C
ENDCHAR
STARTCHAR 266D
ENCODING 9837
SWIDTH 1020 0
DWIDTH 17 0
BBX 8 15 4 0
BITMAP
80
80
80
80
80
9E
9E
EF
83
83
83
8E
9C
80
E0
ENDCHAR
STARTCHAR 266E
ENCODING 9838
SWIDTH 1020 0
DWIDTH 17 0
BBX 8 15 4 0
BITMAP
80
81
81
8F
FF
F1
F1
81
8F
FF
FF
F1
81
81
01
ENDCHAR
STARTCHAR 266F
ENCODING 9839
SWIDTH 1020 0
DWIDTH 17 0
BBX 13 15 1 0
BITMAP
0040
1078
1078
1FF8
FFC0
F040
F040
1040
1078
1078
1FF8
FFC0
F040
F040
1000
ENDCHAR
STARTCHAR 2680
ENCODING 9856
SWIDTH 1020 0
DWIDTH 17 0
BBX 12 12 2 2
BITMAP
FFF0
8030
8030
8030
8030
8030
8430
8030
8030
8030
8030
FFF0
ENDCHAR
STARTCHAR 2681
ENCODING 9857
SWIDTH 1020 0
DWIDTH 17 0
BBX 12 12 2 2
BITMAP
FFF0
8010
8010
8090
8010
8010
8010
8010
8010
9010
8010
FFF0
ENDCHAR
STARTCHAR 2682
ENCODING 9858
SWIDTH 1020 0
DWIDTH 17 0
BBX 12 12 2 2
BITMAP
FFF0
8010
8010
8090
8010
8010
8610
8010
8010
9010
8010
FFF0
ENDCHAR
STARTCHAR 2683
ENCODING 9859
SWIDTH 1020 0
DWIDTH 17 0
BBX 12 12 2 2
BITMAP
FFF0
8010
8010
9090
8010
8010
8010
8010
8010
9090
8010
FFF0
ENDCHAR
STARTCHAR 2684
ENCODING 9860
SWIDTH 1020 0
DWIDTH 17 0
BBX 12 12 2 2
BITMAP
FFF0
8010
8010
9090
8010
8010
8610
8010
8010
9090
8010
FFF0
ENDCHAR
STARTCHAR 2685
ENCODING 9861
SWIDTH 1020 0
DWIDTH 17 0
BBX 12 12 2 2
BITMAP
FFF0
8010
8010
9090
8010
8010
9090
8010
8010
9090
8010
FFF0
ENDCHAR
STARTCHAR 2686
ENCODING 9862
SWIDTH 1020 0
DWIDTH 17 0
BBX 15 15 0 0
BITMAP
03C0
1C38
6004
6004
6004
8002
8022
8022
8002
6004
6004
6004
1C38
0000
03C0
ENDCHAR
STARTCHAR 2687
ENCODING 9863
SWIDTH 1020 0
DWIDTH 17 0
BBX 15 15 0 0
BITMAP
03C0
1C38
6004
6004
6004
8002
8C22
8C22
8002
6004
6004
6004
1C38
0000
03C0
ENDCHAR
STARTCHAR 2688
ENCODING 9864
SWIDTH 1020 0
DWIDTH 17 0
BBX 15 15 0 0
BITMAP
03C0
1FF0
7FFC
7FFC
7FFC
FFFE
FFFE
FFDE
FFFE
7FFC
7FFC
7FFC
1FF0
1FF0
03C0
ENDCHAR
STARTCHAR 2689
ENCODING 9865
SWIDTH 1020 0
DWIDTH 17 0
BBX 15 15 0 0
BITMAP
03C0
1FF0
7FFC
7FFC
7FFC
FFFE
FFFE
F3DE
FFFE
7FFC
7FFC
7FFC
1FF0
1FF0
03C0
ENDCHAR
STARTCHAR 26A0
ENCODING 9888
SWIDTH 1020 0
DWIDTH 17 0
BBX 15 15 0 0
BITMAP
FFFE
FEFE
FEFE
FEFE
FEFE
FEFE
FEFE
FEFE
FEFE
FEFE
FFFE
FEFE
FEFE
FEFE
FFFE
ENDCHAR
STARTCHAR 26C4
ENCODING 9924
SWIDTH 1020 0
DWIDTH 17 0
BBX 12 15 2 0
BITMAP
0F00
1080
6060
6060
6060
70E0
8010
8010
8010
8010
8010
8010
6060
0000
1F80
ENDCHAR
STARTCHAR 26D4
ENCODING 9940
SWIDTH 1020 0
DWIDTH 17 0
BBX 15 15 0 0
BITMAP
03C0
1FF0
7FFC
7FFC
7FFC
E00E
E00E
E00E
FFFE
7FFC
7FFC
7FFC
1FF0
1FF0
03C0
ENDCHAR
STARTCHAR 2706
ENCODING 9990
SWIDTH 1020 0
DWIDTH 17 0
BBX 9 17 3 0
BITMAP
0080
0080
FF80
8080
8080
8080
8080
FF80
9280
9280
ED80
9280
9280
ED80
9280
9280
FF80
ENDCHAR
STARTCHAR 2709
ENCODING 9993
SWIDTH 1020 0
DWIDTH 17 0
BBX 15 12 0 2
BITMAP
FFFE
E00E
E00E
9012
8C22
8242
8242
8182
8002
8002
8002
FFFE
ENDCHAR
STARTCHAR 2753
ENCODING 10067
SWIDTH 1020 0
DWIDTH 17 0
BBX 15 15 0 0
BITMAP
FFFE
FC3E
FFFE
F3DE
FFDE
FF3E
FE3E
FEFE
FEFE
FEFE
FFFE
FEFE
FEFE
FEFE
FFFE
ENDCHAR
STARTCHAR 2757
ENCODING 10071
SWIDTH 1020 0
DWIDTH 17 0
BBX 15 15 0 0
BITMAP
FFFE
FEFE
FEFE
FEFE
FEFE
FEFE
FEFE
FEFE
FEFE
FEFE
FFFE
FEFE
FEFE
FEFE
FFFE
ENDCHAR
STARTCHAR 2776
ENCODING 10102
SWIDTH 1020 0
DWIDTH 17 0
BBX 15 15 0 0
BITMAP
0FE0
7FFC
7FFC
7EFC
FCFE
FCFE
FEFE
FEFE
FEFE
FEFE
FEFE
7C3C
7FFC
7FFC
0FE0
ENDCHAR
STARTCHAR 2777
ENCODING 10103
SWIDTH 1020 0
DWIDTH 17 0
BBX 15 15 0 0
BITMAP
0FE0
7FFC
7FFC
7C3C
F3DE
FFDE
FFDE
FF3E
FEFE
FDFE
FDFE
701C
7FFC
7FFC
0FE0
ENDCHAR
STARTCHAR 2778
ENCODING 10104
SWIDTH 1020 0
DWIDTH 17 0
BBX 15 15 0 0
BITMAP
0FE0
7FFC
7FFC
7C3C
F3DE
F3DE
FFDE
FE3E
FFDE
F3DE
F3DE
7C3C
7FFC
7FFC
0FE0
ENDCHAR
STARTCHAR 2779
ENCODING 10105
SWIDTH 1020 0
DWIDTH 17 0
BBX 15 15 0 0
BITMAP
0FE0
7FFC
7FFC
7F3C
FE3E
FF3E
FD3E
F33E
E01E
E01E
FF3E
7F3C
7FFC
7FFC
0FE0
ENDCHAR
STARTCHAR 277A
ENCODING 10106
SWIDTH 1020 0
DWIDTH 17 0
BBX 15 15 0 0
BITMAP
0FC0
7FF8
7FF8
7038
F7FE
F07E
F07E
F7BE
FFBE
F7BE
F7BE
7878
7FF8
7FF8
0FC0
ENDCHAR
STARTCHAR 277B
ENCODING 10107
SWIDTH 1020 0
DWIDTH 17 0
BBX 15 15 0 0
BITMAP
0FE0
7FFC
7FFC
7C3C
F3DE
F3DE
F3FE
F03E
F3DE
F3DE
F3DE
7C3C
7FFC
7FFC
0FE0
ENDCHAR
STARTCHAR 277C
ENCODING 10108
SWIDTH 1020 0
DWIDTH 17 0
BBX 15 15 0 0
BITMAP
0FE0
7FFC
7FFC
701C
FFDE
FF3E
FF3E
FF3E
FEFE
FEFE
FEFE
7EFC
7FFC
7FFC
0FE0
ENDCHAR
STARTCHAR 277D
ENCODING 10109
SWIDTH 1020 0
DWIDTH 17 0
BBX 15 15 0 0
BITMAP
0FE0
7FFC
7FFC
7C3C
F3DE
F3DE
F3DE
FC3E
F3DE
F3DE
F3DE
7C3C
7FFC
7FFC
0FE0
ENDCHAR
STARTCHAR 277E
ENCODING 10110
SWIDTH 1020 0
DWIDTH 17 0
BBX 15 15 0 0
BITMAP
0FE0
7FFC
7FFC
7C3C
F3DE
F3DE
F3DE
FC1E
FFDE
F3DE
F3DE
7C3C
7FFC
7FFC
0FE0
ENDCHAR
STARTCHAR 277F
ENCODING 10111
SWIDTH 1020 0
DWIDTH 17 0
BBX 15 15 0 0
BITMAP
0FE0
7FFC
7FFC
731C
E2EE
F2EE
F2EE
F2EE
F2EE
F2EE
F2EE
731C
7FFC
0FE0
0FE0
ENDCHAR
STARTCHAR 2780
ENCODING 10112
SWIDTH 1020 0
DWIDTH 17 0
BBX 15 15 0 0
BITMAP
0FE0
1010
610C
610C
8302
8102
8102
8102
8102
8102
8102
63CC
1010
0000
0FE0
ENDCHAR
STARTCHAR 2781
ENCODING 10113
SWIDTH 1020 0
DWIDTH 17 0
BBX 15 15 0 0
BITMAP
0FE0
1010
63CC
63CC
8C22
8022
8022
8042
8182
8202
8202
6FEC
1010
0000
0FE0
ENDCHAR
STARTCHAR 2782
ENCODING 10114
SWIDTH 1020 0
DWIDTH 17 0
BBX 15 15 0 0
BITMAP
0FE0
1010
63CC
63CC
8C22
8022
8022
81C2
8022
8022
8C22
63CC
1010
0000
0FE0
ENDCHAR
STARTCHAR 2783
ENCODING 10115
SWIDTH 1020 0
DWIDTH 17 0
BBX 15 15 0 0
BITMAP
0FE0
1018
60C4
60C4
81C2
82C2
82C2
8CC2
9FE2
9FE2
80C2
60C4
1018
0000
0FE0
ENDCHAR
STARTCHAR 2784
ENCODING 10116
SWIDTH 1020 0
DWIDTH 17 0
BBX 15 15 0 0
BITMAP
0FE0
1010
6FEC
6FEC
8C02
8FC2
8FC2
8C22
8022
8C22
8C22
63CC
1010
0000
0FE0
ENDCHAR
STARTCHAR 2785
ENCODING 10117
SWIDTH 1020 0
DWIDTH 17 0
BBX 15 15 0 0
BITMAP
0FE0
1010
63CC
63CC
8C22
8C02
8C02
8FC2
8C22
8C22
8C22
63CC
1010
0000
0FE0
ENDCHAR
STARTCHAR 2786
ENCODING 10118
SWIDTH 1020 0
DWIDTH 17 0
BBX 15 15 0 0
BITMAP
0FE0
1018
6FE4
6FE4
8022
80C2
80C2
80C2
8102
8102
8102
6104
1018
0000
0FE0
ENDCHAR
ENDFONT
